SplineFontDB: 3.0
FontName: BowlbyOneSC-Regular
FullName: Bowlby One SC Regular
FamilyName: Bowlby One SC Regular
Weight: Book
Copyright: Copyright (c) 2011 by vernon adams. All rights reserved.
Version: 1.000
ItalicAngle: 0
UnderlinePosition: -52
UnderlineWidth: 51
Ascent: 819
Descent: 205
sfntRevision: 0x00010000
LayerCount: 2
Layer: 0 1 "Back"  1
Layer: 1 1 "Fore"  0
XUID: [1021 759 1887733602 6357365]
FSType: 0
OS2Version: 3
OS2_WeightWidthSlopeOnly: 0
OS2_UseTypoMetrics: 1
CreationTime: 1306853989
ModificationTime: 1309541002
PfmFamily: 17
TTFWeight: 400
TTFWidth: 5
LineGap: 0
VLineGap: 0
Panose: 2 0 5 5 6 0 0 2 0 4
OS2TypoAscent: 305
OS2TypoAOffset: 1
OS2TypoDescent: -233
OS2TypoDOffset: 1
OS2TypoLinegap: 0
OS2WinAscent: 0
OS2WinAOffset: 1
OS2WinDescent: 0
OS2WinDOffset: 1
HheadAscent: 0
HheadAOffset: 1
HheadDescent: 0
HheadDOffset: 1
OS2SubXSize: 666
OS2SubYSize: 614
OS2SubXOff: 0
OS2SubYOff: 77
OS2SupXSize: 666
OS2SupYSize: 614
OS2SupXOff: 0
OS2SupYOff: 358
OS2StrikeYSize: 51
OS2StrikeYPos: 256
OS2Vendor: 'newt'
OS2CodePages: 00000001.00000000
OS2UnicodeRanges: 800000ef.4000a04b.00000000.00000000
Lookup: 258 0 0 "'kern' Horizontal Kerning in Latin lookup 0"  {"'kern' Horizontal Kerning in Latin lookup 0 subtable"  } ['kern' ('latn' <'dflt' > ) ]
MarkAttachClasses: 1
DEI: 91125
TtTable: prep
PUSHW_2
 2048
 2048
MUL
DUP
PUSHB_1
 10
SWAP
WS
DUP
PUSHB_1
 0
SWAP
WCVTF
PUSHB_1
 16
RCVT
DUP
DUP
PUSHB_1
 40
ADD
FLOOR
DUP
ROLL
NEQ
IF
PUSHB_1
 10
RS
MUL
SWAP
DIV
PUSHB_1
 9
SWAP
WS
PUSHB_4
 5
 6
 3
 2
CALL
PUSHB_4
 7
 12
 3
 2
CALL
PUSHB_4
 13
 18
 3
 2
CALL
ELSE
PUSHB_2
 9
 10
RS
WS
EIF
PUSHB_3
 11
 40
 2
RCVT
GT
WS
PUSHB_4
 7
 12
 4
 2
CALL
EndTTInstrs
TtTable: fpgm
PUSHB_1
 0
FDEF
DUP
ABS
PUSHB_1
 32
ADD
FLOOR
SWAP
PUSHB_1
 0
LT
IF
NEG
EIF
ENDF
PUSHB_1
 1
FDEF
DUP
ABS
DUP
PUSHB_1
 192
LT
PUSHB_1
 4
MINDEX
AND
PUSHB_1
 11
RS
OR
IF
POP
SWAP
POP
ELSE
ROLL
IF
DUP
PUSHB_1
 80
LT
IF
POP
PUSHB_1
 64
EIF
ELSE
DUP
PUSHB_1
 56
LT
IF
POP
PUSHB_1
 56
EIF
EIF
DUP
PUSHB_1
 5

StartChar: exclam
Encoding: 33 33 4
Width: 396
GlyphClass: 2
Flags: W
LayerCount: 2
Fore
SplineSet
49 672 m 1,0,-1
 46 731 l 2,1,2
 46 748 46 748 130 748 c 2,3,-1
 160 748 l 1,4,-1
 190 750 l 2,5,6
 246 754 246 754 299.5 754 c 128,-1,7
 353 754 353 754 353 734 c 2,8,-1
 353 732 l 1,9,-1
 335 506 l 2,10,11
 325 392 325 392 313 279 c 0,12,13
 311 261 311 261 258 261 c 1,14,-1
 219 262 l 1,15,-1
 140 260 l 1,16,17
 140 260 140 260 97 260 c 1,18,19
 72 268 72 268 72 306 c 2,20,-1
 72 356 l 1,21,-1
 62 482 l 1,22,-1
 56 577 l 2,23,24
 53 623 53 623 49 672 c 1,0,-1
330 2 m 1,25,26
 326 -14 326 -14 181 -14 c 1,27,-1
 73 -16 l 1,28,-1
 66 -8 l 2,29,30
 64 -6 64 -6 56 6 c 1,31,-1
 56 38 l 1,32,-1
 58 76 l 1,33,34
 58 178 58 178 74 178 c 2,35,-1
 172 178 l 2,36,37
 329 178 329 178 329 160 c 1,38,-1
 328 146 l 1,39,-1
 328 42 l 2,40,41
 328 22 328 22 330 2 c 1,25,26
EndSplineSet
EndChar

StartChar: quotedbl
Encoding: 34 34 5
Width: 642
GlyphClass: 2
Flags: W
LayerCount: 2
Fore
SplineSet
268 420 m 2,0,-1
 239 421 l 1,1,-1
 173 420 l 2,2,3
 140 420 140 420 107 418 c 1,4,-1
 98 427 l 1,5,6
 90 437 90 437 90 452 c 2,7,-1
 90 471 l 2,8,9
 90 488 90 488 92 506 c 1,10,-1
 94 627 l 1,11,-1
 96 694 l 1,12,-1
 96 720 l 2,13,14
 96 752 96 752 107 755 c 1,15,-1
 190 754 l 1,16,17
 210 756 210 756 255 756 c 128,-1,18
 300 756 300 756 300 746 c 2,19,-1
 300 733 l 1,20,21
 306 526 306 526 306 483 c 0,22,23
 306 431 306 431 298.5 425.5 c 128,-1,24
 291 420 291 420 268 420 c 2,0,-1
550 425 m 1,25,26
 494 423 494 423 366 419 c 1,27,-1
 360 428 l 1,28,29
 350 441 350 441 350 456 c 2,30,-1
 350 502 l 1,31,-1
 355 632 l 2,32,33
 356 650 356 650 356 668 c 2,34,-1
 356 734 l 2,35,36
 356 756 356 756 367 756 c 2,37,-1
 427 756 l 2,38,39
 444 756 444 756 462 755 c 2,40,-1
 497 754 l 1,41,42
 558 754 558 754 558 749 c 2,43,-1
 558 740 l 1,44,45
 564 629 564 629 564 526.5 c 128,-1,46
 564 424 564 424 552 424 c 2,47,-1
 551 424 l 1,48,-1
 550 425 l 1,25,26
EndSplineSet
EndChar

StartChar: numbersign
Encoding: 35 35 6
Width: 774
GlyphClass: 2
Flags: W
LayerCount: 2
Fore
SplineSet
608 332 m 2,0,1
 623 332 623 332 627 322 c 1,2,-1
 627 248 l 1,3,-1
 628 200 l 1,4,5
 626 188 626 188 614 189 c 2,6,-1
 537 191 l 1,7,-1
 531 146 l 1,8,-1
 526 100 l 2,9,10
 525 92 525 92 526 80 c 0,11,12
 529 -14 529 -14 466 -14 c 1,13,-1
 424 -15 l 1,14,15
 362 -15 362 -15 359 4 c 1,16,17
 365 48 365 48 370 93 c 128,-1,18
 375 138 375 138 382 184 c 1,19,20
 372 183 372 183 362 182.5 c 128,-1,21
 352 182 352 182 342 180 c 1,22,-1
 326 42 l 2,23,24
 324 31 324 31 323 20 c 0,25,26
 319 -17 319 -17 274 -17 c 128,-1,27
 229 -17 229 -17 175 -15 c 1,28,29
 171 -9 171 -9 167.5 -3.5 c 128,-1,30
 164 2 164 2 160 8 c 1,31,32
 166 52 166 52 172 94 c 128,-1,33
 178 136 178 136 184 182 c 1,34,-1
 172 182 l 2,35,36
 118 182 118 182 115 194 c 128,-1,37
 112 206 112 206 112 220 c 2,38,-1
 113 316 l 1,39,40
 112 334 112 334 142 334 c 2,41,-1
 206 334 l 1,42,-1
 216 406 l 1,43,-1
 172 406 l 2,44,45
 144 406 144 406 144 424 c 2,46,-1
 146 539 l 2,47,48
 146 557 146 557 203 557 c 1,49,-1
 235 556 l 2,50,51
 236 556 236 556 238 569 c 128,-1,52
 240 582 240 582 244 601 c 1,53,-1
 256 688 l 1,54,-1
 262 724 l 2,55,56
 265 748 265 748 282 751.5 c 128,-1,57
 299 755 299 755 340 755 c 2,58,-1
 374 755 l 2,59,60
 408 755 408 755 413 740 c 1,61,62
 405 693 405 693 399.5 645.5 c 128,-1,63
 394 598 394 598 386 551 c 1,64,-1
 435 551 l 1,65,66
 437 567 437 567 439 586 c 2,67,-1
 442 626 l 1,68,69
 453 737 453 737 468 752 c 1,70,71
 478 751 478 751 488 751 c 2,72,-1
 588 751 l 2,73,74
 605 751 605 751 605 739 c 1,75,-1
 584 578 l 1,76,-1
 581 552 l 1,77,-1
 642 552 l 1,78,79
 654 550 654 550 654 530 c 2,80,-1
 654 464 l 1,81,-1
 655 430 l 2,82,83
 655 408 655 408 619 408 c 2,84,-1
 610 408 l 1,85,86
 566 411 566 411 563 411 c 1,87,88
 560 391 560 391 558 371.5 c 128,-1,89
 556 352 556 352 553 332 c 1,90,-1
 608 332 l 2,0,1
334 324 m 1,91,92
 334 310 334 310 342 310 c 2,93,-1
 356 310 l 1,94,-1
 413 313 l 1,95,96
 420 312 420 312 422 320 c 2,97,-1
 440 420 l 1,98,99
 438 434 438 434 426 434 c 2,100,-1
 402 434 l 1,101,102
 390 436 390 436 380 436 c 2,103,-1
 358 436 l 1,104,-1
 351 423 l 1,105,106
 346 397 346 397 342 373 c 2,107,-1
 334 324 l 1,91,92
EndSplineSet
EndChar

StartChar: dollar
Encoding: 36 36 7
Width: 722
GlyphClass: 2
Flags: W
LayerCount: 2
Fore
SplineSet
385 581 m 0,0,1
 312 578 312 578 312 550 c 0,2,3
 312 516 312 516 364 507 c 128,-1,4
 416 498 416 498 430 494 c 2,5,-1
 483 481 l 2,6,7
 581 457 581 457 636 424 c 1,8,9
 732 352 732 352 732 228 c 0,10,11
 732 30 732 30 454 -27 c 1,12,-1
 455 -78 l 2,13,14
 456 -86 456 -86 456 -92 c 2,15,-1
 456 -100 l 2,16,17
 456 -130 456 -130 434 -130 c 2,18,-1
 360 -128 l 2,19,20
 324 -128 324 -128 286 -126 c 1,21,22
 268 -114 268 -114 268 -92 c 2,23,-1
 268 -75 l 2,24,25
 268 -22 268 -22 236 -19 c 0,26,27
 128 -8 128 -8 72.5 61 c 128,-1,28
 17 130 17 130 11 226 c 1,29,30
 11 246 11 246 45 246 c 1,31,-1
 74 244 l 1,32,-1
 298 244 l 2,33,34
 310 244 310 244 315 219 c 128,-1,35
 320 194 320 194 330 180.5 c 128,-1,36
 340 167 340 167 371 166 c 1,37,38
 434 166 434 166 434 216 c 0,39,40
 434 248 434 248 390 248 c 1,41,42
 378 254 378 254 334 265 c 2,43,-1
 288 277 l 1,44,45
 143 312 143 312 106.5 345 c 128,-1,46
 70 378 70 378 49 413 c 128,-1,47
 28 448 28 448 28 502.5 c 128,-1,48
 28 557 28 557 38 592 c 0,49,50
 77 724 77 724 274 765 c 1,51,52
 273 778 273 778 273 794 c 2,53,-1
 273 832 l 2,54,55
 273 863 273 863 284 866 c 1,56,57
 304 866 304 866 324 866 c 2,58,-1
 424 867 l 2,59,60
 444 867 444 867 444 817 c 1,61,-1
 442 764 l 1,62,63
 670 746 670 746 698 575 c 0,64,65
 700 566 700 566 700 556 c 2,66,-1
 700 535 l 2,67,68
 700 524 700 524 696 524 c 2,69,-1
 688 524 l 1,70,-1
 460 519 l 2,71,72
 429 519 429 519 425.5 528.5 c 128,-1,73
 422 538 422 538 416.5 560 c 128,-1,74
 411 582 411 582 387 581 c 0,75,76
 386 581 386 581 385 581 c 0,0,1
EndSplineSet
EndChar

StartChar: percent
Encoding: 37 37 8
Width: 1076
GlyphClass: 2
Flags: W
LayerCount: 2
Fore
SplineSet
216 766 m 0,0,1
 456 766 456 766 456 513 c 128,-1,2
 456 260 456 260 226 260 c 0,3,4
 9 260 9 260 9 510 c 0,5,6
 9 516 9 516 11 530 c 128,-1,7
 13 544 13 544 16 569 c 0,8,9
 29 658 29 658 76 705 c 1,10,11
 149 766 149 766 216 766 c 0,0,1
236 648 m 1,12,13
 183 645 183 645 183 510.5 c 128,-1,14
 183 376 183 376 238 376 c 0,15,16
 282 376 282 376 282 472 c 2,17,-1
 282 554 l 2,18,19
 282 648 282 648 236 648 c 1,12,13
340 -44 m 1,20,-1
 278 -42 l 1,21,-1
 264 -7 l 1,22,-1
 688 765 l 1,23,24
 692 770 692 770 696 772 c 1,25,-1
 728 772 l 1,26,-1
 797 770 l 2,27,28
 810 770 810 770 810 768 c 2,29,-1
 810 767 l 1,30,-1
 610 383 l 1,31,32
 578 328 578 328 552 268 c 1,33,-1
 404 -30 l 2,34,35
 397 -44 397 -44 340 -44 c 1,20,-1
835 -30 m 0,36,37
 618 -30 618 -30 618 217 c 2,38,-1
 618 230 l 1,39,40
 630 373 630 373 676 411 c 1,41,42
 806 480 806 480 824 479.5 c 128,-1,43
 842 479 842 479 882 479 c 128,-1,44
 922 479 922 479 959 455 c 0,45,46
 1034 406 1034 406 1051 348.5 c 128,-1,47
 1068 291 1068 291 1068 228 c 0,48,49
 1068 102 1068 102 1003 36 c 128,-1,50
 938 -30 938 -30 835 -30 c 0,36,37
842 358 m 2,51,52
 791 358 791 358 791 223 c 2,53,-1
 791 206 l 2,54,55
 791 87 791 87 846 87 c 0,56,57
 893 87 893 87 893 178 c 1,58,-1
 892 236 l 1,59,-1
 892 249 l 1,60,61
 893 256 893 256 893 266 c 0,62,63
 893 358 893 358 843 358 c 2,64,-1
 842 358 l 2,51,52
EndSplineSet
EndChar

StartChar: ampersand
Encoding: 38 38 9
Width: 907
GlyphClass: 2
Flags: W
LayerCount: 2
Fore
SplineSet
913 21 m 2,0,1
 924 10 924 10 924 -3 c 128,-1,2
 924 -16 924 -16 822 -16 c 2,3,-1
 738 -16 l 2,4,5
 687 -16 687 -16 633 -14 c 1,6,7
 620 -8 620 -8 609 2 c 128,-1,8
 598 12 598 12 586 20 c 1,9,-1
 566 11 l 1,10,11
 478 -27 478 -27 392 -34 c 1,12,-1
 370 -35 l 1,13,-1
 348 -35 l 2,14,15
 198 -35 198 -35 128 12 c 0,16,17
 8 92 8 92 8 188 c 0,18,19
 8 336 8 336 188 402 c 1,20,21
 82 469 82 469 82 574 c 0,22,23
 82 719 82 719 295 759 c 0,24,25
 332 766 332 766 374 766 c 0,26,27
 686 766 686 766 686 582 c 0,28,29
 686 480 686 480 544 382 c 1,30,-1
 620 312 l 1,31,32
 638 339 638 339 639 356 c 0,33,34
 641 400 641 400 673 400 c 2,35,-1
 740 400 l 1,36,-1
 818 399 l 1,37,-1
 841 399 l 1,38,39
 852 400 852 400 863 400 c 1,40,41
 877 398 877 398 880 382 c 1,42,-1
 878 363 l 1,43,-1
 878 362 l 1,44,45
 869 245 869 245 784 156 c 1,46,-1
 842 98 l 1,47,48
 855 83 855 83 869 68.5 c 128,-1,49
 883 54 883 54 891.5 44 c 128,-1,50
 900 34 900 34 904 30 c 2,51,-1
 913 21 l 2,0,1
480 148 m 1,52,53
 465 164 465 164 450 178 c 2,54,-1
 343 278 l 2,55,56
 332 288 332 288 317 288 c 128,-1,57
 302 288 302 288 281 257 c 128,-1,58
 260 226 260 226 260 193 c 128,-1,59
 260 160 260 160 295 138 c 128,-1,60
 330 116 330 116 375.5 116 c 128,-1,61
 421 116 421 116 480 148 c 1,52,53
464 578 m 0,62,63
 464 638 464 638 398 638 c 128,-1,64
 332 638 332 638 319 614 c 128,-1,65
 306 590 306 590 306 575 c 0,66,67
 306 550 306 550 335.5 520.5 c 128,-1,68
 365 491 365 491 388 485 c 1,69,-1
 394 486 l 1,70,-1
 418 505 l 1,71,72
 464 543 464 543 464 578 c 0,62,63
EndSplineSet
EndChar

StartChar: quotesingle
Encoding: 39 39 10
Width: 401
GlyphClass: 2
Flags: W
LayerCount: 2
Fore
SplineSet
108 418 m 1,0,1
 98 425 98 425 89 436 c 1,2,-1
 93 559 l 2,3,4
 94 592 94 592 95.5 637 c 128,-1,5
 97 682 97 682 97 692 c 2,6,-1
 97 705 l 1,7,8
 96 712 96 712 96 731.5 c 128,-1,9
 96 751 96 751 108 754 c 1,10,-1
 141 754 l 2,11,12
 295 754 295 754 300.5 747.5 c 128,-1,13
 306 741 306 741 306 451 c 0,14,15
 306 418 306 418 228 418 c 2,16,-1
 108 418 l 1,0,1
EndSplineSet
EndChar

StartChar: parenleft
Encoding: 40 40 11
Width: 416
GlyphClass: 2
Flags: W
LayerCount: 2
Fore
SplineSet
356 -162 m 1,0,-1
 192 -158 l 1,1,2
 178 -153 178 -153 152 -83 c 1,3,-1
 121 14 l 1,4,5
 66 163 66 163 66 210 c 0,6,7
 64 326 64 326 70 362 c 128,-1,8
 76 398 76 398 83 434 c 128,-1,9
 90 470 90 470 100 507 c 128,-1,10
 110 544 110 544 120 579 c 0,11,12
 168 748 168 748 186 751 c 0,13,14
 192 752 192 752 194.5 752 c 128,-1,15
 197 752 197 752 259.5 753 c 128,-1,16
 322 754 322 754 356.5 754 c 128,-1,17
 391 754 391 754 393.5 751 c 128,-1,18
 396 748 396 748 398 740 c 1,19,-1
 371 638 l 1,20,21
 311 441 311 441 311.5 385.5 c 128,-1,22
 312 330 312 330 312 328 c 0,23,24
 314 156 314 156 374 -38 c 1,25,-1
 402 -138 l 1,26,27
 396 -148 396 -148 393 -150 c 1,28,-1
 385 -162 l 1,29,-1
 356 -162 l 1,0,-1
EndSplineSet
EndChar

StartChar: parenright
Encoding: 41 41 12
Width: 417
GlyphClass: 2
Flags: W
LayerCount: 2
Fore
SplineSet
77 -154 m 2,0,1
 22 -154 22 -154 22 -148.5 c 128,-1,2
 22 -143 22 -143 25 -136 c 128,-1,3
 28 -129 28 -129 35 -106 c 0,4,5
 105 124 105 124 105 268 c 128,-1,6
 105 412 105 412 66 548 c 1,7,-1
 12 742 l 1,8,9
 22 756 22 756 30 762 c 1,10,11
 123 762 123 762 216 762 c 0,12,13
 229 762 229 762 238 746 c 1,14,-1
 277 639 l 1,15,16
 355 436 355 436 355 325 c 128,-1,17
 355 214 355 214 318 95 c 2,18,-1
 279 -27 l 1,19,20
 234 -150 234 -150 222 -152 c 128,-1,21
 210 -154 210 -154 161 -154 c 2,22,-1
 77 -154 l 2,0,1
EndSplineSet
EndChar

StartChar: asterisk
Encoding: 42 42 13
Width: 465
GlyphClass: 2
Flags: W
LayerCount: 2
Fore
SplineSet
293 374 m 1,0,-1
 288 372 l 1,1,2
 284 372 284 372 264 402 c 1,3,-1
 237 447 l 1,4,-1
 226 425 l 1,5,-1
 216 407 l 1,6,7
 198 370 198 370 187.5 370 c 128,-1,8
 177 370 177 370 159 382 c 2,9,-1
 98 420 l 2,10,11
 94 422 94 422 91.5 422.5 c 128,-1,12
 89 423 89 423 89 427.5 c 128,-1,13
 89 432 89 432 104 462 c 1,14,-1
 128 504 l 1,15,-1
 90 503 l 1,16,-1
 73 503 l 1,17,18
 63 504 63 504 55 504 c 1,19,20
 38 518 38 518 38 536 c 2,21,-1
 38 570 l 2,22,23
 38 616 38 616 54 624 c 1,24,25
 98 624 98 624 134 622 c 1,26,-1
 118 648 l 1,27,-1
 118 647 l 1,28,29
 114 654 114 654 110 662 c 2,30,-1
 101 677 l 1,31,32
 92 695 92 695 92 703 c 0,33,34
 92 716 92 716 114 722 c 1,35,-1
 140 739 l 2,36,37
 172 759 172 759 179.5 759 c 128,-1,38
 187 759 187 759 191 753.5 c 128,-1,39
 195 748 195 748 199.5 740.5 c 128,-1,40
 204 733 204 733 210 724 c 128,-1,41
 216 715 216 715 220 706 c 2,42,-1
 236 674 l 1,43,-1
 242 688 l 2,44,45
 246 696 246 696 248 702 c 2,46,-1
 253 713 l 1,47,48
 274 755 274 755 284 760 c 1,49,-1
 314 746 l 1,50,51
 374 720 374 720 374 706.5 c 128,-1,52
 374 693 374 693 361 676 c 1,53,-1
 347 654 l 2,54,55
 339 642 339 642 329 620 c 1,56,-1
 342 622 l 2,57,58
 352 624 352 624 366 624 c 2,59,-1
 394 624 l 1,60,-1
 423 622 l 1,61,62
 428 619 428 619 428 593.5 c 128,-1,63
 428 568 428 568 425 552 c 1,64,-1
 425 526 l 2,65,66
 425 514 425 514 334 514 c 1,67,-1
 351 485 l 2,68,69
 355 479 355 479 357 472 c 1,70,-1
 366 456 l 1,71,72
 380 442 380 442 380 432 c 128,-1,73
 380 422 380 422 379 422 c 1,74,75
 380 424 380 424 378 426 c 1,76,-1
 293 374 l 1,0,-1
EndSplineSet
EndChar

StartChar: plus
Encoding: 43 43 14
Width: 635
GlyphClass: 2
Flags: W
LayerCount: 2
Fore
SplineSet
134 178 m 1,0,-1
 59 179 l 1,1,2
 42 182 42 182 42 207 c 2,3,-1
 42 238 l 1,4,5
 43 244 43 244 43 250 c 2,6,-1
 42 312 l 2,7,8
 42 348 42 348 70 348 c 2,9,10
 70 348 70 348 231 348 c 1,11,-1
 232 420 l 1,12,-1
 232 508 l 2,13,14
 232 538 232 538 273 538 c 128,-1,15
 314 538 314 538 355 538 c 128,-1,16
 396 538 396 538 399 524 c 1,17,-1
 398 344 l 1,18,-1
 574 345 l 1,19,20
 588 343 588 343 588 321 c 2,21,-1
 587 234 l 1,22,-1
 587 217 l 1,23,24
 586 188 586 188 582 188 c 2,25,-1
 395 188 l 1,26,27
 397 146 397 146 397 104 c 2,28,-1
 397 20 l 2,29,30
 397 -2 397 -2 383.5 -4 c 128,-1,31
 370 -6 370 -6 338 -6 c 2,32,-1
 272 -6 l 2,33,34
 238 -6 238 -6 238 4 c 2,35,-1
 238 6 l 1,36,-1
 236 179 l 1,37,-1
 214 178 l 1,38,-1
 172 179 l 1,39,-1
 134 178 l 1,0,-1
EndSplineSet
EndChar

StartChar: comma
Encoding: 44 44 15
Width: 367
GlyphClass: 2
Flags: W
LayerCount: 2
Fore
SplineSet
336 208 m 1,0,-1
 266 -16 l 1,1,2
 233 -111 233 -111 222 -114 c 0,3,4
 192 -120 192 -120 137 -120 c 2,5,-1
 50 -120 l 2,6,7
 17 -120 17 -120 12 -118 c 1,8,-1
 -4 -103 l 1,9,10
 0 -87 0 -87 6 -57 c 2,11,-1
 36 82 l 2,12,13
 66 220 66 220 82 221 c 128,-1,14
 98 222 98 222 113 222 c 2,15,-1
 188 222 l 1,16,-1
 260 223 l 1,17,18
 336 223 336 223 336 208 c 1,0,-1
EndSplineSet
EndChar

StartChar: hyphen
Encoding: 45 45 16
Width: 429
GlyphClass: 2
Flags: W
LayerCount: 2
Fore
SplineSet
390 180 m 2,0,-1
 36 170 l 1,1,-1
 26 180 l 2,2,3
 22 184 22 184 18 190 c 1,4,-1
 19 236 l 2,5,6
 20 260 20 260 20 282 c 1,7,-1
 18 321 l 1,8,9
 18 372 18 372 34 372 c 0,10,11
 163 372 163 372 239 372 c 0,12,13
 314 372 314 372 390 372 c 1,14,15
 404 370 404 370 404 305 c 2,16,-1
 404 198 l 1,17,18
 401 180 401 180 390 180 c 2,0,-1
EndSplineSet
EndChar

StartChar: period
Encoding: 46 46 17
Width: 387
GlyphClass: 2
Flags: W
LayerCount: 2
Fore
SplineSet
56 7 m 1,0,-1
 56 22 l 1,1,2
 56 22 56 22 57 72 c 1,3,-1
 57 98 l 2,4,5
 57 220 57 220 73 220 c 2,6,7
 73 220 73 220 250 220 c 0,8,9
 326 220 326 220 326 206 c 0,10,11
 328 134 328 134 328 59 c 2,12,-1
 328 42 l 1,13,-1
 329 20 l 1,14,15
 329 -9 329 -9 318 -9 c 1,16,-1
 314 -8 l 1,17,18
 266 -10 266 -10 218 -12 c 128,-1,19
 170 -14 170 -14 120 -16 c 1,20,-1
 72 -16 l 1,21,-1
 56 7 l 1,0,-1
EndSplineSet
EndChar

StartChar: slash
Encoding: 47 47 18
Width: 402
GlyphClass: 2
Flags: W
LayerCount: 2
Fore
SplineSet
-7 -36 m 1,0,1
 -21 -8 -21 -8 -21 3.5 c 128,-1,2
 -21 15 -21 15 -17 25 c 2,3,-1
 242 723 l 1,4,-1
 259 766 l 2,5,6
 263 774 263 774 306 774 c 1,7,-1
 373 772 l 1,8,-1
 401 772 l 2,9,10
 420 772 420 772 420 760 c 128,-1,11
 420 748 420 748 416.5 735 c 128,-1,12
 413 722 413 722 408 708 c 128,-1,13
 403 694 403 694 397.5 680.5 c 128,-1,14
 392 667 392 667 388 655 c 2,15,-1
 234 198 l 1,16,-1
 178 45 l 2,17,18
 172 30 172 30 169 16 c 0,19,20
 159 -31 159 -31 96 -34 c 1,21,-1
 76 -34 l 1,22,23
 62 -36 62 -36 49 -36 c 2,24,-1
 -7 -36 l 1,0,1
EndSplineSet
EndChar

StartChar: zero
Encoding: 48 48 19
Width: 731
GlyphClass: 2
Flags: W
LayerCount: 2
Fore
SplineSet
368 775 m 2,0,1
 709 775 709 775 709 360 c 0,2,3
 709 46 709 46 457 -16 c 0,4,5
 408 -28 408 -28 341 -28 c 0,6,7
 205 -28 205 -28 113.5 60 c 128,-1,8
 22 148 22 148 14 315 c 0,9,10
 12 346 12 346 10 368 c 1,11,12
 10 747 10 747 360 775 c 1,13,-1
 368 775 l 2,0,1
438 311 m 1,14,15
 442 353 442 353 442 394 c 2,16,-1
 442 441 l 2,17,18
 442 594 442 594 366 594 c 0,19,20
 278 594 278 594 278 400 c 2,21,-1
 278 348 l 2,22,23
 278 150 278 150 358 150 c 128,-1,24
 438 150 438 150 438 311 c 1,14,15
EndSplineSet
EndChar

StartChar: one
Encoding: 49 49 20
Width: 789
GlyphClass: 2
Flags: W
LayerCount: 2
Fore
SplineSet
115 394 m 1,0,1
 100 394 100 394 98 408 c 1,2,-1
 98 529 l 2,3,4
 98 614 98 614 109 619.5 c 128,-1,5
 120 625 120 625 136 631.5 c 128,-1,6
 152 638 152 638 164 644 c 128,-1,7
 176 650 176 650 212 666 c 0,8,9
 295 704 295 704 324 752 c 1,10,11
 402 750 402 750 448 750 c 2,12,-1
 510 750 l 2,13,14
 526 750 526 750 543 752 c 1,15,16
 554 751 554 751 554 715 c 2,17,-1
 554 424 l 2,18,19
 554 364 554 364 556 303 c 1,20,-1
 560 2 l 1,21,22
 557 -16 557 -16 488 -16 c 1,23,-1
 438 -15 l 1,24,-1
 361 -16 l 2,25,26
 315 -16 315 -16 268 -14 c 1,27,-1
 255 3 l 2,28,29
 250 8 250 8 250 72 c 128,-1,30
 250 136 250 136 252 244 c 2,31,-1
 256 462 l 1,32,33
 187 416 187 416 115 394 c 1,0,1
EndSplineSet
EndChar

StartChar: two
Encoding: 50 50 21
Width: 729
GlyphClass: 2
Flags: W
LayerCount: 2
Fore
SplineSet
30 509 m 1,0,1
 41 631 41 631 81.5 672.5 c 128,-1,2
 122 714 122 714 187 743 c 128,-1,3
 252 772 252 772 330.5 772 c 128,-1,4
 409 772 409 772 450.5 766 c 128,-1,5
 492 760 492 760 529 748 c 0,6,7
 606 723 606 723 653 670.5 c 128,-1,8
 700 618 700 618 700 550 c 0,9,10
 700 378 700 378 510 252 c 0,11,12
 441 206 441 206 437 202 c 1,13,-1
 648 206 l 1,14,15
 707 206 707 206 707 116 c 1,16,-1
 704 21 l 1,17,-1
 704 12 l 2,18,19
 704 -9 704 -9 684 -12 c 1,20,-1
 648 -11 l 1,21,-1
 486 -8 l 1,22,23
 271 -8 271 -8 49 -16 c 1,24,-1
 42 -6 l 1,25,26
 30 2 30 2 30 39 c 1,27,-1
 32 98 l 1,28,-1
 32 188 l 2,29,30
 32 199 32 199 66 222 c 2,31,-1
 263 357 l 1,32,-1
 294 381 l 1,33,34
 402 467 402 467 402 521.5 c 128,-1,35
 402 576 402 576 361 576 c 128,-1,36
 320 576 320 576 312 537 c 128,-1,37
 304 498 304 498 290 494 c 1,38,-1
 102 494 l 2,39,40
 30 494 30 494 30 509 c 1,0,1
EndSplineSet
EndChar

StartChar: three
Encoding: 51 51 22
Width: 727
GlyphClass: 2
Flags: W
LayerCount: 2
Fore
SplineSet
550 394 m 1,0,1
 694 351 694 351 694 220 c 0,2,3
 694 -29 694 -29 346 -29 c 0,4,5
 151 -29 151 -29 64 61 c 1,6,7
 13 105 13 105 8 224 c 0,8,9
 8 240 8 240 24 240 c 2,10,-1
 262 244 l 2,11,12
 278 244 278 244 280 229 c 1,13,-1
 280 228 l 1,14,15
 289 162 289 162 341 162 c 2,16,-1
 342 162 l 2,17,18
 398 162 398 162 398 218 c 0,19,20
 398 292 398 292 295 292 c 2,21,22
 295 292 295 292 273 292 c 0,23,24
 239 292 239 292 239 339 c 2,25,-1
 239 371 l 2,26,27
 239 452 239 452 262 452 c 2,28,29
 262 452 262 452 306 452 c 0,30,31
 390 452 390 452 390 530 c 0,32,33
 390 581 390 581 346.5 581 c 128,-1,34
 303 581 303 581 296 544 c 2,35,-1
 292 524 l 2,36,37
 288 502 288 502 274 496 c 1,38,39
 180 496 180 496 85 500 c 1,40,-1
 59 499 l 1,41,42
 20 499 20 499 20 518 c 1,43,44
 22 539 22 539 24 560 c 0,45,46
 28 606 28 606 64 666 c 128,-1,47
 100 726 100 726 179 749 c 128,-1,48
 258 772 258 772 338 772 c 128,-1,49
 418 772 418 772 451.5 766.5 c 128,-1,50
 485 761 485 761 517 750 c 0,51,52
 586 725 586 725 632 675 c 0,53,54
 705 595 705 595 666 489 c 0,55,56
 646 437 646 437 610 419.5 c 128,-1,57
 574 402 574 402 550 394 c 1,0,1
EndSplineSet
EndChar

StartChar: four
Encoding: 52 52 23
Width: 716
GlyphClass: 2
Flags: W
LayerCount: 2
Fore
SplineSet
627 388 m 1,0,-1
 626 340 l 2,1,2
 626 317 626 317 648 317 c 2,3,-1
 690 318 l 2,4,5
 713 318 713 318 714.5 308 c 128,-1,6
 716 298 716 298 716 292 c 128,-1,7
 716 286 716 286 714 286 c 1,8,-1
 717 168 l 1,9,10
 717 106 717 106 700 106 c 0,11,12
 665 106 665 106 630 106 c 1,13,14
 632 60 632 60 632 24.5 c 128,-1,15
 632 -11 632 -11 612 -14 c 1,16,-1
 460 -14 l 2,17,18
 395 -14 395 -14 353 -17 c 1,19,-1
 344 -6 l 1,20,21
 336 2 336 2 336 64 c 2,22,-1
 336 112 l 2,23,24
 336 122 336 122 321 122 c 0,25,26
 279 122 279 122 238 108 c 1,27,-1
 114 106 l 1,28,-1
 40 106 l 2,29,30
 5 106 5 106 -4 124 c 1,31,-1
 -4 222 l 1,32,-1
 -3 262 l 1,33,-1
 -3 275 l 2,34,35
 -3 288 -3 288 -2 302 c 1,36,37
 24 369 24 369 64 437 c 1,38,-1
 254 738 l 1,39,40
 262 748 262 748 319 748 c 1,41,-1
 443 751 l 2,42,43
 483 752 483 752 523 752 c 2,44,-1
 614 752 l 1,45,46
 621 751 621 751 630 746 c 1,47,-1
 630 716 l 1,48,-1
 626 439 l 1,49,-1
 626 416 l 2,50,51
 626 404 626 404 627 392 c 1,52,-1
 627 388 l 1,0,-1
371 346 m 2,53,-1
 372 372 l 1,54,-1
 372 427 l 2,55,56
 372 568 372 568 360 568 c 128,-1,57
 348 568 348 568 342 562 c 1,58,-1
 203 314 l 1,59,-1
 209 301 l 1,60,61
 211 294 211 294 215 288 c 1,62,-1
 224 288 l 1,63,-1
 357 291 l 1,64,65
 373 298 373 298 372 317 c 128,-1,66
 371 336 371 336 371 346 c 2,53,-1
EndSplineSet
EndChar

StartChar: five
Encoding: 53 53 24
Width: 734
GlyphClass: 2
Flags: W
LayerCount: 2
Fore
SplineSet
111 759 m 2,0,-1
 148 760 l 2,1,2
 167 760 167 760 186 759 c 2,3,-1
 602 754 l 1,4,-1
 623 755 l 1,5,6
 651 755 651 755 654 742 c 1,7,-1
 654 598 l 2,8,9
 654 565 654 565 647.5 562 c 128,-1,10
 641 559 641 559 633 559 c 2,11,-1
 624 559 l 2,12,13
 473 559 473 559 317 557 c 1,14,15
 315 534 315 534 313.5 511 c 128,-1,16
 312 488 312 488 310 466 c 1,17,18
 363 504 363 504 435 504 c 0,19,20
 562 504 562 504 629 436.5 c 128,-1,21
 696 369 696 369 696 288.5 c 128,-1,22
 696 208 696 208 682 165 c 128,-1,23
 668 122 668 122 644 90 c 0,24,25
 552 -32 552 -32 354 -32 c 0,26,27
 60 -32 60 -32 34 200 c 1,28,29
 34 218 34 218 77 218 c 2,30,-1
 176 218 l 1,31,-1
 308 215 l 2,32,33
 320 214 320 214 326.5 188 c 128,-1,34
 333 162 333 162 354 162 c 0,35,36
 404 162 404 162 404 248.5 c 128,-1,37
 404 335 404 335 356 335 c 0,38,39
 328 335 328 335 320 308 c 0,40,41
 318 304 318 304 319 298 c 0,42,43
 323 276 323 276 288 277 c 1,44,45
 194 277 194 277 141 277 c 128,-1,46
 88 277 88 277 76 276 c 1,47,48
 60 298 60 298 60 322 c 2,49,-1
 61 360 l 1,50,-1
 60 466 l 1,51,52
 58 506 58 506 58 546 c 2,53,-1
 58 660 l 2,54,55
 58 676 58 676 60 694 c 1,56,-1
 60 711 l 2,57,58
 60 746 60 746 73 760 c 1,59,60
 92 759 92 759 111 759 c 2,0,-1
EndSplineSet
EndChar

StartChar: six
Encoding: 54 54 25
Width: 728
GlyphClass: 2
Flags: W
LayerCount: 2
Fore
SplineSet
306 442 m 1,0,1
 352 495 352 495 428 495 c 0,2,3
 563 495 563 495 634.5 428.5 c 128,-1,4
 706 362 706 362 706 256 c 0,5,6
 706 34 706 34 466 -18 c 1,7,8
 413 -28 413 -28 345.5 -28 c 128,-1,9
 278 -28 278 -28 203 3 c 0,10,11
 22 79 22 79 22 376 c 0,12,13
 22 554 22 554 119.5 665 c 128,-1,14
 217 776 217 776 386 778 c 1,15,16
 629 778 629 778 666 613 c 0,17,18
 674 579 674 579 674 565 c 128,-1,19
 674 551 674 551 666.5 548.5 c 128,-1,20
 659 546 659 546 639.5 544 c 128,-1,21
 620 542 620 542 594 541 c 128,-1,22
 568 540 568 540 539.5 539.5 c 128,-1,23
 511 539 511 539 487.5 538.5 c 128,-1,24
 464 538 464 538 448 538 c 2,25,-1
 431 538 l 2,26,27
 411 538 411 538 411 546 c 2,28,-1
 411 564 l 1,29,30
 409 581 409 581 384 581 c 2,31,-1
 381 581 l 2,32,33
 306 581 306 581 306 450 c 0,34,35
 306 446 306 446 306 442 c 1,0,1
462 243 m 1,36,37
 460 346 460 346 379 346 c 128,-1,38
 298 346 298 346 298 233 c 0,39,40
 298 168 298 168 334 146 c 1,41,-1
 352 140 l 2,42,43
 360 138 360 138 367 135 c 128,-1,44
 374 132 374 132 377 132 c 128,-1,45
 380 132 380 132 380 134 c 1,46,47
 462 140 462 140 462 238 c 2,48,-1
 462 243 l 1,36,37
EndSplineSet
EndChar

StartChar: seven
Encoding: 55 55 26
Width: 731
GlyphClass: 2
Flags: W
LayerCount: 2
Fore
SplineSet
34 690 m 1,0,-1
 32 724 l 1,1,2
 32 764 32 764 54 764 c 0,3,4
 208 764 208 764 361 760 c 2,5,-1
 666 754 l 2,6,7
 687 754 687 754 687 676 c 1,8,-1
 686 632 l 1,9,-1
 686 605 l 2,10,11
 686 530 686 530 654 472 c 2,12,-1
 483 161 l 1,13,-1
 402 -2 l 1,14,15
 398 -15 398 -15 386 -15 c 2,16,-1
 290 -14 l 1,17,18
 290 -14 290 -14 172 -14 c 0,19,20
 90 -14 90 -14 90 -1 c 128,-1,21
 90 12 90 12 94 22 c 2,22,-1
 352 535 l 1,23,24
 266 535 266 535 182 533 c 1,25,-1
 67 533 l 2,26,27
 48 533 48 533 34 556 c 1,28,-1
 34 690 l 1,0,-1
EndSplineSet
EndChar

StartChar: eight
Encoding: 56 56 27
Width: 725
GlyphClass: 2
Flags: W
LayerCount: 2
Fore
SplineSet
651 657 m 128,-1,1
 683 608 683 608 683 513.5 c 128,-1,2
 683 419 683 419 580 382 c 1,3,4
 704 320 704 320 704 193 c 128,-1,5
 704 66 704 66 570 4 c 1,6,7
 506 -28 506 -28 386 -28 c 2,8,-1
 344 -28 l 2,9,10
 66 -28 66 -28 25 138 c 0,11,12
 18 166 18 166 14 198 c 1,13,14
 23 326 23 326 132 377 c 1,15,16
 37 421 37 421 37 534 c 0,17,18
 36 732 36 732 282 768 c 0,19,20
 320 774 320 774 393 774 c 128,-1,21
 466 774 466 774 542.5 740 c 128,-1,0
 619 706 619 706 651 657 c 128,-1,1
279 220 m 1,22,23
 288 136 288 136 363 136 c 128,-1,24
 438 136 438 136 438 223 c 128,-1,25
 438 310 438 310 358.5 310 c 128,-1,26
 279 310 279 310 279 220 c 1,22,23
359.5 444 m 128,-1,28
 427 444 427 444 427 525 c 128,-1,29
 427 606 427 606 359.5 606 c 128,-1,30
 292 606 292 606 292 525 c 128,-1,27
 292 444 292 444 359.5 444 c 128,-1,28
EndSplineSet
EndChar

StartChar: nine
Encoding: 57 57 28
Width: 728
GlyphClass: 2
Flags: W
LayerCount: 2
Fore
SplineSet
421 294 m 1,0,1
 369 262 369 262 308 262 c 0,2,3
 184 262 184 262 102.5 320 c 128,-1,4
 21 378 21 378 21 492 c 0,5,6
 21 675 21 675 199 742 c 0,7,8
 273 770 273 770 332 770 c 0,9,10
 535 770 535 770 607 681 c 0,11,12
 704 562 704 562 704 391 c 0,13,14
 704 311 704 311 686 234 c 0,15,16
 644 44 644 44 475 -10 c 1,17,18
 248 -78 248 -78 124 26 c 1,19,20
 52 80 52 80 52 195 c 1,21,-1
 60 206 l 2,22,23
 64 211 64 211 70 217 c 1,24,-1
 296 214 l 2,25,26
 314 214 314 214 314 194 c 1,27,28
 320 163 320 163 347 163 c 0,29,30
 394 163 394 163 406 201.5 c 128,-1,31
 418 240 418 240 421 294 c 1,0,1
260 494 m 1,32,33
 288 420 288 420 347 398 c 1,34,35
 426 398 426 398 426 502 c 128,-1,36
 426 606 426 606 343 606 c 128,-1,37
 260 606 260 606 260 494 c 1,32,33
EndSplineSet
EndChar

StartChar: colon
Encoding: 58 58 29
Width: 385
GlyphClass: 2
Flags: W
LayerCount: 2
Fore
SplineSet
164 222 m 1,0,-1
 224 221 l 1,1,-1
 264 221 l 2,2,3
 318 221 318 221 324 207 c 1,4,-1
 324 35 l 2,5,6
 324 18 324 18 325 2 c 1,7,8
 318 -16 318 -16 233 -16 c 2,9,-1
 69 -16 l 1,10,-1
 54 5 l 1,11,-1
 53 26 l 1,12,13
 53 94 53 94 58 207 c 0,14,15
 58 222 58 222 164 222 c 1,0,-1
328 334 m 0,16,17
 328 308 328 308 312 308 c 0,18,19
 252 306 252 306 192 304 c 2,20,-1
 72 301 l 1,21,-1
 56 324 l 1,22,23
 56 332 56 332 55 340 c 1,24,-1
 55 354 l 1,25,-1
 56 398 l 1,26,-1
 56 426 l 2,27,28
 56 538 56 538 71 538 c 2,29,-1
 251 538 l 2,30,31
 324 538 324 538 324 523 c 2,32,-1
 327 392 l 1,33,-1
 324 370 l 1,34,35
 328 350 328 350 328 334 c 0,16,17
EndSplineSet
EndChar

StartChar: semicolon
Encoding: 59 59 30
Width: 366
GlyphClass: 2
Flags: W
LayerCount: 2
Fore
SplineSet
117 -106 m 1,0,-1
 24 -104 l 1,1,-1
 13 -104 l 1,2,3
 4 -98 4 -98 -4 -90 c 1,4,-1
 4 -48 l 2,5,6
 8 -28 8 -28 14 -8 c 1,7,-1
 16 3 l 2,8,9
 18 14 18 14 21 31 c 128,-1,10
 24 48 24 48 30 69 c 1,11,-1
 40 112 l 2,12,13
 67 230 67 230 81 230 c 2,14,15
 81 230 81 230 196 230 c 1,16,-1
 262 231 l 1,17,18
 335 231 335 231 335 216 c 2,19,-1
 335 210 l 1,20,-1
 266 0 l 1,21,-1
 259 -24 l 1,22,-1
 231 -92 l 1,23,24
 224 -106 224 -106 117 -106 c 1,0,-1
63 326 m 2,25,-1
 64 342 l 1,26,-1
 66 432 l 1,27,28
 66 528 66 528 80 528 c 2,29,-1
 101 528 l 1,30,-1
 246 530 l 1,31,32
 333 530 333 530 333 518 c 0,33,34
 336 442 336 442 336 370.5 c 128,-1,35
 336 299 336 299 329 296 c 1,36,-1
 328 296 l 1,37,38
 319 294 319 294 82 286 c 1,39,-1
 65 307 l 1,40,41
 63 319 63 319 63 326 c 2,25,-1
EndSplineSet
EndChar

StartChar: less
Encoding: 60 60 31
Width: 635
GlyphClass: 2
Flags: W
LayerCount: 2
Fore
SplineSet
590.5 115 m 128,-1,1
 592 96 592 96 592 39 c 128,-1,2
 592 -18 592 -18 581 -18 c 128,-1,3
 570 -18 570 -18 566 -17 c 2,4,-1
 110 162 l 2,5,6
 98 166 98 166 86 170 c 0,7,8
 39 186 39 186 39 227 c 1,9,-1
 40 266 l 1,10,-1
 39 295 l 1,11,12
 39 331 39 331 58 350 c 1,13,-1
 503 520 l 1,14,-1
 571 544 l 1,15,-1
 573 544 l 2,16,17
 591 544 591 544 591 515 c 2,18,-1
 590 464 l 1,19,-1
 590 438 l 2,20,21
 590 398 590 398 580 390 c 1,22,-1
 256 262 l 1,23,-1
 562 146 l 1,24,0
 589 134 589 134 590.5 115 c 128,-1,1
EndSplineSet
EndChar

StartChar: equal
Encoding: 61 61 32
Width: 636
GlyphClass: 2
Flags: W
LayerCount: 2
Fore
SplineSet
587 87 m 1,0,1
 587 60 587 60 571 60 c 2,2,-1
 434 58 l 2,3,4
 339 56 339 56 246.5 54 c 128,-1,5
 154 52 154 52 59 50 c 1,6,-1
 42 68 l 1,7,8
 41 84 41 84 41 97 c 2,9,10
 41 97 41 97 41 119 c 2,11,-1
 42 154 l 1,12,-1
 42 180 l 2,13,14
 42 212 42 212 53 228 c 1,15,-1
 62 228 l 1,16,-1
 434 214 l 1,17,-1
 452 214 l 1,18,19
 574 218 574 218 580 218 c 128,-1,20
 586 218 586 218 586 187 c 2,21,-1
 586 110 l 1,22,-1
 587 87 l 1,0,1
586 334 m 2,23,24
 586 312 586 312 581 312 c 128,-1,25
 576 312 576 312 571 318 c 1,26,-1
 438 314 l 1,27,28
 342 310 342 310 248 307 c 128,-1,29
 154 304 154 304 58 300 c 1,30,-1
 42 318 l 1,31,-1
 42 430 l 2,32,33
 42 468 42 468 58 468 c 2,34,-1
 106 468 l 1,35,-1
 574 466 l 2,36,37
 586 466 586 466 586 388 c 2,38,-1
 586 334 l 2,23,24
EndSplineSet
EndChar

StartChar: greater
Encoding: 62 62 33
Width: 634
GlyphClass: 2
Flags: W
LayerCount: 2
Fore
SplineSet
61 -21 m 1,0,-1
 39 2 l 1,1,2
 39 46 39 46 44 126 c 1,3,4
 44 144 44 144 181 196 c 2,5,-1
 319 248 l 2,6,7
 350 259 350 259 366 266 c 1,8,-1
 132 362 l 2,9,10
 92 378 92 378 69 386.5 c 128,-1,11
 46 395 46 395 46 416 c 0,12,13
 46 423 46 423 46 430 c 2,14,-1
 45 478 l 2,15,16
 44 541 44 541 50 541 c 128,-1,17
 56 541 56 541 61 539 c 2,18,-1
 522 362 l 1,19,-1
 581 337 l 1,20,21
 592 331 592 331 592 287 c 2,22,-1
 592 228 l 2,23,24
 592 188 592 188 577 188 c 1,25,-1
 122 1 l 2,26,27
 92 -11 92 -11 61 -21 c 1,0,-1
EndSplineSet
EndChar

StartChar: question
Encoding: 63 63 34
Width: 560
GlyphClass: 2
Flags: W
LayerCount: 2
Fore
SplineSet
360 246 m 1,0,1
 360 234 360 234 336 234 c 2,2,-1
 279 232 l 1,3,4
 190 232 190 232 102 228 c 0,5,6
 88 228 88 228 88 245 c 2,7,-1
 88 268 l 2,8,9
 88 337 88 337 119 370 c 128,-1,10
 150 403 150 403 166 418 c 0,11,12
 228 474 228 474 235 515 c 1,13,14
 229 548 229 548 181 548 c 2,15,-1
 177 548 l 1,16,17
 113 546 113 546 44 518 c 1,18,-1
 21 537 l 1,19,-1
 22 721 l 2,20,21
 22 774 22 774 188.5 774 c 128,-1,22
 355 774 355 774 429 738 c 1,23,-1
 450 727 l 1,24,25
 492 700 492 700 515 666 c 1,26,-1
 522 652 l 1,27,28
 538 623 538 623 540 596.5 c 128,-1,29
 542 570 542 570 544 556 c 0,30,31
 555 457 555 457 410 364 c 0,32,33
 358 330 358 330 355 294 c 1,34,-1
 360 246 l 1,0,1
85 30 m 1,35,-1
 86 66 l 1,36,-1
 86 98 l 1,37,38
 85 106 85 106 85 139.5 c 128,-1,39
 85 173 85 173 100 184 c 1,40,-1
 259 180 l 2,41,42
 346 177 346 177 351 166 c 128,-1,43
 356 155 356 155 356 143 c 2,44,-1
 356 93 l 1,45,-1
 357 32 l 1,46,-1
 357 2 l 1,47,48
 356 -8 356 -8 350 -8 c 2,49,-1
 323 -8 l 2,50,51
 319 -8 319 -8 307 -8 c 128,-1,52
 295 -8 295 -8 256.5 -10 c 128,-1,53
 218 -12 218 -12 176 -14 c 2,54,-1
 101 -16 l 1,55,-1
 86 4 l 1,56,57
 86 12 86 12 85 17 c 1,58,-1
 85 30 l 1,35,-1
EndSplineSet
EndChar

StartChar: at
Encoding: 64 64 35
Width: 835
GlyphClass: 2
Flags: W
LayerCount: 2
Fore
SplineSet
578 20 m 1,0,1
 511 -6 511 -6 434 -6 c 128,-1,2
 357 -6 357 -6 310.5 6.5 c 128,-1,3
 264 19 264 19 223 42 c 0,4,5
 139 90 139 90 87.5 175 c 128,-1,6
 36 260 36 260 36 341.5 c 128,-1,7
 36 423 36 423 51.5 475.5 c 128,-1,8
 67 528 67 528 94 571 c 0,9,10
 148 657 148 657 238 704 c 128,-1,11
 328 751 328 751 414 751 c 0,12,13
 574 751 574 751 685 669.5 c 128,-1,14
 796 588 796 588 796 439 c 128,-1,15
 796 290 796 290 699 200 c 0,16,17
 654 159 654 159 628 159 c 2,18,-1
 599 159 l 1,19,20
 545 160 545 160 514 240 c 1,21,-1
 510 240 l 1,22,23
 452 168 452 168 360.5 168 c 128,-1,24
 269 168 269 168 225 260 c 0,25,26
 212 288 212 288 212 320 c 2,27,-1
 212 338 l 2,28,29
 212 470 212 470 330 529 c 0,30,31
 368 548 368 548 416 548 c 2,32,-1
 417 548 l 2,33,34
 482 548 482 548 522 508 c 1,35,-1
 546 472 l 1,36,37
 556 507 556 507 565 543 c 1,38,-1
 626 542 l 1,39,-1
 590 348 l 1,40,-1
 586 322 l 2,41,42
 583 306 583 306 583 292 c 0,43,44
 583 234 583 234 624 234 c 1,45,46
 712 271 712 271 712 408 c 0,47,48
 712 670 712 670 437 670 c 0,49,50
 234 670 234 670 156 491 c 0,51,52
 98 358 98 358 156 240 c 0,53,54
 182 188 182 188 224 152 c 1,55,56
 342 83 342 83 405 76 c 1,57,58
 498 76 498 76 554 93 c 1,59,-1
 578 20 l 1,0,1
429 456 m 0,60,61
 331 456 331 456 316 346 c 1,62,63
 316 254 316 254 382 254 c 0,64,65
 468 254 468 254 498 330 c 1,66,67
 519 387 519 387 493 421.5 c 128,-1,68
 467 456 467 456 429 456 c 0,60,61
EndSplineSet
EndChar

StartChar: A
Encoding: 65 65 36
Width: 819
GlyphClass: 2
Flags: W
LayerCount: 2
Fore
SplineSet
-10 -18 m 1,0,-1
 -24 0 l 1,1,2
 2 94 2 94 32 187 c 2,3,-1
 214 742 l 1,4,5
 218 750 218 750 222 754 c 1,6,-1
 306 754 l 1,7,-1
 480 756 l 1,8,-1
 526 754 l 1,9,-1
 564 756 l 1,10,11
 603 756 603 756 603 734 c 1,12,13
 665 563 665 563 718 394 c 2,14,-1
 824 60 l 1,15,-1
 832 33 l 2,16,17
 836 18 836 18 842 6 c 1,18,19
 842 -12 842 -12 806 -12 c 2,20,-1
 760 -12 l 1,21,-1
 641 -13 l 1,22,23
 526 -11 526 -11 523.5 -1.5 c 128,-1,24
 521 8 521 8 519 17 c 2,25,-1
 515 37 l 1,26,27
 503 104 503 104 478 104 c 2,28,-1
 306 102 l 1,29,-1
 280 -2 l 1,30,31
 274 -14 274 -14 244 -14 c 128,-1,32
 214 -14 214 -14 184 -14 c 2,33,-1
 56 -17 l 1,34,-1
 42 -17 l 1,35,-1
 -10 -18 l 1,0,-1
337 280 m 1,36,-1
 426 280 l 2,37,38
 476 280 476 280 476 299 c 128,-1,39
 476 318 476 318 470 337 c 128,-1,40
 464 356 464 356 460 374 c 2,41,-1
 417 566 l 1,42,-1
 413 577 l 2,43,44
 411 582 411 582 399.5 584 c 128,-1,45
 388 586 388 586 363 477 c 1,46,-1
 348 415 l 1,47,-1
 335 355 l 2,48,49
 328 326 328 326 322 304 c 1,50,-1
 337 280 l 1,36,-1
EndSplineSet
EndChar

StartChar: B
Encoding: 66 66 37
Width: 785
GlyphClass: 2
Flags: W
LayerCount: 2
Fore
SplineSet
46 396 m 1,0,-1
 48 573 l 2,1,2
 48 583 48 583 48 593 c 2,3,-1
 50 734 l 1,4,-1
 50 736 l 2,5,6
 50 748 50 748 59 748 c 2,7,-1
 64 748 l 1,8,-1
 157 754 l 2,9,10
 190 757 190 757 203.5 756.5 c 128,-1,11
 217 756 217 756 230 756 c 2,12,-1
 478 756 l 2,13,14
 742 756 742 756 742 556 c 0,15,16
 742 445 742 445 632 386 c 1,17,18
 764 349 764 349 764 221.5 c 128,-1,19
 764 94 764 94 671 40 c 128,-1,20
 578 -14 578 -14 464 -14 c 1,21,-1
 319 -12 l 1,22,23
 194 -12 194 -12 64 -16 c 1,24,25
 51 4 51 4 49 68 c 2,26,-1
 47 153 l 2,27,28
 46 196 46 196 46 257 c 2,29,-1
 46 396 l 1,0,-1
446.5 568 m 128,-1,31
 427 593 427 593 380 593 c 128,-1,32
 333 593 333 593 333 574 c 2,33,-1
 336 440 l 2,34,35
 336 410 336 410 424 444 c 1,36,37
 466 459 466 459 466 501 c 128,-1,30
 466 543 466 543 446.5 568 c 128,-1,31
362 156 m 2,38,39
 477 156 477 156 477 240 c 0,40,41
 477 311 477 311 392 315 c 0,42,43
 370 316 370 316 352 317 c 1,44,-1
 346 298 l 1,45,46
 342 254 342 254 342 211 c 2,47,-1
 342 193 l 1,48,-1
 344 162 l 2,49,50
 344 156 344 156 346 156 c 2,51,-1
 362 156 l 2,38,39
EndSplineSet
EndChar

StartChar: C
Encoding: 67 67 38
Width: 778
GlyphClass: 2
Flags: W
LayerCount: 2
Fore
SplineSet
611 289 m 1,0,-1
 698 288 l 1,1,-1
 746 288 l 1,2,3
 762 286 762 286 762 269 c 0,4,5
 762 238 762 238 758.5 213.5 c 128,-1,6
 755 189 755 189 738 150 c 0,7,8
 702 62 702 62 608 15 c 128,-1,9
 514 -32 514 -32 416 -32 c 128,-1,10
 318 -32 318 -32 258 -12 c 0,11,12
 20 68 20 68 20 398 c 1,13,-1
 24 442 l 2,14,15
 26 464 26 464 30 485 c 0,16,17
 91 769 91 769 409.5 769 c 128,-1,18
 728 769 728 769 756 514 c 1,19,-1
 760 466 l 1,20,21
 760 450 760 450 646 450 c 1,22,-1
 513 452 l 1,23,-1
 498 451 l 1,24,25
 477 451 477 451 473 470.5 c 128,-1,26
 469 490 469 490 467 504 c 0,27,28
 464 518 464 518 457 537 c 128,-1,29
 450 556 450 556 422 556 c 0,30,31
 344 556 344 556 344 406 c 0,32,33
 344 384 344 384 343 364 c 2,34,-1
 341 316 l 1,35,36
 341 191 341 191 407 188 c 1,37,38
 443 188 443 188 462 264 c 0,39,40
 466 280 466 280 474 289 c 1,41,-1
 566 288 l 1,42,-1
 611 289 l 1,0,-1
EndSplineSet
EndChar

StartChar: D
Encoding: 68 68 39
Width: 824
GlyphClass: 2
Flags: W
LayerCount: 2
Fore
SplineSet
292 -12 m 1,0,1
 179 -12 179 -12 65 -16 c 1,2,-1
 58 -3 l 2,3,4
 52 10 52 10 52 32 c 2,5,-1
 52 129 l 1,6,-1
 53 272 l 1,7,-1
 53 415 l 1,8,-1
 52 506 l 1,9,-1
 52 736 l 2,10,11
 52 756 52 756 200 756 c 2,12,-1
 256 756 l 1,13,-1
 346 758 l 1,14,15
 587 758 587 758 687 676 c 1,16,-1
 705 660 l 1,17,18
 770 608 770 608 798 468 c 0,19,20
 806 428 806 428 806 373 c 128,-1,21
 806 318 806 318 792.5 264 c 128,-1,22
 779 210 779 210 754 167 c 0,23,24
 706 84 706 84 621.5 36 c 128,-1,25
 537 -12 537 -12 439 -12 c 1,26,27
 438 -14 438 -14 436 -14 c 2,28,-1
 420 -14 l 1,29,-1
 292 -12 l 1,0,1
509 410 m 1,30,31
 510 592 510 592 378 592 c 2,32,-1
 345 592 l 1,33,-1
 329 562 l 1,34,-1
 329 538 l 2,35,36
 329 445 329 445 331.5 353.5 c 128,-1,37
 334 262 334 262 336 170 c 1,38,39
 338 160 338 160 347 160 c 2,40,41
 347 160 347 160 361 160 c 0,42,43
 430 160 430 160 451 181 c 128,-1,44
 472 202 472 202 481 221 c 0,45,46
 509 280 509 280 509 379 c 2,47,-1
 509 410 l 1,30,31
EndSplineSet
EndChar

StartChar: E
Encoding: 69 69 40
Width: 653
GlyphClass: 2
Flags: W
LayerCount: 2
Fore
SplineSet
602 280 m 2,0,-1
 362 274 l 1,1,-1
 349 274 l 1,2,-1
 349 202 l 1,3,-1
 604 210 l 1,4,5
 637 210 637 210 642 196 c 1,6,-1
 642 158 l 1,7,-1
 644 16 l 2,8,9
 644 -7 644 -7 624 -9 c 1,10,-1
 462 -8 l 1,11,-1
 62 -16 l 1,12,-1
 48 0 l 1,13,14
 46 10 46 10 46 18 c 2,15,-1
 46 37 l 1,16,-1
 50 542 l 1,17,-1
 50 684 l 2,18,19
 50 750 50 750 58 750 c 0,20,21
 60 750 60 750 63 749 c 1,22,-1
 340 754 l 2,23,24
 478 756 478 756 619 756 c 1,25,26
 632 754 632 754 632 744 c 2,27,-1
 632 585 l 2,28,29
 632 550 632 550 624 545 c 128,-1,30
 616 540 616 540 602 540 c 2,31,-1
 588 540 l 2,32,33
 472 540 472 540 352 544 c 1,34,35
 350 524 350 524 347 504.5 c 128,-1,36
 344 485 344 485 344 465 c 1,37,-1
 482 468 l 2,38,39
 508 469 508 469 532 470 c 1,40,-1
 582 470 l 2,41,42
 607 470 607 470 607 448 c 1,43,-1
 606 432 l 1,44,-1
 609 290 l 1,45,46
 607 280 607 280 602 280 c 2,0,-1
EndSplineSet
EndChar

StartChar: F
Encoding: 70 70 41
Width: 632
GlyphClass: 2
Flags: W
LayerCount: 2
Fore
SplineSet
632 614 m 2,0,1
 632 525 632 525 623 525 c 0,2,3
 622 525 622 525 622 548 c 1,4,5
 574 544 574 544 526.5 544 c 128,-1,6
 479 544 479 544 431 543 c 2,7,-1
 362 542 l 1,8,-1
 361 488 l 1,9,-1
 361 481 l 1,10,11
 362 478 362 478 362 474 c 1,12,13
 389 476 389 476 411.5 477.5 c 128,-1,14
 434 479 434 479 456 480.5 c 128,-1,15
 478 482 478 482 502 482 c 2,16,-1
 554 482 l 2,17,18
 614 482 614 482 614 468 c 2,19,-1
 614 301 l 2,20,21
 614 264 614 264 579 264 c 1,22,-1
 548 266 l 1,23,24
 456 260 456 260 363 258 c 1,25,-1
 366 74 l 1,26,-1
 366 12 l 2,27,28
 366 -11 366 -11 348 -14 c 1,29,-1
 64 -16 l 1,30,31
 50 2 50 2 50 70 c 2,32,-1
 52 738 l 2,33,34
 52 755 52 755 128 755 c 1,35,-1
 174 754 l 1,36,-1
 410 757 l 1,37,-1
 576 755 l 1,38,-1
 600 756 l 1,39,40
 632 756 632 756 632 738 c 2,41,-1
 632 614 l 2,0,1
EndSplineSet
EndChar

StartChar: G
Encoding: 71 71 42
Width: 840
GlyphClass: 2
Flags: W
LayerCount: 2
Fore
SplineSet
449 252 m 1,0,1
 431 274 431 274 431 296 c 2,2,-1
 431 410 l 2,3,4
 431 424 431 424 449 438 c 1,5,-1
 485 438 l 1,6,-1
 616 436 l 1,7,-1
 734 436 l 2,8,9
 794 436 794 436 806 418 c 1,10,-1
 800 45 l 1,11,-1
 801 35 l 1,12,13
 800 32 800 32 799.5 29 c 128,-1,14
 799 26 799 26 795.5 21.5 c 128,-1,15
 792 17 792 17 774.5 10.5 c 128,-1,16
 757 4 757 4 734 -2 c 0,17,18
 702 -9 702 -9 639.5 -17.5 c 128,-1,19
 577 -26 577 -26 551 -26 c 2,20,-1
 519 -26 l 1,21,-1
 436 -30 l 1,22,23
 132 -30 132 -30 48 207 c 1,24,25
 -8 369 -8 369 42 518 c 1,26,27
 81 638 81 638 170 693 c 128,-1,28
 259 748 259 748 337.5 759 c 128,-1,29
 416 770 416 770 445 770 c 0,30,31
 736 770 736 770 778 592 c 1,32,33
 782 570 782 570 784 550 c 128,-1,34
 786 530 786 530 788 510 c 1,35,36
 785 495 785 495 756 495 c 2,37,-1
 508 499 l 1,38,39
 499 502 499 502 495 515 c 2,40,-1
 490 536 l 1,41,42
 482 564 482 564 441 564 c 0,43,44
 342 564 342 564 342 414 c 1,45,46
 340 396 340 396 340 382 c 2,47,-1
 340 326 l 2,48,49
 340 182 340 182 447 182 c 0,50,51
 503 182 503 182 538 193 c 1,52,-1
 540 254 l 1,53,-1
 516 256 l 1,54,-1
 510 253 l 1,55,-1
 480 253 l 1,56,-1
 449 252 l 1,0,1
EndSplineSet
EndChar

StartChar: H
Encoding: 72 72 43
Width: 827
GlyphClass: 2
Flags: W
LayerCount: 2
Fore
SplineSet
53 638 m 1,0,-1
 54 704 l 2,1,2
 55 748 55 748 64 752 c 1,3,-1
 222 752 l 2,4,5
 320 752 320 752 342 740.5 c 128,-1,6
 364 729 364 729 364 694 c 1,7,-1
 362 633 l 1,8,-1
 362 610 l 1,9,-1
 359 514 l 1,10,-1
 359 504 l 1,11,12
 360 500 360 500 360 496 c 1,13,-1
 380 496 l 1,14,-1
 432 495 l 2,15,16
 454 495 454 495 466 498 c 1,17,-1
 466 706 l 2,18,19
 466 754 466 754 475 756 c 128,-1,20
 484 758 484 758 492 758 c 2,21,-1
 534 757 l 1,22,-1
 638 760 l 1,23,24
 774 760 774 760 774 730 c 2,25,-1
 775 684 l 1,26,-1
 774 582 l 1,27,-1
 777 272 l 1,28,-1
 776 252 l 1,29,-1
 776 204 l 2,30,31
 776 192 776 192 777 180 c 1,32,-1
 777 169 l 1,33,34
 776 166 776 166 776 163 c 2,35,-1
 778 2 l 1,36,37
 775 -16 775 -16 700 -16 c 2,38,-1
 567 -16 l 1,39,-1
 522 -15 l 1,40,-1
 507 -15 l 2,41,42
 491 -15 491 -15 474 -14 c 1,43,-1
 459 5 l 1,44,-1
 459 38 l 1,45,-1
 460 236 l 2,46,47
 460 256 460 256 446 256 c 2,48,-1
 428 256 l 2,49,50
 398 256 398 256 366 252 c 1,51,-1
 364 2 l 1,52,53
 359 -13 359 -13 239 -13 c 2,54,-1
 180 -13 l 2,55,56
 58 -13 58 -13 54 -4 c 0,57,58
 45 18 45 18 45 69 c 1,59,-1
 48 176 l 1,60,-1
 53 638 l 1,0,-1
EndSplineSet
EndChar

StartChar: I
Encoding: 73 73 44
Width: 421
GlyphClass: 2
Flags: W
LayerCount: 2
Fore
SplineSet
41 -4 m 1,0,1
 52 550 52 550 52 688 c 2,2,-1
 52 703 l 1,3,4
 50 719 50 719 50 734 c 128,-1,5
 50 749 50 749 59 756 c 1,6,7
 140 750 140 750 218 750 c 2,8,-1
 316 750 l 2,9,10
 336 750 336 750 355 752 c 1,11,12
 364 750 364 750 364 728 c 2,13,-1
 364 726 l 1,14,-1
 361 586 l 1,15,-1
 361 558 l 1,16,-1
 364 206 l 2,17,18
 364 184 364 184 364 162 c 1,19,-1
 368 147 l 1,20,-1
 372 3 l 1,21,22
 369 -11 369 -11 354 -13 c 1,23,-1
 336 -13 l 1,24,-1
 62 -18 l 1,25,26
 52 -14 52 -14 41 -4 c 1,0,1
EndSplineSet
EndChar

StartChar: J
Encoding: 74 74 45
Width: 691
GlyphClass: 2
Flags: W
LayerCount: 2
Fore
SplineSet
631 755 m 2,0,1
 646 755 646 755 646 716 c 2,2,-1
 646 692 l 1,3,-1
 644 667 l 1,4,5
 641 563 641 563 641 393 c 2,6,-1
 641 287 l 1,7,8
 640 262 640 262 640 222.5 c 128,-1,9
 640 183 640 183 624 144 c 0,10,11
 592 64 592 64 509.5 18 c 128,-1,12
 427 -28 427 -28 308 -28 c 0,13,14
 134 -28 134 -28 61.5 47 c 128,-1,15
 -11 122 -11 122 -11 216 c 1,16,-1
 -12 235 l 1,17,18
 -12 264 -12 264 4 264 c 2,19,-1
 68 262 l 2,20,21
 88 262 88 262 108 262 c 1,22,-1
 126 261 l 1,23,-1
 149 262 l 1,24,-1
 232 260 l 2,25,26
 257 260 257 260 260.5 246 c 128,-1,27
 264 232 264 232 266 216 c 0,28,29
 270 188 270 188 294 188 c 0,30,31
 330 188 330 188 330 264 c 2,32,-1
 330 268 l 1,33,-1
 328 268 l 1,34,35
 324 556 324 556 324 583 c 2,36,-1
 326 714 l 1,37,-1
 326 738 l 2,38,39
 326 752 326 752 346 755 c 1,40,-1
 442 754 l 1,41,-1
 584 755 l 1,42,-1
 631 755 l 2,0,1
EndSplineSet
EndChar

StartChar: K
Encoding: 75 75 46
Width: 823
GlyphClass: 2
Flags: W
LayerCount: 2
Fore
SplineSet
360 2 m 1,0,1
 357 -16 357 -16 277 -16 c 2,2,-1
 92 -16 l 2,3,4
 58 -16 58 -16 50 3 c 1,5,-1
 50 432 l 1,6,-1
 52 672 l 1,7,-1
 50 714 l 1,8,9
 50 750 50 750 62 757 c 1,10,11
 72 758 72 758 81 758 c 2,12,-1
 139 758 l 2,13,14
 159 758 159 758 179 757 c 2,15,-1
 244 756 l 1,16,-1
 286 758 l 1,17,18
 358 758 358 758 358 740 c 2,19,-1
 358 739 l 1,20,21
 356 599 356 599 356 462 c 1,22,-1
 440 637 l 2,23,24
 446 650 446 650 453 666 c 2,25,-1
 466 698 l 2,26,27
 483 738 483 738 498 754 c 1,28,-1
 600 754 l 2,29,30
 812 754 812 754 812 748 c 128,-1,31
 812 742 812 742 810 742 c 1,32,-1
 613 394 l 1,33,-1
 621 380 l 1,34,-1
 632 366 l 1,35,36
 638 360 638 360 642 352 c 2,37,-1
 805 72 l 2,38,39
 808 66 808 66 814 56 c 2,40,-1
 826 38 l 1,41,42
 840 15 840 15 840 6.5 c 128,-1,43
 840 -2 840 -2 831 -10 c 1,44,45
 831 -10 831 -10 510 -10 c 1,46,-1
 367 269 l 1,47,-1
 360 120 l 1,48,-1
 360 2 l 1,0,1
EndSplineSet
EndChar

StartChar: L
Encoding: 76 76 47
Width: 632
GlyphClass: 2
Flags: W
LayerCount: 2
Fore
SplineSet
410 -14 m 1,0,-1
 142 -17 l 1,1,-1
 64 -16 l 1,2,3
 52 2 52 2 52 27 c 2,4,-1
 52 184 l 1,5,-1
 54 554 l 1,6,-1
 51 668 l 1,7,8
 51 749 51 749 68 759 c 1,9,10
 75 758 75 758 82 758 c 2,11,-1
 98 758 l 1,12,-1
 203 760 l 1,13,14
 358 760 358 760 367 733 c 1,15,-1
 363 562 l 1,16,-1
 362 420 l 1,17,-1
 361 396 l 1,18,-1
 359 217 l 1,19,-1
 372 210 l 1,20,21
 420 214 420 214 456 214 c 2,22,-1
 569 215 l 2,23,24
 633 215 633 215 633 196 c 1,25,-1
 630 188 l 1,26,-1
 630 141 l 2,27,28
 630 132 630 132 633 122 c 1,29,-1
 633 64 l 1,30,31
 632 34 632 34 632 4 c 1,32,33
 626 -14 626 -14 410 -14 c 1,0,-1
EndSplineSet
EndChar

StartChar: M
Encoding: 77 77 48
Width: 1096
GlyphClass: 2
Flags: W
LayerCount: 2
Fore
SplineSet
318 90 m 2,0,1
 318 -10 318 -10 306 -10 c 2,2,-1
 261 -10 l 1,3,-1
 88 -11 l 2,4,5
 61 -11 61 -11 61 -4 c 2,6,-1
 61 98 l 1,7,8
 62 234 62 234 62 369 c 128,-1,9
 62 504 62 504 63 641 c 1,10,-1
 62 740 l 2,11,12
 62 750 62 750 74 756 c 1,13,-1
 123 757 l 1,14,-1
 182 757 l 1,15,-1
 472 749 l 1,16,17
 490 649 490 649 510 550 c 1,18,-1
 548 351 l 1,19,-1
 609 660 l 2,20,21
 609 662 609 662 610.5 670 c 128,-1,22
 612 678 612 678 613.5 688 c 128,-1,23
 615 698 615 698 618 710 c 0,24,25
 627 754 627 754 634 754 c 1,26,-1
 638 753 l 1,27,-1
 954 756 l 2,28,29
 991 756 991 756 1028 756 c 1,30,31
 1042 754 1042 754 1042 728 c 0,32,33
 1053 263 1053 263 1053 147 c 128,-1,34
 1053 31 1053 31 1052 2 c 1,35,36
 1049 -14 1049 -14 1022 -14 c 1,37,-1
 1000 -16 l 1,38,-1
 934 -16 l 2,39,40
 900 -16 900 -16 865 -17 c 1,41,-1
 794 -17 l 1,42,43
 770 2 770 2 770 78 c 2,44,-1
 770 229 l 1,45,-1
 771 316 l 1,46,-1
 771 351 l 1,47,48
 770 370 770 370 770 388 c 1,49,50
 744 292 744 292 724 194 c 0,51,52
 683 -5 683 -5 670 -10 c 128,-1,53
 657 -15 657 -15 635 -15 c 2,54,-1
 614 -15 l 1,55,56
 582 -14 582 -14 544 -14 c 2,57,58
 544 -14 544 -14 476 -14 c 0,59,60
 426 -14 426 -14 420 3 c 1,61,-1
 386 154 l 1,62,-1
 324 422 l 1,63,64
 318 242 318 242 318 178 c 2,65,-1
 318 90 l 2,0,1
EndSplineSet
EndChar

StartChar: N
Encoding: 78 78 49
Width: 863
GlyphClass: 2
Flags: W
LayerCount: 2
Fore
SplineSet
808 426 m 2,0,-1
 807 247 l 1,1,-1
 807 150 l 1,2,3
 808 114 808 114 808 77 c 2,4,-1
 808 4 l 1,5,6
 805 -9 805 -9 775 -9 c 2,7,-1
 762 -9 l 1,8,-1
 609 -11 l 1,9,-1
 535 -11 l 1,10,11
 458 -9 458 -9 453 1.5 c 128,-1,12
 448 12 448 12 433 52 c 2,13,-1
 311 380 l 1,14,-1
 310 204 l 1,15,-1
 312 72 l 1,16,-1
 312 9 l 2,17,18
 312 -15 312 -15 286 -15 c 2,19,-1
 284 -15 l 1,20,21
 256 -14 256 -14 221 -14 c 2,22,-1
 162 -14 l 1,23,-1
 102 -16 l 1,24,-1
 62 -17 l 1,25,-1
 48 -2 l 2,26,27
 40 6 40 6 40 16 c 2,28,-1
 40 52 l 1,29,-1
 42 224 l 1,30,31
 42 518 42 518 48 697 c 1,32,-1
 49 738 l 2,33,34
 49 749 49 749 62 751 c 1,35,36
 146 752 146 752 229 754 c 128,-1,37
 312 756 312 756 356 756 c 128,-1,38
 400 756 400 756 403 751 c 128,-1,39
 406 746 406 746 408 740 c 128,-1,40
 410 734 410 734 422 694.5 c 128,-1,41
 434 655 434 655 484 533 c 1,42,-1
 554 350 l 1,43,-1
 554 544 l 1,44,45
 556 640 556 640 556 740 c 0,46,47
 556 754 556 754 636 754 c 1,48,-1
 734 752 l 1,49,-1
 796 752 l 2,50,51
 804 752 804 752 804 749 c 0,52,53
 808 541 808 541 808 426 c 2,0,-1
804 749 m 1,54,-1
 804 750 l 1,55,-1
 805 750 l 1,56,-1
 805 748 l 1,57,-1
 804 749 l 1,54,-1
EndSplineSet
EndChar

StartChar: O
Encoding: 79 79 50
Width: 822
GlyphClass: 2
Flags: W
LayerCount: 2
Fore
SplineSet
12 376 m 1,0,-1
 18 431 l 1,1,2
 33 643 33 643 213 731 c 0,3,4
 303 775 303 775 378 775 c 0,5,6
 618 775 618 775 694.5 676.5 c 128,-1,7
 771 578 771 578 781.5 527 c 128,-1,8
 792 476 792 476 795 450.5 c 128,-1,9
 798 425 798 425 798 387 c 0,10,11
 798 210 798 210 724 116 c 1,12,-1
 702 86 l 1,13,14
 616 -28 616 -28 402 -28 c 0,15,16
 12 -28 12 -28 12 376 c 1,0,-1
408 574 m 128,-1,18
 310 574 310 574 310 336 c 0,19,20
 310 172 310 172 397 166 c 1,21,22
 506 166 506 166 506 370 c 128,-1,17
 506 574 506 574 408 574 c 128,-1,18
EndSplineSet
EndChar

StartChar: P
Encoding: 80 80 51
Width: 763
GlyphClass: 2
Flags: W
LayerCount: 2
Fore
SplineSet
65 -17 m 1,0,1
 52 19 52 19 52 68 c 2,2,-1
 52 284 l 1,3,-1
 54 480 l 1,4,-1
 54 734 l 2,5,6
 54 746 54 746 76 746 c 2,7,-1
 106 746 l 1,8,-1
 166 748 l 1,9,10
 182 750 182 750 197 750 c 2,11,-1
 267 750 l 1,12,-1
 266 752 l 1,13,14
 266 756 266 756 282 756 c 2,15,-1
 304 756 l 2,16,17
 419 756 419 756 488 750 c 1,18,-1
 512 752 l 1,19,20
 615 752 615 752 668 704 c 1,21,22
 760 618 760 618 760 500 c 0,23,24
 760 258 760 258 466 238 c 1,25,-1
 408 236 l 1,26,-1
 370 234 l 1,27,28
 366 146 366 146 366 97 c 2,29,-1
 366 6 l 1,30,31
 364 -12 364 -12 349 -12 c 2,32,-1
 65 -17 l 1,0,1
350 396 m 1,33,34
 486 396 486 396 486 500 c 0,35,36
 486 567 486 567 426 580 c 0,37,38
 401 586 401 586 351 586 c 1,39,40
 338 580 338 580 336.5 521 c 128,-1,41
 335 462 335 462 334.5 445.5 c 128,-1,42
 334 429 334 429 334 418 c 1,43,-1
 350 396 l 1,33,34
EndSplineSet
EndChar

StartChar: Q
Encoding: 81 81 52
Width: 821
GlyphClass: 2
Flags: W
LayerCount: 2
Fore
SplineSet
825 168 m 1,0,-1
 824 146 l 2,1,2
 824 134 824 134 824 122 c 2,3,-1
 825 74 l 1,4,5
 824 54 824 54 824 40 c 2,6,-1
 824 -2 l 1,7,8
 822 -17 822 -17 804 -22 c 1,9,10
 762 -15 762 -15 666 -15 c 1,11,-1
 396 -34 l 1,12,13
 193 -34 193 -34 98 122 c 1,14,-1
 92 122 l 1,15,16
 20 194 20 194 20 374 c 0,17,18
 20 643 20 643 232 736 c 0,19,20
 321 775 321 775 419 775 c 0,21,22
 600 775 600 775 701 668 c 128,-1,23
 802 561 802 561 802 419.5 c 128,-1,24
 802 278 802 278 743 198 c 1,25,-1
 782 199 l 1,26,27
 825 199 825 199 825 168 c 1,0,-1
412 584 m 0,28,29
 310 584 310 584 310 372 c 128,-1,30
 310 160 310 160 403 160 c 2,31,-1
 406 160 l 1,32,-1
 404 172 l 2,33,34
 404 174 404 174 408 174 c 2,35,-1
 425 172 l 1,36,37
 495 172 495 172 503 301 c 0,38,39
 504 318 504 318 505 333 c 2,40,-1
 506 405 l 1,41,42
 506 584 506 584 412 584 c 0,28,29
EndSplineSet
EndChar

StartChar: R
Encoding: 82 82 53
Width: 780
GlyphClass: 2
Flags: W
LayerCount: 2
Fore
SplineSet
154 -14 m 2,0,1
 58 -14 58 -14 46 -8 c 1,2,-1
 48 330 l 1,3,-1
 49 409 l 1,4,-1
 50 472 l 1,5,-1
 48 526 l 1,6,-1
 48 582 l 1,7,-1
 50 738 l 2,8,9
 50 752 50 752 85 752 c 2,10,-1
 150 752 l 2,11,12
 178 752 178 752 210 751 c 1,13,-1
 434 754 l 1,14,-1
 524 752 l 2,15,16
 756 746 756 746 756 554 c 0,17,18
 756 434 756 434 634 377 c 1,19,20
 742 343 742 343 756 148 c 0,21,22
 758 120 758 120 761 96 c 1,23,-1
 770 52 l 2,24,25
 774 30 774 30 776 20 c 128,-1,26
 778 10 778 10 778 4 c 0,27,28
 778 -14 778 -14 702 -14 c 128,-1,29
 626 -14 626 -14 539 -10 c 2,30,-1
 489 -8 l 1,31,32
 462 1 462 1 455 96 c 0,33,34
 445 216 445 216 432.5 231 c 128,-1,35
 420 246 420 246 399 246 c 2,36,-1
 359 246 l 1,37,-1
 359 153 l 1,38,-1
 360 93 l 1,39,-1
 360 2 l 1,40,41
 358 -14 358 -14 226 -14 c 2,42,-1
 154 -14 l 2,0,1
368 586 m 1,43,44
 356 580 356 580 356 553 c 2,45,-1
 356 509 l 2,46,47
 356 445 356 445 377 424 c 1,48,49
 491 424 491 424 491 520 c 0,50,51
 491 586 491 586 380 586 c 2,52,-1
 368 586 l 1,43,44
EndSplineSet
EndChar

StartChar: S
Encoding: 83 83 54
Width: 742
GlyphClass: 2
Flags: W
LayerCount: 2
Fore
SplineSet
356 510.5 m 128,-1,1
 396 501 396 501 407 497.5 c 128,-1,2
 418 494 418 494 434 490 c 2,3,-1
 506 473 l 1,4,5
 732 416 732 416 732 243 c 0,6,7
 732 -12 732 -12 364 -30 c 1,8,9
 345 -29 345 -29 322.5 -28.5 c 128,-1,10
 300 -28 300 -28 270 -24 c 0,11,12
 104 -5 104 -5 60 86 c 1,13,14
 22 144 22 144 22 182.5 c 128,-1,15
 22 221 22 221 27 221 c 2,16,-1
 50 221 l 1,17,-1
 292 225 l 2,18,19
 308 225 308 225 317 204.5 c 128,-1,20
 326 184 326 184 336 171 c 128,-1,21
 346 158 346 158 368 158 c 0,22,23
 440 160 440 160 440 206 c 0,24,25
 440 238 440 238 399 252 c 1,26,27
 382 260 382 260 362 264 c 128,-1,28
 342 268 342 268 325 273 c 128,-1,29
 308 278 308 278 290 281 c 128,-1,30
 272 284 272 284 233 294 c 0,31,32
 132 322 132 322 79 372 c 128,-1,33
 26 422 26 422 26 489.5 c 128,-1,34
 26 557 26 557 41.5 597.5 c 128,-1,35
 57 638 57 638 84 668 c 0,36,37
 134 726 134 726 217 752 c 128,-1,38
 300 778 300 778 359 778 c 128,-1,39
 418 778 418 778 483.5 772.5 c 128,-1,40
 549 767 549 767 614 726 c 1,41,-1
 662 684 l 1,42,43
 706 635 706 635 712 552 c 1,44,-1
 694 534 l 1,45,46
 578 530 578 530 512 530 c 128,-1,47
 446 530 446 530 438 534 c 0,48,49
 425 539 425 539 418.5 558.5 c 128,-1,50
 412 578 412 578 364 578 c 128,-1,51
 316 578 316 578 316 549 c 128,-1,0
 316 520 316 520 356 510.5 c 128,-1,1
EndSplineSet
EndChar

StartChar: T
Encoding: 84 84 55
Width: 659
GlyphClass: 2
Flags: W
LayerCount: 2
Fore
SplineSet
149 532 m 1,0,-1
 125 530 l 1,1,-1
 6 532 l 1,2,3
 -8 536 -8 536 -8 599 c 1,4,-1
 -6 650 l 1,5,-1
 -8 695 l 1,6,7
 -8 748 -8 748 -2 748 c 128,-1,8
 4 748 4 748 9 747 c 1,9,-1
 626 752 l 2,10,11
 665 752 665 752 665 730 c 2,12,-1
 665 716 l 1,13,-1
 666 562 l 2,14,15
 666 536 666 536 652 536 c 2,16,-1
 486 538 l 1,17,18
 485 480 485 480 485 422 c 2,19,-1
 485 307 l 1,20,-1
 486 261 l 1,21,-1
 487 2 l 1,22,23
 484 -12 484 -12 468 -14 c 1,24,-1
 366 -13 l 1,25,-1
 364 -14 l 1,26,-1
 243 -13 l 1,27,-1
 213 -13 l 1,28,29
 198 -14 198 -14 184 -14 c 1,30,-1
 174 -3 l 1,31,32
 167 7 167 7 164 10 c 1,33,-1
 174 462 l 1,34,-1
 170 516 l 1,35,36
 170 532 170 532 149 532 c 1,0,-1
EndSplineSet
EndChar

StartChar: U
Encoding: 85 85 56
Width: 807
GlyphClass: 2
Flags: W
LayerCount: 2
Fore
SplineSet
766 250 m 1,0,1
 766 -30 766 -30 411 -30 c 128,-1,2
 56 -30 56 -30 46 249 c 1,3,4
 48 433 48 433 48 616 c 2,5,-1
 48 622 l 1,6,-1
 46 658 l 1,7,-1
 46 683 l 2,8,9
 46 743 46 743 56 751 c 1,10,-1
 71 750 l 1,11,12
 165 754 165 754 219 754 c 2,13,-1
 286 754 l 1,14,-1
 334 750 l 2,15,16
 346 748 346 748 354 748 c 1,17,18
 359 576 359 576 359 473 c 1,19,-1
 358 375 l 2,20,21
 358 362 358 362 357 351 c 1,22,-1
 357 329 l 1,23,-1
 356 305 l 1,24,-1
 356 278 l 2,25,26
 356 190 356 190 403 190 c 128,-1,27
 450 190 450 190 450 249 c 1,28,-1
 452 254 l 1,29,-1
 454 374 l 1,30,-1
 454 432 l 2,31,32
 454 488 454 488 453 541 c 128,-1,33
 452 594 452 594 451 650 c 2,34,-1
 449 720 l 1,35,36
 452 755 452 755 462 758 c 1,37,38
 750 758 750 758 760 748 c 1,39,-1
 772 742 l 1,40,41
 768 622 768 622 768 547 c 2,42,-1
 768 388 l 1,43,-1
 766 250 l 1,0,1
EndSplineSet
EndChar

StartChar: V
Encoding: 86 86 57
Width: 777
GlyphClass: 2
Flags: W
LayerCount: 2
Fore
SplineSet
428 -11 m 1,0,1
 410 -13 410 -13 342 -13 c 128,-1,2
 274 -13 274 -13 202 -16 c 1,3,4
 180 -3 180 -3 167 60.5 c 128,-1,5
 154 124 154 124 150 141 c 2,6,-1
 66 439 l 1,7,8
 22 587 22 587 -16 738 c 1,9,10
 -16 752 -16 752 -1 752 c 2,11,-1
 280 754 l 2,12,13
 294 754 294 754 304 740 c 1,14,-1
 390 242 l 1,15,-1
 394 222 l 1,16,-1
 398 242 l 1,17,18
 419 368 419 368 445 493 c 2,19,-1
 495 743 l 1,20,21
 499 755 499 755 700 755 c 2,22,-1
 752 755 l 2,23,24
 780 755 780 755 780 753 c 2,25,-1
 780 752 l 1,26,27
 789 749 789 749 792 738 c 1,28,-1
 690 370 l 2,29,30
 684 352 684 352 680 333 c 2,31,-1
 670 294 l 2,32,33
 665 274 665 274 658 245 c 2,34,-1
 625 114 l 1,35,36
 593 -8 593 -8 571 -14 c 1,37,-1
 464 -11 l 1,38,-1
 428 -11 l 1,0,1
EndSplineSet
EndChar

StartChar: W
Encoding: 87 87 58
Width: 1065
GlyphClass: 2
Flags: W
LayerCount: 2
Fore
SplineSet
917 -10 m 2,0,-1
 859 -11 l 1,1,-1
 808 -11 l 1,2,-1
 706 -10 l 1,3,-1
 604 -12 l 1,4,5
 594 -10 594 -10 594 -7 c 2,6,-1
 594 -6 l 1,7,8
 588 45 588 45 580 94 c 2,9,-1
 564 192 l 1,10,-1
 550 290 l 2,11,12
 542 339 542 339 536 390 c 1,13,14
 504 219 504 219 495.5 128 c 128,-1,15
 487 37 487 37 484 26 c 0,16,17
 478 -2 478 -2 471.5 -8.5 c 128,-1,18
 465 -15 465 -15 450 -15 c 2,19,-1
 429 -15 l 1,20,21
 393 -14 393 -14 318.5 -14 c 128,-1,22
 244 -14 244 -14 152 -18 c 1,23,24
 132 -8 132 -8 127 25 c 128,-1,25
 122 58 122 58 120 68 c 2,26,-1
 -22 738 l 1,27,28
 -22 752 -22 752 -8 757 c 1,29,30
 0 756 0 756 10 756 c 2,31,-1
 30 756 l 1,32,-1
 70 757 l 2,33,34
 106 758 106 758 128 758 c 2,35,-1
 163 758 l 2,36,37
 176 758 176 758 189 757 c 1,38,-1
 218 757 l 1,39,40
 225 756 225 756 233 756 c 2,41,-1
 248 756 l 1,42,43
 264 752 264 752 284 597 c 1,44,-1
 305 416 l 2,45,46
 308 391 308 391 310 375 c 1,47,-1
 314 354 l 1,48,-1
 353 611 l 1,49,-1
 352 610 l 1,50,51
 352 682 352 682 366 717 c 128,-1,52
 380 752 380 752 384 754 c 1,53,54
 400 753 400 753 415 753 c 2,55,-1
 446 753 l 1,56,-1
 678 754 l 2,57,58
 687 754 687 754 691 746 c 1,59,-1
 750 355 l 1,60,-1
 753 332 l 1,61,62
 762 440 762 440 777 541 c 2,63,-1
 807 744 l 1,64,65
 810 756 810 756 842 756 c 2,66,-1
 866 756 l 2,67,68
 882 756 882 756 903 755 c 1,69,-1
 947 755 l 1,70,-1
 1013 754 l 1,71,-1
 1031 752 l 1,72,-1
 1072 746 l 1,73,74
 1082 746 1082 746 1084 724 c 1,75,76
 1066 640 1066 640 1045.5 553 c 128,-1,77
 1025 466 1025 466 1006 378 c 2,78,-1
 1002 360 l 2,79,80
 998 340 998 340 992 320 c 1,81,-1
 940 82 l 2,82,83
 920 -10 920 -10 917 -10 c 2,0,-1
EndSplineSet
EndChar

StartChar: X
Encoding: 88 88 59
Width: 800
GlyphClass: 2
Flags: W
LayerCount: 2
Fore
SplineSet
117 -13 m 2,0,-1
 -6 -14 l 1,1,2
 -18 -10 -18 -10 -18 1.5 c 128,-1,3
 -18 13 -18 13 0 42 c 2,4,-1
 214 376 l 1,5,-1
 0 738 l 1,6,-1
 0 743 l 2,7,8
 0 749 0 749 6 753 c 1,9,-1
 196 750 l 2,10,11
 218 750 218 750 240 749 c 1,12,-1
 275 749 l 1,13,14
 292 750 292 750 307.5 749.5 c 128,-1,15
 323 749 323 749 357 672 c 1,16,-1
 390 594 l 1,17,-1
 400 568 l 1,18,-1
 408 553 l 1,19,-1
 480 708 l 1,20,21
 501 750 501 750 504.5 750 c 128,-1,22
 508 750 508 750 652 753 c 2,23,-1
 796 756 l 1,24,25
 810 753 810 753 810 742 c 2,26,-1
 810 728 l 1,27,-1
 585 370 l 1,28,-1
 650 270 l 1,29,-1
 666 243 l 2,30,31
 674 229 674 229 684 216 c 1,32,-1
 816 12 l 1,33,34
 819 4 819 4 819 -5 c 128,-1,35
 819 -14 819 -14 785 -16 c 1,36,-1
 572 -17 l 2,37,38
 562 -18 562 -18 552 -18 c 2,39,-1
 526 -18 l 2,40,41
 499 -18 499 -18 486 -8 c 1,42,-1
 400 174 l 1,43,-1
 393 188 l 1,44,45
 387 176 387 176 378 157 c 2,46,-1
 317 32 l 2,47,48
 296 -9 296 -9 281 -15 c 1,49,50
 197 -13 197 -13 117 -13 c 2,0,-1
EndSplineSet
EndChar

StartChar: Y
Encoding: 89 89 60
Width: 762
GlyphClass: 2
Flags: W
LayerCount: 2
Fore
SplineSet
217 40 m 1,0,-1
 218 112 l 1,1,-1
 218 148 l 2,2,3
 218 263 218 263 168 363 c 2,4,-1
 55 590 l 2,5,6
 37 627 37 627 20 655 c 2,7,-1
 2 686 l 2,8,9
 -20 725 -20 725 -20 739 c 128,-1,10
 -20 753 -20 753 4 753 c 2,11,-1
 130 753 l 1,12,-1
 286 752 l 1,13,14
 305 749 305 749 342 627 c 2,15,-1
 391 462 l 1,16,17
 417 531 417 531 439 602 c 2,18,-1
 485 744 l 2,19,20
 488 755 488 755 564 755 c 2,21,-1
 574 755 l 1,22,23
 594 754 594 754 640 754 c 128,-1,24
 686 754 686 754 730 753.5 c 128,-1,25
 774 753 774 753 777.5 748.5 c 128,-1,26
 781 744 781 744 784 731 c 1,27,28
 768 699 768 699 715 600 c 1,29,-1
 537 250 l 1,30,31
 536 230 536 230 536 211 c 2,32,-1
 536 0 l 1,33,34
 532 -16 532 -16 516 -16 c 2,35,-1
 234 -18 l 1,36,37
 216 0 216 0 216 15 c 2,38,-1
 217 40 l 1,0,-1
EndSplineSet
EndChar

StartChar: Z
Encoding: 90 90 61
Width: 697
GlyphClass: 2
Flags: W
LayerCount: 2
Fore
SplineSet
52 -18 m 2,0,1
 26 -18 26 -18 7 8 c 1,2,-1
 7 24 l 1,3,-1
 8 100 l 1,4,-1
 10 172 l 2,5,6
 10 184 10 184 11 184 c 128,-1,7
 12 184 12 184 158 365 c 1,8,-1
 304 543 l 1,9,-1
 36 540 l 1,10,11
 24 544 24 544 24 559 c 2,12,-1
 24 624 l 1,13,-1
 20 708 l 1,14,15
 20 748 20 748 27 748 c 128,-1,16
 34 748 34 748 76.5 747.5 c 128,-1,17
 119 747 119 747 160 747 c 0,18,19
 221 747 221 747 526 752 c 1,20,-1
 632 753 l 2,21,22
 670 753 670 753 672 740.5 c 128,-1,23
 674 728 674 728 674 714 c 2,24,-1
 672 684 l 1,25,-1
 673 681 l 1,26,27
 673 560 673 560 655 530 c 128,-1,28
 637 500 637 500 614.5 473 c 128,-1,29
 592 446 592 446 567.5 420.5 c 128,-1,30
 543 395 543 395 525 374 c 2,31,-1
 380 200 l 1,32,-1
 385 200 l 1,33,-1
 500 202 l 1,34,-1
 558 204 l 1,35,36
 613 204 613 204 668 204 c 0,37,38
 684 204 684 204 684 164 c 2,39,-1
 684 62 l 1,40,-1
 686 22 l 1,41,42
 686 -8 686 -8 672 -10 c 128,-1,43
 658 -12 658 -12 648 -12 c 2,44,-1
 636 -12 l 1,45,-1
 52 -18 l 2,0,1
EndSplineSet
EndChar

StartChar: bracketleft
Encoding: 91 91 62
Width: 517
GlyphClass: 2
Flags: W
LayerCount: 2
Fore
SplineSet
427 758 m 2,0,1
 490 758 490 758 490 689 c 2,2,-1
 490 656 l 2,3,4
 490 574 490 574 484 574 c 2,5,-1
 476 574 l 1,6,-1
 433 573 l 2,7,8
 396 573 396 573 326 578 c 1,9,-1
 324 429 l 1,10,-1
 324 155 l 2,11,12
 324 92 324 92 326 32 c 1,13,-1
 456 34 l 1,14,-1
 475 34 l 1,15,16
 492 31 492 31 492 -12 c 2,17,-1
 492 -83 l 2,18,19
 492 -92 492 -92 491 -99 c 1,20,-1
 492 -118 l 1,21,-1
 492 -131 l 2,22,23
 492 -157 492 -157 472 -159 c 1,24,-1
 102 -163 l 1,25,-1
 80 -138 l 1,26,27
 80 -128 80 -128 79 -116 c 1,28,-1
 79 -93 l 1,29,-1
 80 -31 l 1,30,-1
 80 -18 l 2,31,32
 80 510 80 510 91 742 c 0,33,34
 91 758 91 758 109.5 756.5 c 128,-1,35
 128 755 128 755 134 755 c 2,36,-1
 188 754 l 2,37,38
 224 754 224 754 252 755 c 2,39,-1
 306 756 l 1,40,-1
 361 758 l 1,41,-1
 427 758 l 2,0,1
EndSplineSet
EndChar

StartChar: backslash
Encoding: 92 92 63
Width: 404
GlyphClass: 2
Flags: W
LayerCount: 2
Fore
SplineSet
292 -35 m 2,0,1
 263 -35 263 -35 248 -38 c 1,2,-1
 -16 756 l 2,3,4
 -18 759 -18 759 -18 764 c 128,-1,5
 -18 769 -18 769 -9 774 c 1,6,7
 42 771 42 771 94 771 c 1,8,-1
 134 772 l 2,9,10
 141 772 141 772 143 752 c 1,11,-1
 426 -11 l 1,12,13
 426 -11 426 -11 426 -17 c 0,14,15
 426 -33 426 -33 408 -35 c 1,16,-1
 388 -35 l 1,17,-1
 347 -36 l 1,18,-1
 292 -35 l 2,0,1
EndSplineSet
EndChar

StartChar: bracketright
Encoding: 93 93 64
Width: 518
GlyphClass: 2
Flags: W
LayerCount: 2
Fore
SplineSet
30.5 12.5 m 128,-1,1
 32 20 32 20 34.5 25 c 128,-1,2
 37 30 37 30 83.5 30 c 128,-1,3
 130 30 130 30 194 32 c 1,4,-1
 194 77 l 2,5,6
 194 192 194 192 188 564 c 1,7,-1
 126 564 l 1,8,-1
 42 562 l 1,9,10
 34 570 34 570 25 582 c 1,11,-1
 25 606 l 1,12,-1
 26 706 l 1,13,-1
 25 727 l 1,14,15
 25 754 25 754 38 764 c 1,16,-1
 51 764 l 1,17,-1
 172 762 l 1,18,-1
 308 764 l 1,19,-1
 428 758 l 2,20,21
 432 758 432 758 436 760 c 1,22,23
 436 748 436 748 437 738 c 1,24,-1
 437 714 l 1,25,-1
 436 622 l 1,26,-1
 436 607 l 1,27,-1
 426 -93 l 1,28,-1
 426 -131 l 2,29,30
 426 -147 426 -147 414 -157 c 1,31,32
 370 -159 370 -159 324 -159 c 2,33,-1
 312 -159 l 1,34,35
 244 -158 244 -158 179 -158 c 0,36,37
 37 -156 37 -156 33 -142.5 c 128,-1,38
 29 -129 29 -129 29 -62 c 128,-1,0
 29 5 29 5 30.5 12.5 c 128,-1,1
EndSplineSet
EndChar

StartChar: asciicircum
Encoding: 94 94 65
Width: 637
GlyphClass: 2
Flags: W
LayerCount: 2
Fore
SplineSet
82 370 m 1,0,1
 70 372 70 372 70 376 c 2,2,-1
 70 381 l 1,3,-1
 248 752 l 2,4,5
 251 758 251 758 303 758 c 0,6,7
 340 758 340 758 359.5 758 c 128,-1,8
 379 758 379 758 382 759 c 128,-1,9
 385 760 385 760 387 756 c 128,-1,10
 389 752 389 752 391 744 c 1,11,-1
 573 388 l 1,12,13
 573 364 573 364 525 364 c 2,14,-1
 450 364 l 2,15,16
 424 364 424 364 420 369 c 128,-1,17
 416 374 416 374 412 377 c 1,18,-1
 318 572 l 1,19,-1
 226 380 l 1,20,21
 220 372 220 372 214 370 c 1,22,-1
 213 370 l 1,23,-1
 212 371 l 1,24,-1
 82 370 l 1,0,1
EndSplineSet
EndChar

StartChar: underscore
Encoding: 95 95 66
Width: 525
GlyphClass: 2
Flags: W
LayerCount: 2
Fore
SplineSet
511 -64 m 1,0,1
 532 -64 532 -64 532 -91 c 2,2,-1
 532 -114 l 2,3,4
 532 -134 532 -134 518 -134 c 2,5,-1
 340 -134 l 2,6,7
 245 -134 245 -134 7 -145 c 1,8,-1
 -9 -124 l 1,9,10
 -12 -106 -12 -106 -12 -83.5 c 128,-1,11
 -12 -61 -12 -61 5 -61 c 2,12,-1
 111 -61 l 1,13,-1
 224 -60 l 1,14,-1
 392 -60 l 2,15,16
 475 -60 475 -60 511 -64 c 1,0,1
EndSplineSet
EndChar

StartChar: grave
Encoding: 96 96 67
Width: 316
GlyphClass: 2
Flags: W
LayerCount: 2
Fore
SplineSet
295 713 m 128,-1,1
 298 708 298 708 298 698 c 128,-1,2
 298 688 298 688 282 688 c 2,3,-1
 242 688 l 1,4,-1
 108 684 l 1,5,-1
 102 684 l 2,6,7
 98 684 98 684 96 686 c 2,8,-1
 24 771 l 1,9,-1
 -27 826 l 2,10,11
 -64 867 -64 867 -64 877.5 c 128,-1,12
 -64 888 -64 888 -52 894 c 1,13,14
 56 886 56 886 102 886 c 2,15,16
 102 886 102 886 166 886 c 1,17,18
 188 885 188 885 208 854 c 2,19,-1
 262 767 l 2,20,21
 270 754 270 754 275 746 c 2,22,-1
 282 735 l 2,23,24
 286 729 286 729 289 723.5 c 128,-1,0
 292 718 292 718 295 713 c 128,-1,1
EndSplineSet
EndChar

StartChar: a
Encoding: 97 97 68
Width: 741
GlyphClass: 2
Flags: W
LayerCount: 2
Fore
SplineSet
-16 24 m 1,0,1
 -20 28 -20 28 -24 36 c 1,2,-1
 190 680 l 1,3,4
 194 688 194 688 200 694 c 1,5,6
 213 694 213 694 227 693 c 1,7,-1
 327 693 l 1,8,9
 330 692 330 692 366 692 c 2,10,11
 366 692 366 692 470 692 c 1,12,-1
 534 688 l 2,13,14
 542 688 542 688 546 680 c 1,15,-1
 548 667 l 2,16,17
 550 658 550 658 557 644 c 1,18,-1
 619 458 l 1,19,-1
 628 428 l 1,20,-1
 632 422 l 1,21,22
 634 410 634 410 638 398 c 2,23,-1
 646 373 l 1,24,-1
 665 324 l 1,25,-1
 679 277 l 1,26,-1
 684 256 l 1,27,28
 688 248 688 248 688 244 c 1,29,-1
 696 216 l 1,30,31
 712 168 712 168 739 89 c 1,32,-1
 738 90 l 1,33,-1
 742 80 l 1,34,35
 744 70 744 70 748.5 60 c 128,-1,36
 753 50 753 50 753 36 c 128,-1,37
 753 22 753 22 682 22 c 2,38,-1
 546 22 l 1,39,40
 467 23 467 23 465 36 c 1,41,-1
 446 112 l 2,42,43
 443 124 443 124 439 124 c 2,44,-1
 276 124 l 1,45,46
 270 104 270 104 265 80 c 128,-1,47
 260 56 260 56 254 34 c 1,48,49
 245 20 245 20 219 20 c 2,50,-1
 161 20 l 1,51,52
 146 19 146 19 130 19 c 2,53,-1
 16 19 l 1,54,-1
 -10 18 l 1,55,56
 -12 20 -12 20 -13 22 c 128,-1,57
 -14 24 -14 24 -16 26 c 1,58,-1
 -16 24 l 1,0,1
300 302 m 1,59,-1
 300 300 l 1,60,-1
 300 302 l 1,59,-1
332 442 m 2,61,-1
 300 302 l 1,62,-1
 302 291 l 1,63,-1
 324 292 l 1,64,-1
 393 290 l 1,65,-1
 412 290 l 2,66,67
 424 290 424 290 424 299 c 128,-1,68
 424 308 424 308 421 318 c 128,-1,69
 418 328 418 328 415 338 c 2,70,-1
 412 350 l 2,71,72
 410 356 410 356 410 362 c 1,73,-1
 396 422 l 1,74,-1
 392 446 l 1,75,-1
 384 483 l 1,76,77
 382 487 382 487 381 492.5 c 128,-1,78
 380 498 380 498 378 505 c 2,79,-1
 373 529 l 2,80,81
 371 535 371 535 370 538.5 c 128,-1,82
 369 542 369 542 364 544 c 1,83,-1
 364 543 l 1,84,85
 352 540 352 540 340 476 c 1,86,-1
 336 452 l 2,87,88
 335 448 335 448 333.5 446 c 128,-1,89
 332 444 332 444 332 442 c 2,61,-1
EndSplineSet
EndChar

StartChar: b
Encoding: 98 98 69
Width: 704
GlyphClass: 2
Flags: W
LayerCount: 2
Fore
SplineSet
55 685 m 1,0,-1
 212 694 l 1,1,-1
 424 694 l 2,2,3
 538 694 538 694 603 646 c 1,4,-1
 602 646 l 1,5,6
 662 606 662 606 662 536 c 0,7,8
 662 405 662 405 573 376 c 1,9,-1
 571 374 l 1,10,-1
 572 374 l 1,11,12
 574 372 574 372 601 361 c 128,-1,13
 628 350 628 350 654 312.5 c 128,-1,14
 680 275 680 275 679 219 c 1,15,16
 679 92 679 92 558 47 c 1,17,-1
 516 32 l 1,18,19
 475 21 475 21 448 21 c 2,20,-1
 418 21 l 1,21,22
 364 22 364 22 320 22 c 1,23,-1
 288 24 l 1,24,25
 286 22 286 22 284 22 c 2,26,-1
 199 22 l 2,27,28
 188 22 188 22 178 21 c 2,29,-1
 56 18 l 1,30,-1
 52 30 l 1,31,-1
 46 43 l 1,32,-1
 44 97 l 1,33,-1
 42 216 l 1,34,-1
 42 318 l 1,35,36
 46 507 46 507 46 514 c 2,37,-1
 46 541 l 1,38,-1
 44 566 l 1,39,-1
 44 666 l 1,40,41
 43 666 43 666 42 666 c 1,42,-1
 42 667 l 1,43,-1
 41 667 l 1,44,45
 41 684 41 684 50 684 c 1,46,-1
 52 685 l 1,47,-1
 55 685 l 1,0,-1
300 294 m 1,48,-1
 300 283 l 1,49,-1
 304 234 l 1,50,-1
 304 184 l 2,51,52
 304 179 304 179 311 177 c 1,53,-1
 350 177 l 1,54,55
 422 182 422 182 422 239 c 0,56,57
 422 322 422 322 320 309 c 0,58,59
 311 308 311 308 306 303 c 1,60,-1
 300 294 l 1,48,-1
310 543 m 1,61,62
 304 541 304 541 304 534 c 2,63,-1
 304 522 l 1,64,65
 306 504 306 504 306 478 c 2,66,-1
 306 468 l 1,67,-1
 305 458 l 1,68,-1
 306 438 l 1,69,-1
 306 422 l 2,70,71
 306 417 306 417 310 415 c 1,72,73
 413 415 413 415 413 484 c 0,74,75
 413 543 413 543 321 543 c 2,76,-1
 315 543 l 1,77,78
 312 542 312 542 310 542 c 1,79,-1
 310 543 l 1,61,62
EndSplineSet
EndChar

StartChar: c
Encoding: 99 99 70
Width: 695
GlyphClass: 2
Flags: W
LayerCount: 2
Fore
SplineSet
364 4 m 0,0,1
 18 4 18 4 18 373 c 2,2,-1
 18 380 l 1,3,4
 20 400 20 400 22 439 c 0,5,6
 27 535 27 535 110 616 c 1,7,8
 201 707 201 707 324 706.5 c 128,-1,9
 447 706 447 706 502 688 c 0,10,11
 648 639 648 639 670 485 c 1,12,-1
 674 442 l 1,13,14
 671 425 671 425 630 425 c 1,15,-1
 590 426 l 1,16,17
 421 426 421 426 417.5 433 c 128,-1,18
 414 440 414 440 412 448 c 2,19,-1
 408 469 l 2,20,21
 400 514 400 514 372 514 c 0,22,23
 308 514 308 514 308 358 c 2,24,-1
 308 302 l 2,25,26
 308 206 308 206 362 206 c 0,27,28
 387 206 387 206 395.5 230 c 128,-1,29
 404 254 404 254 408 268.5 c 128,-1,30
 412 283 412 283 420 291 c 1,31,-1
 540 290 l 1,32,-1
 623 291 l 1,33,-1
 660 291 l 2,34,35
 676 291 676 291 678 271 c 1,36,-1
 676 252 l 2,37,38
 674 242 674 242 673 223 c 128,-1,39
 672 204 672 204 660 174 c 0,40,41
 608 42 608 42 448 14 c 1,42,-1
 438 11 l 1,43,44
 406 4 406 4 364 4 c 0,0,1
EndSplineSet
EndChar

StartChar: d
Encoding: 100 100 71
Width: 728
GlyphClass: 2
Flags: W
LayerCount: 2
Fore
SplineSet
51 187 m 2,0,-1
 50 248 l 2,1,2
 50 279 50 279 51 312 c 2,3,-1
 52 394 l 1,4,-1
 50 474 l 1,5,-1
 48 512 l 1,6,-1
 48 552 l 1,7,8
 44 600 44 600 44 650 c 2,9,-1
 44 668 l 1,10,11
 42 670 42 670 42 677.5 c 128,-1,12
 42 685 42 685 56 685 c 1,13,-1
 56 686 l 1,14,-1
 62 685 l 1,15,-1
 193 694 l 1,16,-1
 308 694 l 2,17,18
 553 694 553 694 629.5 593.5 c 128,-1,19
 706 493 706 493 706 397 c 128,-1,20
 706 301 706 301 692 254 c 0,21,22
 653 121 653 121 536 59 c 0,23,24
 470 24 470 24 394 20 c 1,25,-1
 390 22 l 1,26,-1
 372 21 l 1,27,-1
 350 20 l 1,28,-1
 324 20 l 2,29,30
 312 20 312 20 276.5 21 c 128,-1,31
 241 22 241 22 184 22 c 1,32,-1
 104 20 l 1,33,-1
 60 19 l 1,34,35
 50 40 50 40 50 48 c 2,36,-1
 50 126 l 1,37,38
 51 157 51 157 51 187 c 2,0,-1
427 484 m 1,39,40
 397 543 397 543 318 543 c 2,41,-1
 312 543 l 1,42,-1
 309 532 l 1,43,-1
 302 522 l 1,44,-1
 304 496 l 1,45,-1
 304 468 l 1,46,-1
 303 434 l 1,47,-1
 303 426 l 1,48,-1
 304 326 l 1,49,-1
 304 236 l 2,50,51
 304 182 304 182 312 178 c 1,52,-1
 327 178 l 2,53,54
 440 178 440 178 440 362 c 2,55,-1
 440 398 l 1,56,57
 438 408 438 408 438 430.5 c 128,-1,58
 438 453 438 453 426 484 c 1,59,-1
 427 484 l 1,39,40
EndSplineSet
EndChar

StartChar: e
Encoding: 101 101 72
Width: 583
GlyphClass: 2
Flags: W
LayerCount: 2
Fore
SplineSet
435 24 m 1,0,-1
 156 22 l 1,1,-1
 57 20 l 1,2,-1
 42 37 l 1,3,-1
 44 297 l 2,4,5
 45 311 45 311 45 320 c 2,6,-1
 45 342 l 1,7,8
 44 346 44 346 44 356.5 c 128,-1,9
 44 367 44 367 46 386 c 1,10,-1
 46 452 l 1,11,-1
 44 503 l 1,12,13
 40 509 40 509 41 516 c 2,14,-1
 42 543 l 1,15,-1
 41 609 l 1,16,-1
 41 646 l 2,17,18
 41 688 41 688 59 688 c 2,19,-1
 71 688 l 2,20,21
 78 688 78 688 82 687 c 1,22,-1
 108 687 l 1,23,-1
 414 691 l 1,24,-1
 440 691 l 1,25,-1
 484 692 l 1,26,-1
 547 692 l 1,27,28
 560 690 560 690 560 679 c 2,29,-1
 560 512 l 1,30,31
 559 504 559 504 546 495 c 1,32,-1
 520 496 l 1,33,-1
 428 497 l 2,34,35
 406 498 406 498 385 498 c 128,-1,36
 364 498 364 498 342 499 c 2,37,-1
 316 500 l 1,38,39
 314 496 314 496 314 493 c 2,40,-1
 314 443 l 2,41,42
 314 440 314 440 313 439 c 1,43,-1
 313 435 l 1,44,-1
 323 434 l 1,45,-1
 336 434 l 1,46,-1
 516 438 l 2,47,48
 540 438 540 438 540 417 c 1,49,-1
 538 400 l 1,50,-1
 538 381 l 1,51,-1
 539 362 l 1,52,-1
 539 348 l 1,53,-1
 540 326 l 1,54,-1
 541 307 l 1,55,-1
 541 294 l 1,56,57
 538 284 538 284 534 284 c 2,58,-1
 528 284 l 1,59,-1
 527 285 l 1,60,-1
 396 280 l 1,61,-1
 330 280 l 2,62,63
 324 280 324 280 316 281 c 1,64,-1
 316 216 l 1,65,-1
 470 218 l 1,66,-1
 534 220 l 2,67,68
 563 220 563 220 570 206 c 1,69,-1
 570 171 l 1,70,-1
 571 152 l 1,71,-1
 571 72 l 1,72,73
 572 70 572 70 572 66 c 2,74,-1
 572 46 l 2,75,76
 572 23 572 23 552 21 c 1,77,-1
 545 21 l 1,78,79
 536 22 536 22 528 22 c 2,80,-1
 500 22 l 1,81,-1
 478 23 l 1,82,-1
 448 23 l 1,83,-1
 435 24 l 1,0,-1
EndSplineSet
EndChar

StartChar: f
Encoding: 102 102 73
Width: 563
GlyphClass: 2
Flags: W
LayerCount: 2
Fore
SplineSet
48 468 m 1,0,-1
 46 507 l 1,1,-1
 42 526 l 1,2,-1
 44 556 l 1,3,-1
 44 676 l 2,4,5
 44 692 44 692 76 692 c 2,6,7
 76 692 76 692 154 692 c 1,8,-1
 232 694 l 1,9,10
 232 694 232 694 385 694 c 1,11,-1
 482 692 l 1,12,-1
 546 691 l 2,13,14
 559 691 559 691 559 672 c 2,15,-1
 560 602 l 1,16,-1
 559 581 l 1,17,-1
 559 562 l 1,18,-1
 560 525 l 2,19,20
 560 504 560 504 554 503 c 128,-1,21
 548 502 548 502 537 502 c 2,22,-1
 500 502 l 1,23,-1
 478 500 l 1,24,25
 463 500 463 500 448 500 c 2,26,-1
 389 498 l 1,27,-1
 360 496 l 1,28,-1
 325 496 l 1,29,-1
 325 484 l 2,30,31
 325 472 325 472 327 452 c 1,32,33
 390 458 390 458 428 458 c 0,34,35
 470 458 470 458 491 458 c 128,-1,36
 512 458 512 458 527 458.5 c 128,-1,37
 542 459 542 459 546 443 c 1,38,-1
 546 414 l 1,39,-1
 544 355 l 1,40,-1
 544 310 l 1,41,42
 545 304 545 304 545 296 c 2,43,-1
 545 276 l 1,44,45
 544 260 544 260 526 260 c 2,46,-1
 482 260 l 1,47,-1
 384 258 l 1,48,-1
 344 256 l 2,49,50
 336 256 336 256 328 256 c 1,51,-1
 331 84 l 1,52,-1
 332 43 l 2,53,54
 332 25 332 25 310 20 c 1,55,-1
 268 20 l 1,56,-1
 250 19 l 1,57,-1
 241 20 l 1,58,-1
 57 20 l 1,59,-1
 44 42 l 1,60,-1
 44 164 l 1,61,-1
 46 274 l 1,62,-1
 47 379 l 2,63,64
 48 430 48 430 48 468 c 1,0,-1
EndSplineSet
EndChar

StartChar: g
Encoding: 103 103 74
Width: 751
GlyphClass: 2
Flags: W
LayerCount: 2
Fore
SplineSet
714 402 m 1,0,-1
 710 110 l 1,1,-1
 710 97 l 1,2,-1
 711 66 l 1,3,4
 704 34 704 34 573.5 20 c 128,-1,5
 443 6 443 6 424 6 c 2,6,-1
 386 6 l 2,7,8
 229 6 229 6 134 81 c 1,9,-1
 113 99 l 2,10,11
 103 107 103 107 96 117 c 2,12,-1
 81 136 l 1,13,14
 20 260 20 260 20 371 c 128,-1,15
 20 482 20 482 83 570 c 1,16,-1
 91 580 l 2,17,18
 94 583 94 583 97 587.5 c 128,-1,19
 100 592 100 592 102 594 c 1,20,-1
 102 593 l 1,21,22
 191 708 191 708 390.5 708 c 128,-1,23
 590 708 590 708 666 602 c 1,24,25
 689 572 689 572 699 490 c 1,26,-1
 700 486 l 1,27,28
 700 469 700 469 668 469 c 2,29,-1
 627 469 l 1,30,-1
 501 472 l 1,31,-1
 446 472 l 1,32,33
 440 473 440 473 435 485 c 128,-1,34
 430 497 430 497 426 503 c 1,35,-1
 426 502 l 1,36,37
 416 522 416 522 390.5 522 c 128,-1,38
 365 522 365 522 352.5 515 c 128,-1,39
 340 508 340 508 333 499 c 0,40,41
 307 466 307 466 307 388 c 1,42,-1
 308 352 l 1,43,-1
 308 314 l 2,44,45
 308 198 308 198 396 198 c 0,46,47
 444 198 444 198 473 207 c 1,48,-1
 473 229 l 1,49,-1
 472 250 l 1,50,-1
 473 262 l 1,51,-1
 454 262 l 1,52,-1
 436 261 l 1,53,-1
 394 261 l 1,54,-1
 377 280 l 1,55,56
 376 287 376 287 376 295 c 2,57,-1
 376 326 l 1,58,-1
 377 365 l 1,59,-1
 377 379 l 1,60,-1
 378 390 l 1,61,-1
 377 394 l 1,62,63
 377 409 377 409 387 414 c 0,64,65
 398 420 398 420 400 420 c 2,66,-1
 442 420 l 2,67,68
 449 420 449 420 457 418 c 1,69,-1
 502 417 l 2,70,71
 520 416 520 416 540 416 c 2,72,-1
 624 416 l 2,73,74
 700 416 700 416 714 402 c 1,0,-1
EndSplineSet
EndChar

StartChar: h
Encoding: 104 104 75
Width: 742
GlyphClass: 2
Flags: W
LayerCount: 2
Fore
SplineSet
693 321 m 1,0,-1
 690 293 l 1,1,-1
 690 210 l 2,2,3
 690 204 690 204 692 198 c 1,4,-1
 692 196 l 1,5,-1
 694 196 l 1,6,-1
 694 166 l 1,7,-1
 696 104 l 1,8,-1
 696 52 l 1,9,10
 694 20 694 20 666 19 c 128,-1,11
 638 18 638 18 589 18 c 2,12,-1
 494 18 l 2,13,14
 448 18 448 18 420 20 c 1,15,-1
 412 29 l 2,16,17
 407 34 407 34 404 40 c 1,18,-1
 404 200 l 1,19,-1
 405 242 l 2,20,21
 406 256 406 256 400 256 c 2,22,-1
 354 256 l 2,23,24
 340 256 340 256 328 254 c 1,25,-1
 328 238 l 1,26,-1
 327 162 l 1,27,-1
 327 137 l 1,28,29
 326 127 326 127 326 117 c 2,30,-1
 326 38 l 1,31,32
 323 24 323 24 301 24 c 2,33,-1
 278 24 l 1,34,-1
 128 22 l 1,35,-1
 62 22 l 2,36,37
 40 22 40 22 40 46 c 2,38,-1
 40 56 l 2,39,40
 40 60 40 60 41 66 c 1,41,-1
 41 124 l 1,42,-1
 42 188 l 1,43,-1
 42 410 l 1,44,-1
 43 420 l 1,45,-1
 48 656 l 1,46,-1
 48 676 l 2,47,48
 48 683 48 683 56 689 c 1,49,-1
 104 689 l 1,50,-1
 114 690 l 1,51,-1
 160 690 l 1,52,-1
 198 691 l 1,53,-1
 214 691 l 1,54,-1
 224 692 l 1,55,-1
 266 691 l 1,56,57
 317 691 317 691 324 681 c 1,58,-1
 324 673 l 1,59,-1
 325 592 l 1,60,-1
 325 583 l 1,61,-1
 324 540 l 1,62,-1
 324 474 l 1,63,-1
 394 472 l 1,64,-1
 404 471 l 2,65,66
 414 471 414 471 412.5 482.5 c 128,-1,67
 411 494 411 494 411 498 c 2,68,-1
 411 547 l 1,69,-1
 412 568 l 1,70,-1
 412 666 l 2,71,72
 412 686 412 686 420 694 c 1,73,74
 508 694 508 694 596 694 c 1,75,-1
 667 692 l 2,76,77
 690 692 690 692 690 667 c 2,78,-1
 690 560 l 1,79,-1
 688 522 l 1,80,-1
 689 504 l 1,81,-1
 689 480 l 1,82,-1
 692 429 l 1,83,-1
 692 352 l 1,84,-1
 693 328 l 1,85,-1
 693 321 l 1,0,-1
EndSplineSet
EndChar

StartChar: i
Encoding: 105 105 76
Width: 372
GlyphClass: 2
Flags: W
LayerCount: 2
Fore
SplineSet
56 19 m 1,0,1
 39 28 39 28 36 28 c 1,2,-1
 36 104 l 1,3,-1
 38 142 l 1,4,-1
 38 213 l 2,5,6
 38 299 38 299 41 350 c 1,7,-1
 42 424 l 1,8,-1
 44 522 l 1,9,-1
 44 676 l 1,10,11
 46 686 46 686 53 694 c 1,12,13
 81 692 81 692 111 692 c 1,14,-1
 130 690 l 2,15,16
 150 688 150 688 196 688 c 2,17,18
 196 688 196 688 313 688 c 1,19,20
 322 686 322 686 322 672 c 2,21,-1
 322 336 l 1,22,-1
 323 275 l 1,23,-1
 323 247 l 1,24,25
 324 237 324 237 324 228 c 2,26,-1
 324 112 l 1,27,-1
 326 87 l 1,28,-1
 326 61 l 2,29,30
 326 48 326 48 327 37 c 1,31,32
 324 22 324 22 310 22 c 2,33,-1
 296 22 l 1,34,35
 221 19 221 19 196 19 c 2,36,-1
 56 19 l 1,0,1
EndSplineSet
EndChar

StartChar: j
Encoding: 106 106 77
Width: 614
GlyphClass: 2
Flags: W
LayerCount: 2
Fore
SplineSet
43 83 m 1,0,1
 -12 142 -12 142 -12 222 c 2,2,-1
 -12 240 l 2,3,4
 -12 262 -12 262 -4 262 c 0,5,6
 17 262 17 262 38 262 c 2,7,-1
 203 264 l 2,8,9
 234 264 234 264 234 235 c 128,-1,10
 234 206 234 206 255.5 206 c 128,-1,11
 277 206 277 206 282 241 c 1,12,-1
 282 254 l 2,13,14
 282 262 282 262 283 266 c 1,15,-1
 284 266 l 1,16,-1
 284 299 l 1,17,-1
 285 572 l 1,18,-1
 285 604 l 1,19,-1
 284 634 l 1,20,-1
 284 664 l 2,21,22
 284 688 284 688 300 694 c 1,23,-1
 322 694 l 1,24,-1
 344 693 l 1,25,-1
 365 693 l 1,26,-1
 416 692 l 1,27,-1
 504 692 l 2,28,29
 512 692 512 692 523 693 c 0,30,31
 566 697 566 697 570 678 c 1,32,33
 568 662 568 662 568 652 c 2,34,-1
 568 614 l 1,35,36
 566 566 566 566 565 504 c 2,37,-1
 564 378 l 1,38,-1
 564 240 l 2,39,40
 564 170 564 170 516 98 c 1,41,42
 435 10 435 10 290 10 c 2,43,-1
 274 10 l 1,44,-1
 250 9 l 1,45,46
 115 9 115 9 43 84 c 1,47,-1
 43 83 l 1,0,1
284 265 m 1,48,-1
 289 265 l 1,49,50
 289 268 289 268 286 268 c 1,51,-1
 284 265 l 1,48,-1
EndSplineSet
EndChar

StartChar: k
Encoding: 107 107 78
Width: 735
GlyphClass: 2
Flags: W
LayerCount: 2
Fore
SplineSet
219 694 m 1,0,-1
 283 694 l 2,1,2
 320 694 320 694 323 675 c 1,3,-1
 323 646 l 1,4,5
 322 623 322 623 322 599 c 2,6,-1
 322 485 l 1,7,-1
 321 462 l 1,8,-1
 321 453 l 1,9,-1
 434 685 l 1,10,-1
 440 692 l 1,11,-1
 484 692 l 1,12,-1
 544 690 l 1,13,-1
 582 690 l 1,14,-1
 605 691 l 1,15,-1
 634 691 l 1,16,-1
 641 692 l 1,17,-1
 658 692 l 2,18,19
 722 692 722 692 722 683.5 c 128,-1,20
 722 675 722 675 713 661 c 2,21,-1
 580 436 l 2,22,23
 563 406 563 406 547 382 c 1,24,-1
 551 372 l 1,25,26
 554 369 554 369 562 356 c 2,27,-1
 616 264 l 1,28,-1
 617 261 l 1,29,-1
 645 214 l 2,30,31
 659 190 659 190 675 168 c 1,32,-1
 693 139 l 2,33,34
 694 138 694 138 695 136 c 128,-1,35
 696 134 696 134 697 133 c 2,36,-1
 733 72 l 2,37,38
 737 66 737 66 741 57 c 2,39,-1
 748 44 l 1,40,41
 748 31 748 31 736 22 c 1,42,43
 683 25 683 25 596 25 c 1,44,-1
 519 24 l 1,45,-1
 451 24 l 1,46,-1
 444 38 l 2,47,48
 440 46 440 46 423 73 c 128,-1,49
 406 100 406 100 378 153 c 2,50,-1
 322 260 l 1,51,-1
 323 141 l 1,52,-1
 323 89 l 1,53,54
 324 75 324 75 324 62 c 2,55,-1
 324 38 l 1,56,57
 317 18 317 18 267 18 c 1,58,-1
 233 19 l 1,59,-1
 227 19 l 1,60,61
 204 18 204 18 186 18 c 2,62,-1
 124 18 l 2,63,64
 114 18 114 18 102 19 c 1,65,-1
 86 18 l 1,66,-1
 56 18 l 1,67,-1
 42 39 l 1,68,-1
 42 50 l 1,69,-1
 43 98 l 1,70,-1
 43 134 l 1,71,-1
 44 172 l 1,72,-1
 44 438 l 1,73,-1
 45 572 l 1,74,-1
 42 657 l 2,75,76
 42 684 42 684 54 696 c 1,77,-1
 140 696 l 1,78,-1
 219 694 l 1,0,-1
EndSplineSet
EndChar

StartChar: l
Encoding: 108 108 79
Width: 563
GlyphClass: 2
Flags: W
LayerCount: 2
Fore
SplineSet
53 18 m 1,0,-1
 41 34 l 1,1,-1
 41 152 l 1,2,-1
 42 194 l 1,3,-1
 44 226 l 1,4,-1
 43 250 l 1,5,-1
 48 514 l 1,6,-1
 44 608 l 1,7,8
 44 679 44 679 61 694 c 1,9,10
 139 692 139 692 216 692 c 0,11,12
 259 692 259 692 302 692 c 1,13,-1
 316 690 l 1,14,-1
 319 690 l 1,15,16
 329 688 329 688 337 669 c 1,17,-1
 337 662 l 1,18,-1
 336 630 l 1,19,-1
 336 608 l 1,20,21
 334 598 334 598 334 588 c 2,22,-1
 334 546 l 2,23,24
 334 541 334 541 333 532.5 c 128,-1,25
 332 524 332 524 332 518 c 1,26,-1
 331 520 l 1,27,28
 328 521 328 521 328 522 c 2,29,-1
 328 512 l 1,30,-1
 326 424 l 1,31,-1
 326 381 l 1,32,33
 324 349 324 349 324 317 c 2,34,-1
 324 255 l 2,35,36
 324 238 324 238 322 224 c 1,37,-1
 544 224 l 2,38,39
 560 224 560 224 560 207 c 2,40,-1
 560 91 l 2,41,42
 560 65 560 65 561 40 c 1,43,44
 558 22 558 22 512 22 c 2,45,-1
 478 22 l 1,46,-1
 347 20 l 1,47,-1
 206 20 l 1,48,-1
 174 19 l 1,49,-1
 171 19 l 1,50,-1
 152 18 l 1,51,-1
 53 18 l 1,0,-1
EndSplineSet
EndChar

StartChar: m
Encoding: 109 109 80
Width: 986
GlyphClass: 2
Flags: W
LayerCount: 2
Fore
SplineSet
54 498 m 1,0,-1
 52 586 l 1,1,-1
 52 675 l 2,2,3
 52 685 52 685 64 694 c 1,4,5
 64 694 64 694 117 694 c 0,6,7
 138 694 138 694 146 695 c 1,8,-1
 404 684 l 1,9,-1
 410 684 l 1,10,-1
 422 688 l 1,11,-1
 425 688 l 2,12,13
 432 688 432 688 432 685 c 2,14,-1
 454 572 l 1,15,-1
 466 499 l 1,16,-1
 472 469 l 1,17,18
 474 453 474 453 477 437 c 2,19,-1
 484 398 l 1,20,-1
 488 369 l 2,21,22
 490 361 490 361 492 355 c 1,23,24
 494 361 494 361 495 369.5 c 128,-1,25
 496 378 496 378 498 386 c 2,26,-1
 524 516 l 2,27,28
 532 561 532 561 544 608 c 1,29,-1
 558 680 l 2,30,31
 560 690 560 690 569 690 c 2,32,-1
 720 692 l 1,33,-1
 801 694 l 1,34,-1
 890 694 l 2,35,36
 894 694 894 694 898 693 c 1,37,-1
 920 693 l 1,38,39
 934 694 934 694 934 654 c 2,40,-1
 934 354 l 1,41,-1
 933 300 l 2,42,43
 933 269 933 269 936 248 c 2,44,-1
 939 218 l 1,45,-1
 939 188 l 1,46,-1
 938 42 l 1,47,48
 935 20 935 20 909 20 c 2,49,-1
 890 20 l 1,50,-1
 704 18 l 1,51,52
 679 34 679 34 679 133 c 1,53,-1
 680 188 l 2,54,55
 681 223 681 223 681 258 c 2,56,-1
 681 328 l 2,57,58
 681 354 681 354 682 380 c 1,59,-1
 673 342 l 2,60,61
 663 298 663 298 650.5 252 c 128,-1,62
 638 206 638 206 628 162 c 2,63,-1
 598 34 l 1,64,65
 590 20 590 20 548 20 c 2,66,-1
 445 22 l 1,67,-1
 436 22 l 1,68,-1
 413 21 l 1,69,70
 385 21 385 21 380 41 c 2,71,-1
 340 219 l 1,72,-1
 330 270 l 1,73,-1
 315 336 l 2,74,75
 307 370 307 370 301 402 c 2,76,-1
 297 422 l 1,77,78
 290 286 290 286 290 190 c 2,79,-1
 290 36 l 1,80,81
 289 26 289 26 278 26 c 2,82,-1
 209 26 l 1,83,-1
 135 24 l 1,84,-1
 114 25 l 1,85,-1
 82 25 l 2,86,87
 54 25 54 25 54 36 c 1,88,-1
 57 50 l 1,89,90
 53 158 53 158 53 287 c 2,91,-1
 54 498 l 1,0,-1
421 688 m 1,92,-1
 422 688 l 1,93,-1
 421 688 l 1,92,-1
682 383 m 1,94,-1
 682 384 l 1,95,-1
 682 383 l 1,94,-1
EndSplineSet
EndChar

StartChar: n
Encoding: 110 110 81
Width: 774
GlyphClass: 2
Flags: W
LayerCount: 2
Fore
SplineSet
262 18 m 1,0,-1
 215 20 l 1,1,-1
 118 20 l 2,2,3
 104 20 104 20 92 19 c 2,4,-1
 56 18 l 1,5,-1
 34 42 l 1,6,-1
 42 564 l 1,7,-1
 42 626 l 2,8,9
 42 632 42 632 43 636 c 1,10,-1
 42 672 l 1,11,12
 45 690 45 690 54 690 c 1,13,-1
 58 688 l 1,14,-1
 270 692 l 2,15,16
 312 692 312 692 354 692 c 1,17,18
 366 688 366 688 366 680 c 1,19,-1
 482 352 l 1,20,-1
 484 426 l 1,21,22
 492 558 492 558 492 676 c 0,23,24
 492 689 492 689 537 689 c 1,25,-1
 558 688 l 1,26,27
 633 688 633 688 708 688 c 1,28,-1
 716 685 l 1,29,30
 717 644 717 644 718 609 c 128,-1,31
 719 574 719 574 718.5 555 c 128,-1,32
 718 536 718 536 718 512 c 2,33,-1
 718 409 l 1,34,-1
 720 223 l 1,35,-1
 720 85 l 2,36,37
 720 80 720 80 722 76 c 1,38,-1
 722 41 l 1,39,40
 719 26 719 26 703 26 c 2,41,-1
 674 26 l 1,42,43
 642 24 642 24 578 24 c 2,44,-1
 412 24 l 1,45,46
 406 26 406 26 389 66 c 1,47,-1
 323 250 l 2,48,49
 305 299 305 299 290 348 c 1,50,-1
 288 351 l 1,51,-1
 288 348 l 1,52,53
 286 298 286 298 286 249 c 128,-1,54
 286 200 286 200 284 152 c 1,55,-1
 282 50 l 1,56,-1
 282 38 l 2,57,58
 282 22 282 22 262 18 c 1,0,-1
EndSplineSet
EndChar

StartChar: o
Encoding: 111 111 82
Width: 727
GlyphClass: 2
Flags: W
LayerCount: 2
Fore
SplineSet
9 362 m 1,0,-1
 10 373 l 1,1,2
 27 539 27 539 97 612 c 1,3,-1
 109 624 l 1,4,5
 129 648 129 648 182 672 c 1,6,-1
 201 680 l 2,7,8
 269 708 269 708 308.5 708 c 128,-1,9
 348 708 348 708 359.5 708.5 c 128,-1,10
 371 709 371 709 382 709 c 0,11,12
 431 709 431 709 503.5 687 c 128,-1,13
 576 665 576 665 619 610 c 1,14,-1
 629 596 l 1,15,16
 701 506 701 506 701 372.5 c 128,-1,17
 701 239 701 239 676.5 196.5 c 128,-1,18
 652 154 652 154 635 132 c 2,19,-1
 615 107 l 2,20,21
 535 7 535 7 349 7 c 128,-1,22
 163 7 163 7 66 142 c 1,23,24
 19 220 19 220 10 332 c 1,25,-1
 9 362 l 1,0,-1
432 376 m 2,26,27
 432 528 432 528 358.5 528 c 128,-1,28
 285 528 285 528 285 380 c 2,29,-1
 285 358 l 2,30,31
 285 182 285 182 352 182 c 0,32,33
 432 182 432 182 432 358 c 2,34,-1
 432 376 l 2,26,27
EndSplineSet
EndChar

StartChar: p
Encoding: 112 112 83
Width: 683
GlyphClass: 2
Flags: W
LayerCount: 2
Fore
SplineSet
196 687 m 1,0,-1
 264 694 l 1,1,-1
 420 688 l 1,2,-1
 464 688 l 2,3,4
 625 688 625 688 670 520 c 0,5,6
 676 494 676 494 676 450 c 0,7,8
 676 358 676 358 576 277 c 1,9,10
 514 244 514 244 428 240 c 1,11,-1
 412 238 l 2,12,13
 400 236 400 236 380 236 c 2,14,-1
 332 236 l 2,15,16
 330 236 330 236 327 235 c 1,17,18
 327 104 327 104 331 37 c 1,19,20
 328 20 328 20 292 20 c 2,21,-1
 56 20 l 1,22,23
 53 28 53 28 51 36 c 2,24,-1
 46 51 l 1,25,-1
 46 206 l 2,26,27
 46 218 46 218 48 228 c 1,28,-1
 48 353 l 1,29,-1
 49 670 l 2,30,31
 49 686 49 686 67.5 685 c 128,-1,32
 86 684 86 684 96 686 c 1,33,-1
 148 686 l 1,34,35
 164 688 164 688 180 688 c 1,36,-1
 188 687 l 1,37,-1
 196 687 l 1,0,-1
426 468 m 0,38,39
 426 538 426 538 317 538 c 2,40,-1
 313 538 l 1,41,-1
 308 530 l 1,42,-1
 308 495 l 1,43,-1
 306 478 l 2,44,45
 303 449 303 449 303 437 c 2,46,47
 303 437 303 437 303 421 c 1,48,49
 303 421 303 421 315 385 c 1,50,51
 314 385 314 385 314 387 c 1,52,53
 316 386 316 386 320 386 c 0,54,55
 426 386 426 386 426 468 c 0,38,39
EndSplineSet
EndChar

StartChar: q
Encoding: 113 113 84
Width: 727
GlyphClass: 2
Flags: W
LayerCount: 2
Fore
SplineSet
601 22 m 1,0,-1
 344 4 l 1,1,2
 264 4 264 4 202 32 c 1,3,-1
 192 36 l 1,4,-1
 150 62 l 1,5,-1
 139 72 l 1,6,-1
 130 78 l 1,7,-1
 121 87 l 1,8,-1
 113 96 l 1,9,-1
 98 122 l 2,10,11
 92 133 92 133 84 141 c 1,12,-1
 82 142 l 1,13,-1
 75 154 l 2,14,15
 18 250 18 250 18 330 c 0,16,17
 18 531 18 531 135 638 c 1,18,-1
 164 661 l 2,19,20
 180 674 180 674 198 680 c 2,21,-1
 235 692 l 2,22,23
 289 710 289 710 356 710 c 2,24,-1
 376 710 l 2,25,26
 540 710 540 710 623 614.5 c 128,-1,27
 706 519 706 519 706 378 c 2,28,-1
 706 366 l 1,29,-1
 705 366 l 1,30,31
 701 268 701 268 655 210 c 1,32,-1
 710 210 l 1,33,-1
 728 193 l 1,34,-1
 729 156 l 1,35,-1
 729 150 l 1,36,37
 730 148 730 148 730 145 c 2,38,-1
 731 34 l 1,39,40
 727 19 727 19 713 16 c 1,41,-1
 601 22 l 1,0,-1
352 538 m 0,42,43
 282 538 282 538 282 367 c 2,44,-1
 282 326 l 2,45,46
 282 180 282 180 357 180 c 2,47,-1
 358 180 l 2,48,49
 438 180 438 180 438 326 c 2,50,-1
 438 406 l 2,51,52
 438 537 438 537 360 537 c 1,53,54
 356 538 356 538 352 538 c 0,42,43
EndSplineSet
EndChar

StartChar: r
Encoding: 114 114 85
Width: 701
GlyphClass: 2
Flags: W
LayerCount: 2
Fore
SplineSet
42 480 m 1,0,1
 40 504 40 504 40 538 c 2,2,-1
 42 607 l 1,3,4
 42 678 42 678 48 684 c 1,5,-1
 48 683 l 1,6,7
 50 688 50 688 58 688 c 2,8,-1
 139 688 l 1,9,10
 399 692 399 692 422 692 c 0,11,12
 578 692 578 692 609 659 c 0,13,14
 676 587 676 587 676 501.5 c 128,-1,15
 676 416 676 416 572 364 c 1,16,17
 644 334 644 334 658 248 c 0,18,19
 662 224 662 224 671.5 153.5 c 128,-1,20
 681 83 681 83 689.5 65.5 c 128,-1,21
 698 48 698 48 698 37 c 128,-1,22
 698 26 698 26 687 26 c 2,23,-1
 506 25 l 1,24,25
 488 26 488 26 471 26 c 2,26,-1
 436 26 l 1,27,28
 412 33 412 33 398 162 c 1,29,-1
 392 209 l 1,30,31
 382 248 382 248 349 248 c 2,32,-1
 326 248 l 1,33,-1
 326 172 l 1,34,-1
 328 118 l 1,35,-1
 328 48 l 2,36,37
 328 20 328 20 315 20 c 2,38,-1
 294 20 l 1,39,40
 279 21 279 21 266 21 c 2,41,-1
 259 21 l 1,42,43
 253 20 253 20 243.5 20 c 128,-1,44
 234 20 234 20 218 21 c 2,45,-1
 172 22 l 1,46,-1
 121 20 l 1,47,-1
 60 20 l 1,48,-1
 50 24 l 1,49,-1
 44 28 l 1,50,-1
 44 100 l 1,51,-1
 46 238 l 1,52,-1
 46 298 l 1,53,-1
 47 321 l 1,54,-1
 46 348 l 1,55,-1
 46 368 l 1,56,-1
 48 417 l 1,57,-1
 48 431 l 1,58,-1
 46 464 l 1,59,-1
 46 480 l 1,60,-1
 42 480 l 1,0,1
436 486 m 0,61,62
 436 538 436 538 336 538 c 2,63,-1
 332 538 l 1,64,65
 326 536 326 536 326 530 c 2,66,-1
 326 511 l 1,67,-1
 329 424 l 1,68,-1
 340 412 l 1,69,-1
 348 412 l 2,70,71
 436 412 436 412 436 486 c 0,61,62
EndSplineSet
EndChar

StartChar: s
Encoding: 115 115 86
Width: 657
GlyphClass: 2
Flags: W
LayerCount: 2
Fore
SplineSet
372 470 m 1,0,-1
 435 455 l 1,1,2
 547 424 547 424 595 372.5 c 128,-1,3
 643 321 643 321 643 242 c 128,-1,4
 643 163 643 163 612.5 124.5 c 128,-1,5
 582 86 582 86 557 68 c 0,6,7
 474 8 474 8 304 8 c 0,8,9
 169 8 169 8 107 56 c 1,10,-1
 98 62 l 1,11,12
 12 126 12 126 17 218 c 1,13,14
 17 238 17 238 25 238 c 2,15,-1
 48 237 l 1,16,-1
 94 237 l 1,17,18
 104 238 104 238 114 238 c 0,19,20
 171 238 171 238 218.5 238 c 128,-1,21
 266 238 266 238 270 233.5 c 128,-1,22
 274 229 274 229 277.5 222.5 c 128,-1,23
 281 216 281 216 284 208 c 0,24,25
 293 179 293 179 332 179 c 2,26,-1
 335 179 l 2,27,28
 381 179 381 179 383 219 c 1,29,30
 382 246 382 246 326 260 c 2,31,-1
 224 286 l 1,32,33
 63 333 63 333 31 417 c 0,34,35
 18 452 18 452 18 476 c 0,36,37
 18 584 18 584 93 644.5 c 128,-1,38
 168 705 168 705 236 709.5 c 128,-1,39
 304 714 304 714 342 714 c 0,40,41
 510 714 510 714 572 638 c 1,42,-1
 591 616 l 1,43,44
 617 590 617 590 621.5 558 c 128,-1,45
 626 526 626 526 628 512 c 1,46,-1
 620 504 l 1,47,-1
 614 496 l 1,48,-1
 610 492 l 1,49,-1
 529 492 l 1,50,-1
 432 494 l 1,51,-1
 418 494 l 2,52,53
 400 494 400 494 395 507 c 0,54,55
 388 526 388 526 374.5 530 c 128,-1,56
 361 534 361 534 322.5 534 c 128,-1,57
 284 534 284 534 284 518 c 128,-1,58
 284 502 284 502 293 496 c 128,-1,59
 302 490 302 490 314.5 486.5 c 128,-1,60
 327 483 327 483 340.5 480.5 c 128,-1,61
 354 478 354 478 362 474 c 2,62,-1
 372 470 l 1,0,-1
EndSplineSet
EndChar

StartChar: t
Encoding: 116 116 87
Width: 584
GlyphClass: 2
Flags: W
LayerCount: 2
Fore
SplineSet
10 686 m 1,0,-1
 163 688 l 1,1,-1
 324 688 l 2,2,3
 404 688 404 688 466.5 689 c 128,-1,4
 529 690 529 690 576 690 c 1,5,6
 588 687 588 687 588 666 c 2,7,-1
 588 506 l 1,8,9
 586 494 586 494 545 494 c 2,10,-1
 434 494 l 1,11,-1
 433 458 l 1,12,-1
 433 418 l 1,13,-1
 432 370 l 1,14,-1
 432 260 l 1,15,-1
 434 122 l 1,16,-1
 435 34 l 1,17,18
 431 19 431 19 416 18 c 1,19,-1
 384 18 l 2,20,21
 320 18 320 18 320 22 c 1,22,-1
 296 21 l 1,23,-1
 256 21 l 1,24,-1
 190 20 l 1,25,-1
 162 18 l 1,26,-1
 146 34 l 2,27,28
 142 38 142 38 141 50 c 1,29,-1
 141 58 l 2,30,31
 141 62 141 62 142 66 c 2,32,-1
 144 142 l 2,33,34
 146 210 146 210 148 277 c 128,-1,35
 150 344 150 344 150 416 c 1,36,-1
 151 429 l 1,37,-1
 150 429 l 1,38,-1
 151 454 l 1,39,-1
 150 480 l 1,40,-1
 150 490 l 1,41,-1
 112 490 l 1,42,-1
 33 491 l 1,43,44
 28 490 28 490 24 490 c 2,45,-1
 16 490 l 2,46,47
 -6 490 -6 490 -6 506 c 2,48,-1
 -6 676 l 2,49,50
 -6 688 -6 688 0 688 c 128,-1,51
 6 688 6 688 10 686 c 1,0,-1
EndSplineSet
EndChar

StartChar: u
Encoding: 117 117 88
Width: 725
GlyphClass: 2
Flags: W
LayerCount: 2
Fore
SplineSet
356 14 m 1,0,1
 356 10 356 10 350 10 c 2,2,-1
 341 10 l 1,3,-1
 338 9 l 1,4,5
 312 9 312 9 277 14 c 1,6,-1
 254 16 l 2,7,8
 114 28 114 28 59 156 c 0,9,10
 42 196 42 196 40 251 c 1,11,-1
 43 480 l 1,12,-1
 43 494 l 1,13,-1
 44 510 l 1,14,-1
 42 555 l 1,15,-1
 42 572 l 1,16,-1
 49 571 l 1,17,18
 40 616 40 616 40 647 c 128,-1,19
 40 678 40 678 50 688 c 1,20,21
 57 688 57 688 64 688 c 2,22,-1
 93 690 l 1,23,-1
 108 690 l 2,24,25
 116 690 116 690 124 691 c 1,26,-1
 138 691 l 1,27,-1
 153 692 l 1,28,29
 153 692 153 692 268 692 c 0,30,31
 322 692 322 692 322 682 c 2,32,-1
 324 596 l 2,33,34
 324 554 324 554 324 512 c 2,35,-1
 322 306 l 1,36,-1
 322 272 l 2,37,38
 322 207 322 207 359.5 207 c 128,-1,39
 397 207 397 207 397 255 c 2,40,-1
 400 462 l 1,41,-1
 400 572 l 1,42,-1
 399 663 l 2,43,44
 399 690 399 690 412 696 c 1,45,46
 669 696 669 696 672.5 692 c 128,-1,47
 676 688 676 688 678 687 c 2,48,-1
 690 680 l 1,49,-1
 688 618 l 2,50,51
 685 554 685 554 684.5 495 c 128,-1,52
 684 436 684 436 682 374 c 1,53,-1
 682 343 l 1,54,-1
 681 313 l 2,55,56
 681 296 681 296 686 266 c 1,57,-1
 686 250 l 2,58,59
 686 190 686 190 668 150 c 1,60,-1
 668 148 l 1,61,62
 638 77 638 77 550 40 c 1,63,64
 492 12 492 12 442 12 c 2,65,-1
 384 12 l 2,66,67
 376 12 376 12 368 15 c 1,68,-1
 356 14 l 1,0,1
EndSplineSet
EndChar

StartChar: v
Encoding: 118 118 89
Width: 696
GlyphClass: 2
Flags: W
LayerCount: 2
Fore
SplineSet
593 690 m 1,0,-1
 688 692 l 1,1,-1
 696 685 l 1,2,3
 703 681 703 681 706 674 c 1,4,-1
 626 387 l 1,5,6
 622 381 622 381 622 373 c 2,7,-1
 620 356 l 2,8,9
 617 336 617 336 609 322 c 1,10,-1
 610 322 l 1,11,-1
 598 286 l 2,12,13
 598 284 598 284 597 284 c 2,14,-1
 593 276 l 1,15,16
 573 194 573 194 547 114 c 1,17,-1
 536 72 l 1,18,19
 524 22 524 22 506 22 c 2,20,-1
 412 24 l 1,21,-1
 375 24 l 2,22,23
 358 24 358 24 346 23 c 2,24,-1
 264 20 l 2,25,26
 245 19 245 19 223 19 c 2,27,-1
 182 18 l 1,28,-1
 164 28 l 1,29,30
 150 86 150 86 132 143 c 128,-1,31
 114 200 114 200 100 258 c 1,32,-1
 94 279 l 2,33,34
 87 306 87 306 79.5 333 c 128,-1,35
 72 360 72 360 65 388 c 2,36,-1
 58 414 l 1,37,38
 52 431 52 431 48.5 448.5 c 128,-1,39
 45 466 45 466 40 484 c 2,40,-1
 31 515 l 2,41,42
 29 523 29 523 26.5 530.5 c 128,-1,43
 24 538 24 538 22 545 c 2,44,-1
 13 578 l 2,45,46
 6 601 6 601 0 625 c 2,47,-1
 -12 672 l 1,48,-1
 -12 674 l 2,49,50
 -12 685 -12 685 1 688 c 1,51,-1
 1 690 l 1,52,-1
 180 692 l 1,53,-1
 262 692 l 2,54,55
 268 692 268 692 271 689 c 2,56,-1
 280 680 l 1,57,58
 283 661 283 661 285.5 645.5 c 128,-1,59
 288 630 288 630 290 614 c 2,60,-1
 296 582 l 1,61,62
 298 562 298 562 301.5 542 c 128,-1,63
 305 522 305 522 308 500 c 2,64,-1
 312 474 l 1,65,66
 316 438 316 438 322 404 c 2,67,-1
 338 311 l 2,68,69
 341 292 341 292 343.5 272.5 c 128,-1,70
 346 253 346 253 351 237 c 1,71,-1
 352 239 l 1,72,-1
 353 242 l 1,73,-1
 358 265 l 2,74,75
 360 276 360 276 362 286 c 128,-1,76
 364 296 364 296 366 306 c 2,77,-1
 370 330 l 1,78,79
 380 367 380 367 382 388 c 1,80,-1
 386 410 l 1,81,-1
 390 440 l 1,82,-1
 414 566 l 2,83,84
 418 582 418 582 420 598 c 2,85,-1
 426 633 l 2,86,87
 434 684 434 684 443 686 c 128,-1,88
 452 688 452 688 460 688 c 2,89,-1
 528 690 l 1,90,-1
 593 690 l 1,0,-1
EndSplineSet
EndChar

StartChar: w
Encoding: 119 119 90
Width: 953
GlyphClass: 2
Flags: W
LayerCount: 2
Fore
SplineSet
806 28 m 1,0,1
 784 26 784 26 728 26 c 2,2,-1
 598 26 l 2,3,4
 524 26 524 26 524 29.5 c 128,-1,5
 524 33 524 33 525 34 c 1,6,-1
 513 101 l 1,7,-1
 505 142 l 2,8,9
 502 162 502 162 498 183 c 2,10,-1
 492 214 l 1,11,-1
 482 279 l 2,12,13
 479 295 479 295 477 312 c 2,14,-1
 472 348 l 1,15,16
 462 288 462 288 454 228 c 2,17,-1
 435 82 l 2,18,19
 433 71 433 71 432 60 c 0,20,21
 426 18 426 18 406 18 c 0,22,23
 322 21 322 21 296 21 c 2,24,-1
 136 18 l 1,25,-1
 120 28 l 1,26,27
 112 56 112 56 107 84 c 128,-1,28
 102 112 102 112 94 140 c 1,29,-1
 72 247 l 1,30,-1
 64 280 l 2,31,32
 53 322 53 322 30 444 c 1,33,-1
 28 456 l 1,34,35
 18 500 18 500 8 547 c 2,36,-1
 -10 640 l 1,37,-1
 -16 675 l 1,38,39
 -16 687 -16 687 0 694 c 1,40,41
 10 692 10 692 24 692 c 2,42,-1
 52 692 l 2,43,44
 64 692 64 692 64 694 c 1,45,-1
 81 694 l 1,46,-1
 98 695 l 1,47,-1
 112 695 l 1,48,-1
 144 696 l 1,49,-1
 177 696 l 1,50,-1
 179 694 l 1,51,-1
 209 694 l 2,52,53
 241 694 241 694 243 670 c 2,54,-1
 258 546 l 2,55,56
 266 479 266 479 268 454 c 1,57,-1
 271 436 l 1,58,59
 274 427 274 427 274 410 c 1,60,-1
 276 394 l 2,61,62
 278 386 278 386 278 378 c 0,63,64
 278 361 278 361 282 353 c 1,65,66
 286 369 286 369 287 386.5 c 128,-1,67
 288 404 288 404 292 422 c 1,68,-1
 298 462 l 2,69,70
 302 483 302 483 305 503.5 c 128,-1,71
 308 524 308 524 312 546 c 2,72,-1
 332 680 l 1,73,74
 336 688 336 688 344 689 c 1,75,-1
 394 688 l 1,76,-1
 607 688 l 2,77,78
 616 688 616 688 620 680 c 1,79,-1
 627 629 l 2,80,81
 628 621 628 621 629 612.5 c 128,-1,82
 630 604 630 604 631 596 c 2,83,-1
 647 478 l 1,84,85
 650 468 650 468 650 450 c 1,86,-1
 666 339 l 1,87,-1
 668 334 l 2,88,89
 668 336 668 336 668 338 c 128,-1,90
 668 340 668 340 670 341 c 1,91,-1
 678 427 l 1,92,-1
 692 546 l 1,93,-1
 696 568 l 2,94,95
 697 575 697 575 697.5 582.5 c 128,-1,96
 698 590 698 590 699 597 c 2,97,-1
 712 680 l 1,98,99
 716 692 716 692 742 692 c 2,100,-1
 778 692 l 1,101,-1
 870 690 l 1,102,-1
 894 691 l 2,103,104
 913 691 913 691 916 688 c 1,105,106
 960 688 960 688 964 664 c 1,107,-1
 964 662 l 1,108,-1
 910 426 l 2,109,110
 905 401 905 401 902 383 c 128,-1,111
 899 365 899 365 896.5 357.5 c 128,-1,112
 894 350 894 350 891 340 c 2,113,-1
 887 324 l 2,114,115
 884 312 884 312 882 309 c 1,116,-1
 820 36 l 2,117,118
 818 28 818 28 813 27 c 1,119,-1
 806 28 l 1,0,1
EndSplineSet
EndChar

StartChar: x
Encoding: 120 120 91
Width: 708
GlyphClass: 2
Flags: W
LayerCount: 2
Fore
SplineSet
44 24 m 1,0,1
 -16 24 -16 24 -16 34 c 0,2,3
 -16 55 -16 55 16 102 c 2,4,-1
 32 126 l 1,5,-1
 32 125 l 1,6,-1
 52 157 l 2,7,8
 63 174 63 174 75 190 c 1,9,-1
 128 272 l 2,10,11
 138 289 138 289 150 306.5 c 128,-1,12
 162 324 162 324 174 342 c 2,13,-1
 182 355 l 1,14,15
 182 358 182 358 186 362 c 1,16,-1
 100 498 l 2,17,18
 98 503 98 503 94 508 c 2,19,-1
 88 517 l 1,20,-1
 80 532 l 1,21,-1
 64 557 l 2,22,23
 60 564 60 564 56 572 c 2,24,-1
 47 590 l 2,25,26
 43 596 43 596 40 602 c 2,27,-1
 22 636 l 1,28,-1
 15 646 l 2,29,30
 12 652 12 652 8 659 c 1,31,-1
 8 658 l 1,32,-1
 0 671 l 2,33,34
 -1 674 -1 674 -1 679 c 128,-1,35
 -1 684 -1 684 9 690 c 1,36,-1
 36 690 l 2,37,38
 80 690 80 690 126 691 c 0,39,40
 139 691 139 691 161.5 691 c 128,-1,41
 184 691 184 691 214 688 c 1,42,-1
 234 688 l 1,43,-1
 262 687 l 1,44,-1
 276 688 l 1,45,46
 289 685 289 685 310 633.5 c 128,-1,47
 331 582 331 582 339 564 c 2,48,-1
 356 529 l 2,49,50
 358 525 358 525 358 524.5 c 128,-1,51
 358 524 358 524 360 520 c 1,52,-1
 405 618 l 1,53,-1
 422 652 l 2,54,55
 441 688 441 688 446 688 c 1,56,-1
 452 686 l 1,57,-1
 580 688 l 2,58,59
 602 688 602 688 634 690 c 2,60,-1
 666 692 l 2,61,62
 673 693 673 693 677.5 692.5 c 128,-1,63
 682 692 682 692 688 692 c 2,64,-1
 701 692 l 1,65,66
 714 691 714 691 714 663 c 1,67,-1
 692 630 l 2,68,69
 685 620 685 620 679.5 610.5 c 128,-1,70
 674 601 674 601 668 591 c 2,71,-1
 524 368 l 1,72,-1
 517 359 l 1,73,-1
 574 270 l 1,74,75
 580 264 580 264 584 256 c 1,76,-1
 604 226 l 2,77,78
 618 204 618 204 634 182 c 128,-1,79
 650 160 650 160 662 139 c 1,80,-1
 722 51 l 2,81,82
 724 47 724 47 724 42 c 0,83,84
 724 22 724 22 698 22 c 2,85,-1
 662 22 l 2,86,87
 650 22 650 22 646 21 c 2,88,-1
 586 20 l 1,89,-1
 545 18 l 1,90,91
 444 18 444 18 426 27 c 1,92,-1
 348 188 l 1,93,-1
 344 194 l 1,94,-1
 296 94 l 1,95,96
 264 30 264 30 246 21 c 1,97,-1
 142 22 l 1,98,-1
 124 22 l 1,99,-1
 44 24 l 1,0,1
EndSplineSet
EndChar

StartChar: y
Encoding: 121 121 92
Width: 683
GlyphClass: 2
Flags: W
LayerCount: 2
Fore
SplineSet
31 574 m 1,0,1
 -16 668 -16 668 -16 679 c 128,-1,2
 -16 690 -16 690 8 690 c 2,3,-1
 100 690 l 2,4,5
 114 690 114 690 133 691 c 1,6,-1
 196 691 l 1,7,-1
 250 690 l 1,8,-1
 259 690 l 1,9,10
 267 686 267 686 274 686 c 1,11,-1
 287 640 l 2,12,13
 292 619 292 619 300 598 c 2,14,-1
 312 564 l 1,15,16
 316 549 316 549 321 535.5 c 128,-1,17
 326 522 326 522 330 508 c 2,18,-1
 351 443 l 1,19,-1
 422 645 l 2,20,21
 424 653 424 653 428 661.5 c 128,-1,22
 432 670 432 670 434.5 680.5 c 128,-1,23
 437 691 437 691 488 691 c 1,24,-1
 508 690 l 1,25,-1
 512 690 l 1,26,-1
 592 691 l 1,27,-1
 653 692 l 1,28,-1
 679 692 l 1,29,30
 694 691 694 691 700 668 c 1,31,-1
 692 654 l 1,32,-1
 692 653 l 1,33,-1
 686 640 l 2,34,35
 686 639 686 639 685 638 c 2,36,-1
 659 591 l 2,37,38
 646 569 646 569 634 546 c 2,39,-1
 625 530 l 1,40,-1
 626 530 l 1,41,-1
 592 464 l 2,42,43
 587 454 587 454 538.5 362.5 c 128,-1,44
 490 271 490 271 482 252 c 1,45,-1
 482 223 l 2,46,47
 482 202 482 202 482.5 179.5 c 128,-1,48
 483 157 483 157 483.5 134.5 c 128,-1,49
 484 112 484 112 484 91 c 2,50,-1
 484 37 l 1,51,52
 480 22 480 22 465 20 c 1,53,-1
 401 19 l 1,54,-1
 210 19 l 1,55,-1
 194 40 l 1,56,57
 194 43 194 43 193 46 c 1,58,-1
 193 53 l 1,59,-1
 194 73 l 1,60,-1
 194 219 l 2,61,62
 194 234 194 234 193 249 c 1,63,-1
 132 380 l 2,64,65
 127 392 127 392 123.5 398 c 128,-1,66
 120 404 120 404 118 402 c 1,67,-1
 106 423 l 2,68,69
 92 446 92 446 71 492 c 1,70,-1
 44 544 l 1,71,-1
 45 544 l 1,72,73
 40 552 40 552 36 562 c 128,-1,74
 32 572 32 572 30 574 c 1,75,-1
 31 574 l 1,0,1
EndSplineSet
EndChar

StartChar: z
Encoding: 122 122 93
Width: 621
GlyphClass: 2
Flags: W
LayerCount: 2
Fore
SplineSet
174 20 m 1,0,-1
 68 18 l 1,1,2
 68 18 68 18 41 18 c 0,3,4
 28 18 28 18 19 19 c 1,5,-1
 11 29 l 2,6,7
 6 34 6 34 4 42 c 1,8,-1
 4 73 l 1,9,-1
 5 104 l 1,10,-1
 5 130 l 1,11,-1
 6 173 l 2,12,13
 6 196 6 196 10 200 c 1,14,-1
 8 200 l 1,15,-1
 214 448 l 1,16,-1
 235 471 l 1,17,-1
 255 496 l 1,18,-1
 257 499 l 1,19,-1
 254 499 l 2,20,21
 184 499 184 499 108 497 c 1,22,-1
 95 497 l 1,23,-1
 62 496 l 1,24,-1
 30 496 l 1,25,26
 18 502 18 502 18 513 c 2,27,-1
 18 667 l 2,28,29
 18 687 18 687 24 687 c 128,-1,30
 30 687 30 687 90.5 686.5 c 128,-1,31
 151 686 151 686 268 686 c 1,32,-1
 498 689 l 1,33,-1
 530 689 l 1,34,-1
 545 690 l 1,35,-1
 572 690 l 2,36,37
 597 690 597 690 597 657 c 1,38,-1
 595 632 l 2,39,40
 595 630 595 630 597 626 c 1,41,-1
 594 520 l 1,42,43
 590 510 590 510 590 508 c 2,44,-1
 587 500 l 1,45,-1
 386 270 l 1,46,-1
 364 242 l 1,47,-1
 340 216 l 1,48,49
 410 216 410 216 480 216 c 1,50,-1
 590 218 l 2,51,52
 606 218 606 218 606 176 c 2,53,-1
 606 74 l 1,54,-1
 608 46 l 1,55,56
 608 22 608 22 578 22 c 2,57,-1
 548 22 l 1,58,-1
 336 20 l 1,59,-1
 174 20 l 1,0,-1
EndSplineSet
EndChar

StartChar: braceleft
Encoding: 123 123 94
Width: 516
GlyphClass: 2
Flags: W
LayerCount: 2
Fore
SplineSet
432 31 m 2,0,1
 456 31 456 31 456 12 c 2,2,-1
 456 -52 l 2,3,4
 456 -149 456 -149 442 -156 c 1,5,6
 423 -155 423 -155 404.5 -154.5 c 128,-1,7
 386 -154 386 -154 366 -153 c 2,8,-1
 352 -152 l 1,9,10
 231 -152 231 -152 198 -132 c 0,11,12
 123 -89 123 -89 121.5 -27.5 c 128,-1,13
 120 34 120 34 120 67 c 2,14,-1
 120 122 l 2,15,16
 120 184 120 184 104 191 c 128,-1,17
 88 198 88 198 75.5 200 c 128,-1,18
 63 202 63 202 54.5 202.5 c 128,-1,19
 46 203 46 203 39 204.5 c 128,-1,20
 32 206 32 206 27 210 c 128,-1,21
 22 214 22 214 22 300.5 c 128,-1,22
 22 387 22 387 34 393 c 1,23,24
 112 393 112 393 118 437 c 1,25,-1
 118 565 l 1,26,-1
 117 581 l 1,27,28
 117 756 117 756 336 756 c 1,29,-1
 398 757 l 2,30,31
 406 757 406 757 418 757 c 128,-1,32
 430 757 430 757 444 756 c 1,33,-1
 462 739 l 1,34,-1
 461 575 l 1,35,36
 458 559 458 559 442 559 c 2,37,-1
 410 560 l 1,38,39
 364 560 364 560 364 512 c 1,40,-1
 362 478 l 1,41,-1
 362 394 l 2,42,43
 362 330 362 330 282 296 c 1,44,-1
 299 290 l 1,45,46
 352 266 352 266 356.5 224 c 128,-1,47
 361 182 361 182 361 152 c 2,48,-1
 361 134 l 1,49,-1
 360 98 l 1,50,51
 360 43 360 43 382 37 c 128,-1,52
 404 31 404 31 426 31 c 2,53,-1
 432 31 l 2,0,1
EndSplineSet
EndChar

StartChar: bar
Encoding: 124 124 95
Width: 246
GlyphClass: 2
Flags: W
LayerCount: 2
Fore
SplineSet
208 -20 m 1,0,1
 203 -40 203 -40 162 -40 c 2,2,3
 162 -40 162 -40 94 -40 c 0,4,5
 68 -40 68 -40 51 -37 c 1,6,-1
 35 -20 l 1,7,-1
 44 740 l 1,8,-1
 44 756 l 2,9,10
 44 766 44 766 52 774 c 1,11,12
 70 774 70 774 86 775 c 1,13,-1
 155 775 l 1,14,15
 173 774 173 774 190 774 c 1,16,17
 199 772 199 772 199 758 c 2,18,-1
 198 731 l 1,19,-1
 200 567 l 2,20,21
 202 356 202 356 206 144 c 1,22,-1
 208 -20 l 1,0,1
EndSplineSet
EndChar

StartChar: braceright
Encoding: 125 125 96
Width: 517
GlyphClass: 2
Flags: W
LayerCount: 2
Fore
SplineSet
126 746 m 1,0,-1
 132 747 l 1,1,-1
 168 747 l 2,2,3
 277 747 277 747 308 728 c 0,4,5
 388 678 388 678 388 552 c 2,6,-1
 388 530 l 1,7,-1
 385 440 l 1,8,9
 385 392 385 392 462 392 c 2,10,-1
 470 392 l 1,11,12
 483 389 483 389 483 375 c 2,13,-1
 482 298 l 1,14,-1
 483 215 l 1,15,16
 481 203 481 203 451.5 200.5 c 128,-1,17
 422 198 422 198 405 193 c 128,-1,18
 388 188 388 188 388 161 c 2,19,-1
 388 148 l 2,20,21
 388 141 388 141 389 134 c 2,22,-1
 390 102 l 1,23,24
 392 74 392 74 392 27 c 0,25,26
 392 -74 392 -74 340 -122 c 1,27,28
 274 -160 274 -160 265 -160 c 0,29,30
 197 -160 197 -160 138.5 -160 c 128,-1,31
 80 -160 80 -160 60 -162 c 1,32,-1
 43 -138 l 1,33,34
 46 -21 46 -21 46 5.5 c 128,-1,35
 46 32 46 32 61 34 c 1,36,-1
 89 34 l 2,37,38
 142 34 142 34 142 86 c 2,39,-1
 141 156 l 1,40,41
 144 253 144 253 184 278 c 1,42,43
 200 290 200 290 226 298 c 1,44,45
 143 323 143 323 144 423 c 0,46,47
 145 450 145 450 145.5 473 c 128,-1,48
 146 496 146 496 146 510 c 0,49,50
 146 562 146 562 84 562 c 0,51,52
 50 562 50 562 50 574 c 2,53,-1
 51 664 l 1,54,-1
 50 716 l 2,55,56
 50 741 50 741 60 748 c 1,57,58
 75 747 75 747 89 747 c 0,59,60
 102 747 102 747 114 747 c 2,61,-1
 126 746 l 1,0,-1
EndSplineSet
EndChar

StartChar: asciitilde
Encoding: 126 126 97
Width: 651
GlyphClass: 2
Flags: W
LayerCount: 2
Fore
SplineSet
325 185 m 1,0,1
 259 218 259 218 217.5 218 c 128,-1,2
 176 218 176 218 141 156 c 1,3,4
 121 158 121 158 106 162 c 1,5,6
 102 174 102 174 97 188 c 2,7,-1
 86 219 l 2,8,9
 72 256 72 256 72 280 c 1,10,11
 111 339 111 339 138.5 360 c 128,-1,12
 166 381 166 381 217 381 c 128,-1,13
 268 381 268 381 312 355.5 c 128,-1,14
 356 330 356 330 372 323 c 128,-1,15
 388 316 388 316 404 311 c 128,-1,16
 420 306 420 306 434 306 c 0,17,18
 468 306 468 306 498 347 c 2,19,-1
 514 368 l 1,20,21
 512 376 512 376 510 385 c 1,22,-1
 521 374 l 1,23,24
 524 376 524 376 526 376 c 128,-1,25
 528 376 528 376 533 368 c 128,-1,26
 538 360 538 360 543 348 c 0,27,28
 572 282 572 282 572 253 c 2,29,-1
 572 245 l 1,30,31
 570 243 570 243 570 240 c 1,32,33
 505 152 505 152 434 152 c 0,34,35
 401 152 401 152 337 180 c 1,36,-1
 325 185 l 1,0,1
EndSplineSet
EndChar

StartChar: exclamdown
Encoding: 161 161 99
Width: 392
GlyphClass: 2
Flags: W
LayerCount: 2
Fore
SplineSet
49 -200 m 1,0,1
 46 -199 46 -199 30 -186 c 1,2,3
 36 -136 36 -136 40 -87 c 128,-1,4
 44 -38 44 -38 50.5 20.5 c 128,-1,5
 57 79 57 79 60 135 c 1,6,-1
 66 208 l 2,7,8
 77 340 77 340 83.5 347 c 128,-1,9
 90 354 90 354 96 353 c 1,10,-1
 227 354 l 2,11,12
 293 354 293 354 299 344.5 c 128,-1,13
 305 335 305 335 306.5 326.5 c 128,-1,14
 308 318 308 318 309 305 c 128,-1,15
 310 292 310 292 312 274 c 2,16,-1
 315 245 l 2,17,18
 335 46 335 46 346 -110 c 1,19,-1
 348 -132 l 1,20,-1
 350 -176 l 1,21,22
 346 -194 346 -194 323 -194 c 128,-1,23
 300 -194 300 -194 293 -195 c 2,24,-1
 49 -200 l 1,0,1
205 609 m 1,25,-1
 318 608 l 2,26,27
 330 608 330 608 330 561 c 2,28,-1
 330 434 l 1,29,30
 325 418 325 418 269 418 c 2,31,-1
 180 418 l 2,32,33
 158 418 158 418 74 415 c 1,34,35
 64 426 64 426 56 438 c 1,36,-1
 58 506 l 1,37,-1
 58 534 l 2,38,39
 58 608 58 608 72 608 c 2,40,-1
 205 609 l 1,25,-1
EndSplineSet
EndChar

StartChar: cent
Encoding: 162 162 100
Width: 748
GlyphClass: 2
Flags: W
LayerCount: 2
Fore
SplineSet
665 205 m 1,0,1
 678 204 678 204 677 175 c 128,-1,2
 676 146 676 146 671.5 124 c 128,-1,3
 667 102 667 102 650 78 c 0,4,5
 601 13 601 13 476 -24 c 1,6,7
 478 -62 478 -62 478 -86 c 2,8,-1
 478 -116 l 2,9,10
 478 -138 478 -138 458 -138 c 2,11,-1
 423 -138 l 1,12,-1
 315 -136 l 1,13,-1
 296 -115 l 1,14,-1
 298 -27 l 1,15,-1
 263 -18 l 1,16,17
 66 37 66 37 66 254.5 c 128,-1,18
 66 472 66 472 300 541 c 1,19,-1
 299 643 l 1,20,21
 300 658 300 658 346 658 c 2,22,-1
 381 658 l 2,23,24
 463 658 463 658 466 648 c 1,25,26
 465 630 465 630 465.5 617 c 128,-1,27
 466 604 466 604 466 598 c 2,28,-1
 466 585 l 2,29,30
 466 564 466 564 464 541 c 1,31,32
 649 532 649 532 672 331 c 1,33,34
 672 320 672 320 608 320 c 1,35,-1
 564 321 l 1,36,-1
 460 320 l 2,37,38
 431 320 431 320 428 330 c 1,39,40
 428 400 428 400 391 400 c 0,41,42
 332 400 332 400 332 274 c 2,43,-1
 332 252 l 2,44,45
 332 238 332 238 333.5 182 c 128,-1,46
 335 126 335 126 382 126 c 128,-1,47
 429 126 429 126 438 184 c 1,48,49
 438 198 438 198 442 206 c 1,50,51
 498 205 498 205 554 205 c 2,52,-1
 665 205 l 1,0,1
EndSplineSet
EndChar

StartChar: sterling
Encoding: 163 163 101
Width: 720
GlyphClass: 2
Flags: W
LayerCount: 2
Fore
SplineSet
98 506 m 1,0,1
 98 773 98 773 413 773 c 0,2,3
 604 773 604 773 680 658 c 1,4,5
 709 623 709 623 709 570.5 c 128,-1,6
 709 518 709 518 698 514 c 1,7,8
 470 514 470 514 458 520 c 128,-1,9
 446 526 446 526 444 534 c 128,-1,10
 442 542 442 542 438.5 556 c 128,-1,11
 435 570 435 570 420 569.5 c 128,-1,12
 405 569 405 569 402 569 c 0,13,14
 370 567 370 567 370 504 c 1,15,-1
 372 450 l 1,16,-1
 480 452 l 1,17,-1
 492 452 l 2,18,19
 517 452 517 452 519 440 c 1,20,-1
 520 318 l 2,21,22
 520 298 520 298 509 298 c 2,23,-1
 492 298 l 1,24,-1
 464 300 l 1,25,-1
 426 300 l 2,26,27
 378 300 378 300 376 297 c 0,28,29
 374 292 374 292 373 255 c 128,-1,30
 372 218 372 218 372 206 c 1,31,32
 452 208 452 208 526 208 c 2,33,-1
 552 208 l 1,34,-1
 684 212 l 1,35,36
 700 209 700 209 700 177 c 2,37,-1
 700 163 l 1,38,-1
 702 17 l 2,39,40
 702 -14 702 -14 662 -14 c 2,41,-1
 402 -14 l 2,42,43
 293 -14 293 -14 221 -16 c 1,44,-1
 205 -18 l 2,45,46
 190 -19 190 -19 179 -19 c 2,47,-1
 162 -19 l 1,48,49
 142 -18 142 -18 120 -18 c 2,50,-1
 78 -18 l 2,51,52
 58 -18 58 -18 36 -17 c 1,53,-1
 22 0 l 1,54,55
 22 18 22 18 20 34 c 1,56,-1
 20 66 l 1,57,-1
 18 140 l 1,58,59
 18 188 18 188 35 196 c 1,60,-1
 95 200 l 1,61,62
 96 222 96 222 96 246 c 128,-1,63
 96 270 96 270 97 293 c 1,64,-1
 58 294 l 1,65,-1
 24 293 l 2,66,67
 3 293 3 293 3 312 c 2,68,-1
 4 387 l 1,69,-1
 3 420 l 2,70,71
 3 451 3 451 18 454 c 1,72,-1
 99 454 l 1,73,-1
 98 506 l 1,0,1
EndSplineSet
EndChar

StartChar: currency
Encoding: 164 164 102
Width: 739
GlyphClass: 2
Flags: W
LayerCount: 2
Fore
SplineSet
588 492 m 1,0,1
 640 427 640 427 640 315.5 c 128,-1,2
 640 204 640 204 599 142 c 1,3,-1
 636 103 l 2,4,5
 666 70 666 70 684 37 c 1,6,-1
 674 29 l 2,7,8
 668 25 668 25 662 24 c 1,9,-1
 658 20 l 1,10,11
 654 18 654 18 648 18 c 0,12,13
 634 18 634 18 607 50 c 1,14,-1
 563 97 l 1,15,16
 505 39 505 39 399 29 c 1,17,-1
 376 28 l 1,18,19
 372 29 372 29 340 33 c 0,20,21
 261 43 261 43 210 84 c 1,22,-1
 178 50 l 1,23,24
 148 16 148 16 140 16 c 128,-1,25
 132 16 132 16 125 21 c 128,-1,26
 118 26 118 26 112 29 c 1,27,-1
 102 37 l 1,28,29
 118 68 118 68 150 103 c 1,30,-1
 172 126 l 1,31,32
 159 144 159 144 146 176 c 2,33,-1
 140 192 l 1,34,35
 118 243 118 243 118 342.5 c 128,-1,36
 118 442 118 442 182 509 c 1,37,-1
 132 561 l 2,38,39
 104 589 104 589 104 596 c 128,-1,40
 104 603 104 603 109 607.5 c 128,-1,41
 114 612 114 612 120 616 c 128,-1,42
 126 620 126 620 131 623 c 128,-1,43
 136 626 136 626 138 626 c 128,-1,44
 140 626 140 626 144 625 c 1,45,-1
 221 542 l 1,46,47
 288 588 288 588 389.5 588 c 128,-1,48
 491 588 491 588 551 528 c 1,49,-1
 642 625 l 2,50,51
 644 626 644 626 647 626 c 0,52,53
 653 626 653 626 667 615 c 128,-1,54
 681 604 681 604 681 598 c 128,-1,55
 681 592 681 592 653 561 c 2,56,-1
 588 492 l 1,0,1
360 454 m 2,57,58
 247 454 247 454 247 315 c 0,59,60
 247 224 247 224 292 192 c 1,61,62
 326 164 326 164 353 164 c 2,63,-1
 376 164 l 2,64,65
 502 164 502 164 502 291 c 0,66,67
 502 423 502 423 434 447 c 0,68,69
 415 454 415 454 378 454 c 2,70,-1
 360 454 l 2,57,58
EndSplineSet
EndChar

StartChar: yen
Encoding: 165 165 103
Width: 728
GlyphClass: 2
Flags: W
LayerCount: 2
Fore
SplineSet
648 414 m 1,0,1
 664 411 664 411 664 349 c 128,-1,2
 664 287 664 287 648 284 c 1,3,-1
 520 284 l 1,4,-1
 510 290 l 1,5,6
 510 256 510 256 514 204 c 1,7,8
 553 207 553 207 591 207 c 0,9,10
 646 207 646 207 656.5 200 c 128,-1,11
 667 193 667 193 667 172 c 2,12,-1
 666 148 l 1,13,-1
 666 109 l 2,14,15
 666 76 666 76 654 74 c 128,-1,16
 642 72 642 72 621 72 c 2,17,-1
 569 72 l 2,18,19
 538 72 538 72 510 71 c 1,20,-1
 510 0 l 1,21,22
 505 -18 505 -18 417 -18 c 2,23,-1
 300 -18 l 1,24,-1
 223 -16 l 1,25,-1
 208 6 l 1,26,-1
 208 22 l 1,27,28
 209 26 209 26 209 32 c 2,29,-1
 208 70 l 1,30,-1
 196 70 l 1,31,-1
 112 66 l 1,32,33
 61 66 61 66 58 88 c 1,34,-1
 59 146 l 1,35,-1
 58 174 l 1,36,37
 58 206 58 206 84 206 c 2,38,-1
 132 206 l 2,39,40
 156 206 156 206 181 205 c 1,41,-1
 204 205 l 1,42,-1
 214 207 l 1,43,-1
 214 232 l 2,44,45
 214 284 214 284 196 284 c 1,46,47
 166 282 166 282 136 282 c 2,48,-1
 75 282 l 1,49,50
 60 286 60 286 60 316 c 2,51,-1
 60 386 l 2,52,53
 60 412 60 412 80 412 c 2,54,-1
 112 412 l 2,55,56
 124 412 124 412 132 411 c 1,57,-1
 125 448 l 1,58,-1
 60 581 l 2,59,60
 44 614 44 614 34 636 c 128,-1,61
 24 658 24 658 16 671 c 2,62,-1
 2 696 l 1,63,64
 -16 725 -16 725 -16 740.5 c 128,-1,65
 -16 756 -16 756 47 756 c 2,66,-1
 140 756 l 1,67,-1
 187 757 l 1,68,69
 277 757 277 757 284 742 c 1,70,71
 294 709 294 709 305 677 c 128,-1,72
 316 645 316 645 326 612 c 2,73,-1
 340 568 l 2,74,75
 348 544 348 544 355 519.5 c 128,-1,76
 362 495 362 495 370 471 c 2,77,-1
 374 459 l 1,78,-1
 452 714 l 2,79,80
 464 750 464 750 497 752 c 128,-1,81
 530 754 530 754 584 754 c 2,82,-1
 684 754 l 2,83,84
 746 754 746 754 746 738 c 1,85,86
 730 709 730 709 717 679.5 c 128,-1,87
 704 650 704 650 688 621 c 1,88,-1
 648 540 l 1,89,-1
 598 413 l 1,90,91
 604 412 604 412 608 412 c 2,92,-1
 620 412 l 1,93,-1
 648 414 l 1,0,1
EndSplineSet
EndChar

StartChar: brokenbar
Encoding: 166 166 104
Width: 247
GlyphClass: 2
Flags: W
LayerCount: 2
Fore
SplineSet
203 -160 m 1,0,1
 198 -180 198 -180 158.5 -180 c 128,-1,2
 119 -180 119 -180 95.5 -179 c 128,-1,3
 72 -178 72 -178 62 -175 c 128,-1,4
 52 -172 52 -172 48 -168 c 128,-1,5
 44 -164 44 -164 40 -160 c 1,6,-1
 45 221 l 1,7,-1
 44 234 l 1,8,9
 44 248 44 248 52 256 c 1,10,11
 121 256 121 256 190 256 c 0,12,13
 200 256 200 256 200 240 c 1,14,-1
 198 212 l 1,15,-1
 200 13 l 1,16,-1
 201 5 l 1,17,-1
 203 -160 l 1,0,1
203 390 m 1,18,19
 198 370 198 370 158 370 c 2,20,-1
 89 370 l 2,21,22
 59 370 59 370 40 389 c 1,23,-1
 45 740 l 1,24,-1
 44 754 l 2,25,26
 44 766 44 766 52 774 c 1,27,28
 69 774 69 774 86 775 c 1,29,-1
 156 775 l 1,30,31
 174 774 174 774 190 774 c 1,32,33
 200 772 200 772 200 758 c 1,34,-1
 198 731 l 1,35,-1
 200 567 l 1,36,-1
 203 390 l 1,18,19
EndSplineSet
EndChar

StartChar: section
Encoding: 167 167 105
Width: 909
GlyphClass: 2
Flags: W
LayerCount: 2
Fore
SplineSet
298 128 m 0,0,1
 322 128 322 128 322 148 c 0,2,3
 322 163 322 163 298 171.5 c 128,-1,4
 274 180 274 180 264 184 c 128,-1,5
 254 188 254 188 238 194 c 2,6,-1
 208 206 l 1,7,8
 94 249 94 249 94 352.5 c 128,-1,9
 94 456 94 456 193 493 c 1,10,11
 124 527 124 527 124 609 c 1,12,13
 138 770 138 770 378 770 c 0,14,15
 445 770 445 770 602 748 c 1,16,17
 607 746 607 746 609 739 c 1,18,-1
 610 616 l 2,19,20
 610 596 610 596 598 596 c 1,21,22
 504 616 504 616 469 616 c 128,-1,23
 434 616 434 616 434 604 c 0,24,25
 434 589 434 589 470 578.5 c 128,-1,26
 506 568 506 568 517 564 c 2,27,-1
 540 555 l 2,28,29
 668 505 668 505 672 405 c 1,30,-1
 672 389 l 2,31,32
 672 287 672 287 573 238 c 1,33,34
 632 199 632 199 632 129 c 0,35,36
 632 -33 632 -33 405 -33 c 0,37,38
 260 -33 260 -33 126 -10 c 1,39,-1
 111 10 l 1,40,41
 110 38 110 38 110 63 c 2,42,-1
 110 119 l 2,43,44
 110 164 110 164 129 164 c 1,45,-1
 138 162 l 1,46,47
 205 128 205 128 298 128 c 0,0,1
333 422 m 2,48,-1
 322 412 l 2,49,50
 314 404 314 404 314 388.5 c 128,-1,51
 314 373 314 373 322 363 c 128,-1,52
 330 353 330 353 342 346 c 0,53,54
 365 331 365 331 392 323.5 c 128,-1,55
 419 316 419 316 429 316 c 0,56,57
 447 316 447 316 455.5 326.5 c 128,-1,58
 464 337 464 337 464 345 c 128,-1,59
 464 353 464 353 456 362 c 128,-1,60
 448 371 448 371 436 379.5 c 128,-1,61
 424 388 424 388 409 395.5 c 128,-1,62
 394 403 394 403 380 408.5 c 128,-1,63
 366 414 366 414 355 418 c 128,-1,64
 344 422 344 422 340 424 c 1,65,-1
 336 424 l 2,66,67
 335 424 335 424 333 422 c 2,48,-1
EndSplineSet
EndChar

StartChar: dieresis
Encoding: 168 168 106
Width: 329
GlyphClass: 2
Flags: W
LayerCount: 2
Fore
SplineSet
-40 892 m 0,0,1
 42 890 42 890 124 890 c 1,2,3
 136 887 136 887 136 868 c 2,4,-1
 135 846 l 1,5,-1
 136 785 l 1,6,-1
 136 708 l 1,7,8
 132 694 132 694 88 694 c 1,9,-1
 53 695 l 1,10,-1
 -42 691 l 1,11,12
 -46 697 -46 697 -50 704 c 2,13,-1
 -58 716 l 1,14,-1
 -58 747 l 2,15,16
 -58 892 -58 892 -40 892 c 0,0,1
398 699 m 2,17,-1
 232 691 l 1,18,-1
 216 711 l 1,19,-1
 214 714 l 1,20,21
 214 883 214 883 232 892 c 1,22,23
 259 890 259 890 285 890 c 2,24,-1
 367 892 l 2,25,26
 405 892 405 892 408 880 c 1,27,28
 410 795 410 795 410 710 c 1,29,30
 406 698 406 698 402 698 c 128,-1,31
 398 698 398 698 398 699 c 2,17,-1
EndSplineSet
EndChar

StartChar: copyright
Encoding: 169 169 107
Width: 823
GlyphClass: 2
Flags: W
LayerCount: 2
Fore
SplineSet
5 380 m 0,0,1
 5 531 5 531 113.5 650 c 128,-1,2
 222 769 222 769 406 769 c 0,3,4
 639 770 639 770 755 574 c 0,5,6
 814 475 814 475 814 353.5 c 128,-1,7
 814 232 814 232 724 120 c 1,8,9
 590 -32 590 -32 414 -32 c 0,10,11
 299 -32 299 -32 219 15 c 0,12,13
 5 141 5 141 5 380 c 0,0,1
169 517 m 0,14,15
 124 444 124 444 124 352 c 0,16,17
 124 221 124 221 264 128 c 1,18,19
 379 54 379 54 499 105 c 0,20,21
 688 185 688 185 688 380 c 0,22,23
 688 496 688 496 607 573 c 128,-1,24
 526 650 526 650 414 652 c 1,25,-1
 406 652 l 2,26,27
 253 652 253 652 169 517 c 0,14,15
417 479 m 0,28,29
 336 479 336 479 336 373.5 c 128,-1,30
 336 268 336 268 411 268 c 0,31,32
 443 268 443 268 451.5 282 c 128,-1,33
 460 296 460 296 466 307.5 c 128,-1,34
 472 319 472 319 486 331 c 1,35,36
 502 332 502 332 519 332 c 2,37,-1
 552 332 l 2,38,39
 562 332 562 332 572 333 c 0,40,41
 609 337 609 337 609 307 c 2,42,-1
 609 300 l 1,43,44
 602 238 602 238 549.5 190 c 128,-1,45
 497 142 497 142 430 142 c 0,46,47
 313 141 313 141 254.5 210 c 128,-1,48
 196 279 196 279 196 352 c 0,49,50
 196 471 196 471 263.5 534 c 128,-1,51
 331 597 331 597 422 597 c 0,52,53
 570 597 570 597 608 436 c 1,54,55
 608 420 608 420 573 420 c 0,56,57
 483 420 483 420 476 439 c 0,58,59
 463 479 463 479 417 479 c 0,28,29
EndSplineSet
EndChar

StartChar: ordfeminine
Encoding: 170 170 108
Width: 422
GlyphClass: 2
Flags: W
LayerCount: 2
Fore
SplineSet
137 444 m 0,0,1
 25 444 25 444 25 528 c 0,2,3
 25 622 25 622 188 622 c 0,4,5
 222 622 222 622 254 620 c 1,6,-1
 254 640 l 2,7,8
 254 700 254 700 211 700 c 128,-1,9
 168 700 168 700 160 672 c 1,10,-1
 38 672 l 1,11,12
 49 747 49 747 237 747 c 1,13,14
 335 748 335 748 365 720.5 c 128,-1,15
 395 693 395 693 395 648 c 2,16,-1
 394 452 l 1,17,18
 388 452 388 452 382 451 c 1,19,-1
 368 451 l 1,20,-1
 260 453 l 1,21,-1
 258 472 l 1,22,-1
 257 480 l 1,23,-1
 257 482 l 1,24,25
 203 444 203 444 137 444 c 0,0,1
156 541 m 0,26,27
 156 502 156 502 201.5 502 c 128,-1,28
 247 502 247 502 254 542 c 1,29,-1
 254 594 l 1,30,31
 184 589 184 589 170 575 c 128,-1,32
 156 561 156 561 156 541 c 0,26,27
EndSplineSet
EndChar

StartChar: guillemotleft
Encoding: 171 171 109
Width: 667
GlyphClass: 2
Flags: W
LayerCount: 2
Fore
SplineSet
239 522 m 1,0,1
 378 522 378 522 378 512 c 0,2,3
 378 494 378 494 362 466 c 2,4,-1
 348 440 l 2,5,6
 341 428 341 428 337 418 c 2,7,-1
 265 260 l 1,8,-1
 378 6 l 1,9,10
 378 -10 378 -10 329 -10 c 2,11,-1
 194 -12 l 2,12,13
 163 -12 163 -12 160 1 c 1,14,-1
 -2 248 l 1,15,16
 2 280 2 280 36 329 c 2,17,-1
 66 373 l 2,18,19
 82 396 82 396 93 412 c 2,20,-1
 160 516 l 1,21,22
 166 522 166 522 171 523 c 1,23,-1
 239 522 l 1,0,1
680 6 m 1,24,25
 680 -12 680 -12 658 -12 c 2,26,-1
 524 -12 l 2,27,28
 469 -12 469 -12 458 -4 c 1,29,-1
 300 248 l 1,30,-1
 302 262 l 1,31,-1
 460 514 l 2,32,33
 466 522 466 522 495 522 c 2,34,-1
 506 522 l 1,35,-1
 610 523 l 1,36,-1
 669 522 l 1,37,38
 680 520 680 520 682 507 c 1,39,-1
 626 385 l 1,40,41
 598 320 598 320 568 262 c 1,42,-1
 576 244 l 1,43,-1
 576 243 l 1,44,-1
 574 242 l 1,45,46
 598 184 598 184 627 123 c 1,47,-1
 680 6 l 1,24,25
EndSplineSet
EndChar

StartChar: logicalnot
Encoding: 172 172 110
Width: 641
GlyphClass: 2
Flags: W
LayerCount: 2
Fore
SplineSet
548 110 m 1,0,-1
 440 108 l 1,1,-1
 422 130 l 1,2,-1
 422 296 l 1,3,-1
 58 298 l 1,4,5
 48 302 48 302 48 317 c 2,6,-1
 50 400 l 1,7,-1
 49 446 l 2,8,9
 49 456 49 456 54 458 c 1,10,11
 60 458 60 458 61 457 c 1,12,-1
 579 463 l 1,13,14
 592 461 592 461 597 454 c 1,15,-1
 600 128 l 1,16,17
 596 110 596 110 583 110 c 2,18,-1
 548 110 l 1,0,-1
EndSplineSet
EndChar

StartChar: uni00AD
Encoding: 173 173 111
Width: 429
GlyphClass: 2
Flags: W
LayerCount: 2
Fore
SplineSet
390 180 m 2,0,-1
 36 170 l 1,1,-1
 26 180 l 2,2,3
 22 184 22 184 18 190 c 1,4,-1
 19 236 l 2,5,6
 20 260 20 260 20 282 c 1,7,-1
 18 321 l 1,8,9
 18 372 18 372 34 372 c 0,10,11
 163 372 163 372 239 372 c 0,12,13
 314 372 314 372 390 372 c 1,14,15
 404 370 404 370 404 305 c 2,16,-1
 404 198 l 1,17,18
 401 180 401 180 390 180 c 2,0,-1
EndSplineSet
EndChar

StartChar: registered
Encoding: 174 174 112
Width: 855
GlyphClass: 2
Flags: W
LayerCount: 2
Fore
SplineSet
26 355 m 0,0,1
 25 367 25 367 26 378 c 0,2,3
 37 610 37 610 213 714 c 0,4,5
 360 800 360 800 532 756 c 0,6,7
 689 715 689 715 776 575 c 0,8,9
 834 481 834 481 834 381 c 0,10,11
 834 106 834 106 590 0 c 0,12,13
 517 -32 517 -32 462 -32 c 0,14,15
 374 -32 374 -32 314 -14 c 0,16,17
 43 67 43 67 26 355 c 0,0,1
228 178 m 128,-1,19
 302 96 302 96 392 96 c 0,20,21
 544 96 544 96 622.5 178.5 c 128,-1,22
 701 261 701 261 701 371 c 0,23,24
 701 560 701 560 548 626 c 1,25,26
 489 650 489 650 444 650 c 128,-1,27
 399 650 399 650 355.5 644 c 128,-1,28
 312 638 312 638 279 615 c 128,-1,29
 246 592 246 592 226 569 c 128,-1,30
 206 546 206 546 192 525 c 128,-1,31
 178 504 178 504 170 482 c 0,32,33
 154 436 154 436 154 348 c 128,-1,18
 154 260 154 260 228 178 c 128,-1,19
368 279 m 1,34,-1
 366 192 l 2,35,36
 366 188 366 188 342 188 c 2,37,-1
 294 189 l 1,38,-1
 294 445 l 1,39,-1
 295 446 l 1,40,41
 294 478 294 478 294 512 c 2,42,-1
 294 557 l 1,43,44
 393 560 393 560 433 560 c 0,45,46
 574 560 574 560 574 459 c 0,47,48
 574 368 574 368 511 354 c 0,49,50
 496 350 496 350 488 350 c 1,51,-1
 533 266 l 1,52,53
 541 254 541 254 547.5 241 c 128,-1,54
 554 228 554 228 562 216 c 2,55,-1
 568 206 l 1,56,-1
 568 189 l 1,57,-1
 500 186 l 1,58,-1
 495 186 l 1,59,-1
 432 318 l 1,60,-1
 419 342 l 1,61,-1
 368 342 l 1,62,-1
 368 279 l 1,34,-1
425 496 m 0,63,64
 404 496 404 496 368 493 c 1,65,-1
 368 408 l 1,66,-1
 442 406 l 1,67,68
 502 406 502 406 502 451 c 128,-1,69
 502 496 502 496 425 496 c 0,63,64
EndSplineSet
EndChar

StartChar: macron
Encoding: 175 175 113
Width: 339
GlyphClass: 2
Flags: W
LayerCount: 2
Fore
SplineSet
-47 574 m 1,0,-1
 -62 592 l 1,1,-1
 -62 672 l 2,2,3
 -62 717 -62 717 -50 732 c 1,4,-1
 3 728 l 1,5,6
 161 719 161 719 280 719 c 2,7,-1
 312 719 l 1,8,-1
 388 721 l 1,9,10
 398 719 398 719 398 697 c 2,11,-1
 397 674 l 1,12,-1
 397 656 l 1,13,-1
 398 602 l 2,14,15
 398 580 398 580 372 580 c 1,16,-1
 352 581 l 1,17,-1
 288 580 l 2,18,19
 238 580 238 580 190 578 c 1,20,-1
 61 576 l 1,21,-1
 -47 574 l 1,0,-1
EndSplineSet
EndChar

StartChar: degree
Encoding: 176 176 114
Width: 439
GlyphClass: 2
Flags: W
LayerCount: 2
Fore
SplineSet
54 622 m 1,0,1
 79 774 79 774 218 774 c 0,2,3
 319 774 319 774 361 681 c 0,4,5
 374 652 374 652 374 618 c 2,6,-1
 374 612 l 2,7,8
 374 518 374 518 282 472 c 0,9,10
 255 458 255 458 226 458 c 0,11,12
 161 458 161 458 107.5 500 c 128,-1,13
 54 542 54 542 54 622 c 1,0,1
EndSplineSet
EndChar

StartChar: plusminus
Encoding: 177 177 115
Width: 633
GlyphClass: 2
Flags: W
LayerCount: 2
Fore
SplineSet
40 2 m 1,0,1
 40 2 40 2 40 7 c 2,2,-1
 41 82 l 1,3,4
 41 82 41 82 40 112 c 1,5,6
 40 149 40 149 60 158 c 1,7,-1
 74 157 l 1,8,9
 143 151 143 151 250 151 c 2,10,-1
 412 152 l 2,11,12
 491 152 491 152 575 148 c 0,13,14
 586 148 586 148 586 122 c 2,15,-1
 586 0 l 1,16,17
 584 -12 584 -12 569 -12 c 2,18,-1
 546 -12 l 1,19,-1
 219 -14 l 1,20,-1
 114 -16 l 1,21,22
 114 -16 114 -16 78 -16 c 0,23,24
 64 -16 64 -16 56 -17 c 1,25,-1
 40 2 l 1,0,1
43 336 m 2,26,-1
 42 389 l 1,27,-1
 42 470 l 2,28,29
 42 488 42 488 154 488 c 1,30,-1
 229 489 l 1,31,-1
 229 504 l 1,32,-1
 230 560 l 1,33,-1
 230 578 l 2,34,35
 230 598 230 598 272 598 c 2,36,-1
 357 598 l 2,37,38
 400 598 400 598 400 588 c 2,39,-1
 400 562 l 1,40,-1
 399 484 l 1,41,-1
 574 484 l 1,42,43
 588 482 588 482 588 462 c 2,44,-1
 586 356 l 1,45,-1
 586 344 l 2,46,47
 586 325 586 325 574 325 c 2,48,-1
 396 325 l 1,49,-1
 396 240 l 2,50,51
 396 218 396 218 385 218 c 2,52,-1
 360 218 l 1,53,-1
 254 216 l 2,54,55
 236 216 236 216 236 228 c 1,56,-1
 238 230 l 1,57,58
 234 276 234 276 234 320 c 1,59,60
 216 322 216 322 199 322 c 2,61,-1
 163 322 l 1,62,-1
 96 320 l 1,63,-1
 74 320 l 2,64,65
 43 320 43 320 43 336 c 2,26,-1
EndSplineSet
EndChar

StartChar: uni00B2
Encoding: 178 178 116
Width: 580
GlyphClass: 2
Flags: W
LayerCount: 2
Fore
SplineSet
58 356 m 0,0,1
 70 540 70 540 294 540 c 0,2,3
 450 540 450 540 506 451 c 0,4,5
 526 420 526 420 526 378 c 0,6,7
 526 309 526 309 481.5 257.5 c 128,-1,8
 437 206 437 206 354 151 c 1,9,-1
 342 142 l 1,10,-1
 490 144 l 2,11,12
 532 144 532 144 532 81 c 1,13,-1
 530 15 l 1,14,-1
 530 8 l 2,15,16
 530 -7 530 -7 516 -8 c 1,17,-1
 490 -8 l 1,18,19
 394 -5 394 -5 300 -5 c 128,-1,20
 206 -5 206 -5 71 -12 c 1,21,22
 58 9 58 9 58 23 c 2,23,-1
 58 68 l 1,24,-1
 59 132 l 2,25,26
 59 139 59 139 82 156 c 1,27,-1
 196 232 l 2,28,29
 209 241 209 241 220 250 c 2,30,-1
 242 267 l 2,31,32
 252 274 252 274 264 286 c 2,33,-1
 282 304 l 2,34,35
 318 340 318 340 318 371.5 c 128,-1,36
 318 403 318 403 290.5 403 c 128,-1,37
 263 403 263 403 255 376 c 1,38,-1
 250 356 l 2,39,40
 248 346 248 346 200 346 c 2,41,-1
 104 346 l 2,42,43
 58 346 58 346 58 356 c 0,0,1
EndSplineSet
EndChar

StartChar: uni00B3
Encoding: 179 179 117
Width: 613
GlyphClass: 2
Flags: W
LayerCount: 2
Fore
SplineSet
439 276 m 1,0,1
 539 247 539 247 539 154 c 0,2,3
 539 5 539 5 352 -18 c 0,4,5
 336 -20 336 -20 322 -20 c 2,6,-1
 296 -20 l 2,7,8
 160 -20 160 -20 98 42 c 1,9,10
 62 74 62 74 61.5 100 c 128,-1,11
 61 126 61 126 61 147 c 128,-1,12
 61 168 61 168 70 168 c 2,13,-1
 190 170 l 1,14,-1
 237 171 l 2,15,16
 243 171 243 171 246 168 c 1,17,18
 248 164 248 164 250 152 c 0,19,20
 256 114 256 114 292 114 c 2,21,-1
 294 114 l 2,22,23
 332 114 332 114 332 153 c 0,24,25
 332 205 332 205 260 205 c 1,26,27
 256 204 256 204 252 204 c 2,28,-1
 244 204 l 2,29,30
 221 204 221 204 221 237 c 2,31,-1
 221 260 l 2,32,33
 221 316 221 316 238 316 c 2,34,-1
 268 316 l 2,35,36
 327 316 327 316 327 372 c 0,37,38
 327 406 327 406 296 406 c 128,-1,39
 265 406 265 406 261 379 c 128,-1,40
 257 352 257 352 246 348 c 1,41,-1
 179 348 l 2,42,43
 146 348 146 348 113 350 c 1,44,-1
 95 350 l 2,45,46
 68 350 68 350 68 363 c 0,47,48
 71 404 71 404 77 422 c 1,49,-1
 83 437 l 1,50,51
 124 536 124 536 278 540 c 0,52,53
 302 540 302 540 324.5 540.5 c 128,-1,54
 347 541 347 541 370 537 c 128,-1,55
 393 533 393 533 416 524 c 0,56,57
 528 482 528 482 528 395 c 128,-1,58
 528 308 528 308 439 276 c 1,0,1
EndSplineSet
EndChar

StartChar: acute
Encoding: 180 180 118
Width: 320
GlyphClass: 2
Flags: W
LayerCount: 2
Fore
SplineSet
64 678 m 1,0,-1
 38 677 l 1,1,-1
 32 677 l 1,2,3
 28 678 28 678 26 678 c 1,4,-1
 14 701 l 1,5,-1
 98 844 l 2,6,7
 114 871 114 871 126 882 c 1,8,-1
 163 882 l 1,9,-1
 218 881 l 1,10,11
 253 878 253 878 313.5 877.5 c 128,-1,12
 374 877 374 877 374 870 c 128,-1,13
 374 863 374 863 372 859 c 1,14,-1
 242 713 l 1,15,16
 214 680 214 680 185 680 c 128,-1,17
 156 680 156 680 134 679 c 2,18,-1
 64 678 l 1,0,-1
EndSplineSet
EndChar

StartChar: uni00B5
Encoding: 181 181 119
Width: 679
GlyphClass: 2
Flags: W
LayerCount: 2
Fore
SplineSet
295 -202 m 2,0,-1
 173 -206 l 1,1,-1
 146 -206 l 1,2,3
 136 -205 136 -205 128 -205 c 2,4,-1
 88 -205 l 1,5,-1
 73 -206 l 1,6,7
 38 -206 38 -206 38 -198 c 128,-1,8
 38 -190 38 -190 36 24 c 128,-1,9
 34 238 34 238 34 303 c 2,10,-1
 34 372 l 1,11,-1
 32 508 l 1,12,-1
 32 509 l 2,13,14
 32 519 32 519 44 529 c 1,15,16
 64 530 64 530 84 530 c 2,17,-1
 180 529 l 1,18,-1
 290 529 l 1,19,20
 307 527 307 527 310 508 c 1,21,-1
 310 506 l 1,22,23
 308 460 308 460 308 416 c 2,24,-1
 306 279 l 1,25,-1
 306 252 l 1,26,-1
 305 194 l 2,27,28
 304 152 304 152 336 152 c 128,-1,29
 368 152 368 152 368 196 c 2,30,-1
 370 318 l 2,31,32
 370 334 370 334 371 352 c 1,33,-1
 371 512 l 2,34,35
 371 524 371 524 382 524 c 2,36,-1
 384 524 l 1,37,-1
 454 525 l 1,38,-1
 472 524 l 1,39,-1
 632 526 l 1,40,41
 646 524 646 524 647 505 c 1,42,-1
 648 504 l 1,43,-1
 642 155 l 2,44,45
 642 148 642 148 645 142 c 1,46,-1
 648 77 l 1,47,-1
 648 75 l 1,48,49
 646 39 646 39 644.5 14.5 c 128,-1,50
 643 -10 643 -10 628 -10 c 0,51,52
 562 -10 562 -10 499 -10 c 0,53,54
 390 -10 390 -10 385 0 c 0,55,56
 378 14 378 14 378 48 c 1,57,-1
 373 38 l 2,58,59
 367 28 367 28 360 17 c 0,60,61
 336 -24 336 -24 309 -24 c 1,62,-1
 298 -22 l 1,63,-1
 298 -129 l 1,64,-1
 300 -194 l 1,65,66
 298 -202 298 -202 295 -202 c 2,0,-1
EndSplineSet
EndChar

StartChar: paragraph
Encoding: 182 182 120
Width: 661
GlyphClass: 2
Flags: W
LayerCount: 2
Fore
SplineSet
240 384 m 1,0,1
 12 394 12 394 12 568 c 128,-1,2
 12 742 12 742 242 746 c 1,3,4
 301 746 301 746 360 746 c 1,5,-1
 453 748 l 2,6,7
 525 750 525 750 598 750 c 0,8,9
 622 750 622 750 622 720 c 2,10,-1
 622 660 l 1,11,-1
 620 508 l 2,12,13
 619 442 619 442 619 378 c 128,-1,14
 619 314 619 314 618 250 c 2,15,-1
 614 -2 l 2,16,17
 614 -3 614 -3 614 -4 c 0,18,19
 613 -24 613 -24 569 -24 c 2,20,-1
 504 -24 l 1,21,22
 482 -23 482 -23 473.5 -23 c 128,-1,23
 465 -23 465 -23 442 0 c 1,24,25
 442 16 442 16 442 32 c 2,26,-1
 450 618 l 1,27,-1
 417 621 l 2,28,29
 411 622 411 622 404 624 c 1,30,31
 398 528 398 528 398 324 c 2,32,-1
 398 78 l 1,33,34
 399 49 399 49 398.5 33.5 c 128,-1,35
 398 18 398 18 398 2 c 128,-1,36
 398 -14 398 -14 393 -14 c 2,37,-1
 386 -14 l 1,38,-1
 276 -16 l 1,39,-1
 264 -16 l 2,40,41
 238 -16 238 -16 238 -2 c 2,42,-1
 238 94 l 1,43,-1
 240 384 l 1,0,1
EndSplineSet
EndChar

StartChar: periodcentered
Encoding: 183 183 121
Width: 395
GlyphClass: 2
Flags: W
LayerCount: 2
Fore
SplineSet
65 278 m 0,0,1
 94 395 94 395 182 394 c 1,2,-1
 214 394 l 2,3,4
 286 394 286 394 322 308 c 0,5,6
 332 284 332 284 332 257 c 0,7,8
 332 199 332 199 291 156.5 c 128,-1,9
 250 114 250 114 211 114 c 128,-1,10
 172 114 172 114 141 128 c 0,11,12
 63 164 63 164 56 252 c 1,13,14
 62 266 62 266 65 278 c 0,0,1
EndSplineSet
EndChar

StartChar: cedilla
Encoding: 184 184 122
Width: 302
GlyphClass: 2
Flags: W
LayerCount: 2
Fore
SplineSet
144 -130 m 1,0,-1
 106 -135 l 1,1,2
 94 -135 94 -135 81 -124 c 1,3,-1
 72 -118 l 1,4,5
 57 -110 57 -110 52 -93 c 1,6,-1
 51 -82 l 1,7,-1
 104 12 l 2,8,9
 107 16 107 16 117 20 c 1,10,-1
 134 19 l 1,11,-1
 200 18 l 1,12,13
 216 16 216 16 216 2 c 1,14,-1
 194 -38 l 1,15,16
 308 -38 308 -38 308 -130.5 c 128,-1,17
 308 -223 308 -223 205 -250 c 0,18,19
 175 -258 175 -258 148 -258 c 0,20,21
 92 -258 92 -258 44 -245 c 128,-1,22
 -4 -232 -4 -232 -5 -222 c 1,23,24
 -5 -209 -5 -209 3 -190 c 1,25,-1
 10 -176 l 2,26,27
 15 -167 15 -167 20.5 -153.5 c 128,-1,28
 26 -140 26 -140 36 -140 c 1,29,-1
 68 -152 l 2,30,31
 94 -162 94 -162 108 -162 c 2,32,-1
 129 -162 l 2,33,34
 162 -162 162 -162 162 -142 c 0,35,36
 162 -130 162 -130 144 -130 c 1,0,-1
EndSplineSet
EndChar

StartChar: uni00B9
Encoding: 185 185 123
Width: 515
GlyphClass: 2
Flags: W
LayerCount: 2
Fore
SplineSet
365 -11 m 2,0,-1
 310 -10 l 1,1,-1
 230 -11 l 1,2,-1
 210 -11 l 2,3,4
 178 -11 178 -11 178 23 c 128,-1,5
 178 57 178 57 178.5 95.5 c 128,-1,6
 179 134 179 134 179.5 171 c 128,-1,7
 180 208 180 208 181 246 c 128,-1,8
 182 284 182 284 182 324 c 1,9,10
 136 294 136 294 84 276 c 1,11,12
 74 276 74 276 72 286 c 1,13,-1
 72 370 l 2,14,15
 72 432 72 432 76 432 c 1,16,-1
 142 463 l 1,17,18
 209 490 209 490 230 526 c 1,19,20
 271 525 271 525 303 525 c 2,21,-1
 370 525 l 2,22,23
 376 525 376 525 384 526 c 1,24,25
 392 525 392 525 392 512 c 2,26,-1
 392 461 l 1,27,-1
 391 382 l 2,28,29
 391 354 391 354 391 312 c 128,-1,30
 391 270 391 270 392 212 c 2,31,-1
 395 2 l 2,32,33
 395 -11 395 -11 365 -11 c 2,0,-1
EndSplineSet
EndChar

StartChar: ordmasculine
Encoding: 186 186 124
Width: 469
GlyphClass: 2
Flags: W
LayerCount: 2
Fore
SplineSet
210 418 m 0,0,1
 2 418 2 418 -14 593 c 1,2,-1
 -14 600 l 1,3,4
 3 770 3 770 209 770 c 0,5,6
 476 770 476 770 476 598 c 1,7,8
 469 418 469 418 210 418 c 0,0,1
EndSplineSet
EndChar

StartChar: guillemotright
Encoding: 187 187 125
Width: 666
GlyphClass: 2
Flags: W
LayerCount: 2
Fore
SplineSet
130 -8 m 1,0,1
 82 -12 82 -12 41 -12 c 128,-1,2
 0 -12 0 -12 0 -1 c 0,3,4
 0 22 0 22 24 65 c 1,5,-1
 34 84 l 1,6,-1
 49 122 l 2,7,8
 63 155 63 155 77.5 187.5 c 128,-1,9
 92 220 92 220 106 254 c 1,10,-1
 2 503 l 1,11,-1
 0 512 l 1,12,13
 0 525 0 525 60 525 c 0,14,15
 214 525 214 525 218 514 c 1,16,-1
 374 263 l 2,17,18
 376 261 376 261 376 257.5 c 128,-1,19
 376 254 376 254 372 251 c 1,20,-1
 221 0 l 1,21,22
 205 -8 205 -8 150 -8 c 2,23,-1
 130 -8 l 1,0,1
506 -2 m 1,24,25
 498 -10 498 -10 464.5 -10 c 128,-1,26
 431 -10 431 -10 393 -10 c 2,27,-1
 355 -11 l 1,28,-1
 314 -11 l 2,29,30
 285 -11 285 -11 285 -4 c 128,-1,31
 285 3 285 3 288 8 c 2,32,-1
 390 258 l 1,33,-1
 382 276 l 1,34,-1
 384 278 l 1,35,-1
 384 279 l 1,36,-1
 287 504 l 2,37,38
 286 508 286 508 286 515 c 128,-1,39
 286 522 286 522 325 522 c 2,40,-1
 350 522 l 1,41,-1
 456 523 l 1,42,-1
 476 523 l 1,43,44
 486 522 486 522 493 522 c 128,-1,45
 500 522 500 522 506 516 c 128,-1,46
 512 510 512 510 517 500 c 128,-1,47
 522 490 522 490 525 486 c 2,48,-1
 609 349 l 2,49,50
 614 341 614 341 623 328 c 0,51,52
 662 274 662 274 662 256 c 0,53,54
 662 244 662 244 642 212 c 1,55,-1
 608 164 l 1,56,57
 581 124 581 124 557 82 c 1,58,-1
 506 -2 l 1,24,25
EndSplineSet
EndChar

StartChar: questiondown
Encoding: 191 191 129
Width: 560
GlyphClass: 2
Flags: W
LayerCount: 2
Fore
SplineSet
546 149 m 1,0,-1
 546 -38 l 2,1,2
 546 -88 546 -88 380 -88 c 128,-1,3
 214 -88 214 -88 138 -52 c 1,4,-1
 117 -41 l 1,5,6
 75 -14 75 -14 52 20 c 1,7,-1
 46 34 l 1,8,9
 32 57 32 57 28 86 c 1,10,11
 26 116 26 116 24 129 c 0,12,13
 13 226 13 226 124 310 c 1,14,-1
 157 336 l 1,15,16
 212 377 212 377 212 417 c 1,17,-1
 208 465 l 1,18,19
 208 478 208 478 230 478 c 2,20,-1
 288 478 l 1,21,-1
 465 482 l 1,22,23
 480 479 480 479 480 424 c 2,24,-1
 480 407 l 2,25,26
 480 399 480 399 479 393 c 128,-1,27
 478 387 478 387 477 380.5 c 128,-1,28
 476 374 476 374 472.5 360.5 c 128,-1,29
 469 347 469 347 457.5 330.5 c 128,-1,30
 446 314 446 314 431.5 298.5 c 128,-1,31
 417 283 417 283 402 268 c 0,32,33
 341 212 341 212 332 171 c 1,34,35
 338 138 338 138 386 138 c 2,36,-1
 390 138 l 1,37,38
 457 140 457 140 523 168 c 1,39,-1
 546 149 l 1,0,-1
211 628 m 1,40,-1
 210 689 l 1,41,-1
 210 719 l 1,42,43
 212 728 212 728 218 728 c 2,44,-1
 245 728 l 2,45,46
 266 728 266 728 308 731 c 256,47,48
 350 734 350 734 392 735 c 2,49,-1
 466 738 l 1,50,-1
 482 718 l 1,51,-1
 482 583 l 2,52,53
 482 546 482 546 467 537 c 1,54,-1
 308 541 l 2,55,56
 220 544 220 544 216 555 c 128,-1,57
 212 566 212 566 212 575 c 2,58,-1
 212 604 l 1,59,-1
 211 628 l 1,40,-1
EndSplineSet
EndChar

StartChar: AE
Encoding: 198 198 136
Width: 1191
GlyphClass: 2
Flags: W
LayerCount: 2
Fore
SplineSet
1038 282 m 2,0,-1
 798 276 l 1,1,-1
 785 276 l 1,2,-1
 806 204 l 1,3,-1
 1058 212 l 1,4,5
 1093 212 1093 212 1100 198 c 1,6,-1
 1154 18 l 2,7,8
 1156 13 1156 13 1156 4 c 128,-1,9
 1156 -5 1156 -5 1141 -7 c 1,10,-1
 978 -6 l 1,11,-1
 813 -12 l 1,12,-1
 700 -12 l 1,13,-1
 626 -14 l 1,14,-1
 624 -12 l 1,15,-1
 578 -12 l 2,16,17
 556 -12 556 -12 540 -9.5 c 128,-1,18
 524 -7 524 -7 519 17 c 2,19,-1
 515 37 l 1,20,21
 503 104 503 104 478 104 c 2,22,-1
 306 102 l 1,23,-1
 280 -2 l 1,24,25
 274 -14 274 -14 244 -14 c 128,-1,26
 214 -14 214 -14 184 -14 c 2,27,-1
 56 -17 l 1,28,-1
 42 -17 l 1,29,-1
 -10 -18 l 1,30,-1
 -24 0 l 1,31,32
 2 94 2 94 32 187 c 2,33,-1
 214 742 l 1,34,35
 218 750 218 750 222 754 c 1,36,-1
 306 754 l 1,37,-1
 480 756 l 1,38,-1
 526 754 l 1,39,-1
 564 756 l 1,40,-1
 919 758 l 1,41,42
 932 756 932 756 935 746 c 2,43,-1
 988 556 l 1,44,-1
 988 555 l 2,45,46
 988 542 988 542 963 542 c 2,47,-1
 950 542 l 2,48,49
 832 542 832 542 712 546 c 1,50,-1
 727 467 l 1,51,-1
 863 470 l 1,52,53
 889 472 889 472 913 472 c 2,54,-1
 963 472 l 2,55,56
 989 472 989 472 994 450 c 2,57,-1
 998 434 l 2,58,59
 1008 398 1008 398 1019.5 363 c 128,-1,60
 1031 328 1031 328 1041 292 c 1,61,-1
 1041 289 l 1,62,63
 1042 282 1042 282 1038 282 c 2,0,-1
337 280 m 1,64,-1
 426 280 l 2,65,66
 476 280 476 280 476 299 c 128,-1,67
 476 318 476 318 470 337 c 128,-1,68
 464 356 464 356 460 374 c 2,69,-1
 417 566 l 1,70,-1
 413 577 l 2,71,72
 411 582 411 582 399.5 584 c 128,-1,73
 388 586 388 586 363 477 c 1,74,-1
 348 415 l 1,75,-1
 335 355 l 2,76,77
 328 326 328 326 322 304 c 1,78,-1
 337 280 l 1,64,-1
EndSplineSet
EndChar

StartChar: Eth
Encoding: 208 208 146
Width: 822
GlyphClass: 2
Flags: W
LayerCount: 2
Fore
SplineSet
50 129 m 1,0,-1
 52 272 l 1,1,-1
 52 309 l 1,2,3
 36 308 36 308 21 308 c 2,4,-1
 -10 308 l 1,5,-1
 -20 314 l 1,6,7
 -26 316 -26 316 -30 320 c 1,8,-1
 -28 350 l 1,9,-1
 -28 380 l 1,10,-1
 -29 405 l 1,11,12
 -29 438 -29 438 -12 438 c 2,13,-1
 51 438 l 1,14,15
 50 455 50 455 50 472 c 2,16,-1
 50 552 l 1,17,-1
 51 598 l 1,18,-1
 51 734 l 1,19,-1
 50 736 l 1,20,21
 50 756 50 756 198 756 c 2,22,-1
 254 756 l 1,23,-1
 345 758 l 1,24,25
 514 758 514 758 580.5 732 c 128,-1,26
 647 706 647 706 686 676 c 1,27,-1
 704 660 l 1,28,29
 766 610 766 610 796 468 c 1,30,31
 843 235 843 235 694 91 c 0,32,33
 586 -12 586 -12 438 -12 c 1,34,35
 436 -14 436 -14 434 -14 c 2,36,-1
 419 -14 l 1,37,-1
 290 -12 l 1,38,39
 180 -12 180 -12 64 -16 c 1,40,41
 51 10 51 10 51 28 c 2,42,-1
 50 129 l 1,0,-1
344 592 m 1,43,-1
 328 562 l 1,44,-1
 328 438 l 1,45,46
 362 438 362 438 396 438 c 0,47,48
 414 438 414 438 414 418 c 2,49,-1
 414 396 l 1,50,51
 412 354 412 354 412 350 c 2,52,-1
 412 340 l 2,53,54
 412 316 412 316 396 315 c 2,55,-1
 331 314 l 1,56,57
 332 278 332 278 333 242 c 0,58,59
 335 161 335 161 346 160 c 1,60,61
 428 160 428 160 449 181 c 128,-1,62
 470 202 470 202 479 221 c 0,63,64
 508 282 508 282 508 379 c 2,65,-1
 508 410 l 2,66,67
 508 529 508 529 466 560.5 c 128,-1,68
 424 592 424 592 372 592 c 0,69,70
 358 592 358 592 344 592 c 1,43,-1
EndSplineSet
EndChar

StartChar: multiply
Encoding: 215 215 153
Width: 641
GlyphClass: 2
Flags: W
LayerCount: 2
Fore
SplineSet
100 101 m 2,0,1
 76 125 76 125 76 132 c 128,-1,2
 76 139 76 139 89 152 c 2,3,-1
 202 266 l 1,4,-1
 101 370 l 1,5,-1
 83 387 l 2,6,7
 76 393 76 393 76 399.5 c 128,-1,8
 76 406 76 406 89 422 c 1,9,-1
 132 464 l 2,10,11
 134 466 134 466 141 474 c 128,-1,12
 148 482 148 482 163.5 497 c 128,-1,13
 179 512 179 512 186.5 512 c 128,-1,14
 194 512 194 512 196 510 c 2,15,-1
 322 382 l 1,16,-1
 446 507 l 2,17,18
 450 510 450 510 455 510 c 0,19,20
 464 510 464 510 491 483 c 1,21,-1
 534 437 l 2,22,23
 537 433 537 433 542.5 428.5 c 128,-1,24
 548 424 548 424 552 419 c 128,-1,25
 556 414 556 414 559.5 410 c 128,-1,26
 563 406 563 406 563 401.5 c 128,-1,27
 563 397 563 397 542 380 c 1,28,-1
 431 269 l 1,29,-1
 534 169 l 1,30,-1
 552 150 l 1,31,32
 562 142 562 142 562 134 c 128,-1,33
 562 126 562 126 535 99 c 2,34,-1
 492 56 l 2,35,36
 476 40 476 40 466.5 28 c 128,-1,37
 457 16 457 16 450 30 c 1,38,-1
 324 150 l 1,39,40
 296 118 296 118 264 88 c 2,41,-1
 200 26 l 1,42,43
 196 24 196 24 191 24 c 1,44,-1
 190 23 l 1,45,46
 173 26 173 26 158.5 42 c 128,-1,47
 144 58 144 58 138 64 c 2,48,-1
 100 101 l 2,0,1
EndSplineSet
EndChar

StartChar: Oslash
Encoding: 216 216 154
Width: 822
GlyphClass: 2
Flags: W
LayerCount: 2
Fore
SplineSet
368 -28 m 0,0,1
 295 -28 295 -28 219 4 c 1,2,-1
 191 -40 l 1,3,4
 162 -90 162 -90 144 -90 c 2,5,-1
 140 -90 l 1,6,-1
 136 -87 l 1,7,8
 130 -87 130 -87 124 -84 c 128,-1,9
 118 -81 118 -81 112 -78 c 1,10,11
 118 -66 118 -66 122 -54 c 256,12,13
 126 -42 126 -42 132 -30 c 1,14,-1
 170 30 l 1,15,-1
 168 32 l 1,16,17
 12 133 12 133 12 376 c 1,18,-1
 18 431 l 1,19,20
 33 643 33 643 213 731 c 0,21,22
 303 775 303 775 414.5 775 c 128,-1,23
 526 775 526 775 620 730 c 1,24,-1
 672 810 l 2,25,26
 674 814 674 814 678 814 c 0,27,28
 686 814 686 814 699.5 805.5 c 128,-1,29
 713 797 713 797 713 792 c 0,30,31
 713 779 713 779 679 729 c 1,32,-1
 662 703 l 1,33,34
 798 603 798 603 798 407.5 c 128,-1,35
 798 212 798 212 724 116 c 1,36,-1
 702 86 l 1,37,38
 616 -28 616 -28 368 -28 c 0,0,1
410 574 m 0,39,40
 310 574 310 574 310 336 c 0,41,42
 310 298 310 298 316 258 c 1,43,-1
 486 522 l 1,44,45
 460 574 460 574 410 574 c 0,39,40
342 196 m 1,46,47
 363 167 363 167 393.5 167 c 128,-1,48
 424 167 424 167 442 175.5 c 128,-1,49
 460 184 460 184 472 201 c 0,50,51
 506 249 506 249 506 368 c 2,52,-1
 506 423 l 2,53,54
 506 438 506 438 504 453 c 1,55,-1
 342 196 l 1,46,47
EndSplineSet
EndChar

StartChar: Thorn
Encoding: 222 222 160
Width: 763
GlyphClass: 2
Flags: W
LayerCount: 2
Fore
SplineSet
368 690 m 1,0,-1
 500 686 l 1,1,-1
 534 686 l 2,2,3
 618 686 618 686 689 619.5 c 128,-1,4
 760 553 760 553 760 467 c 128,-1,5
 760 381 760 381 747 342 c 128,-1,6
 734 303 734 303 711 274 c 0,7,8
 642 189 642 189 466 173 c 1,9,-1
 370 168 l 1,10,-1
 368 115 l 1,11,12
 366 90 366 90 366 69 c 2,13,-1
 366 6 l 1,14,15
 364 -12 364 -12 349 -12 c 2,16,-1
 65 -17 l 1,17,18
 52 19 52 19 52 68 c 2,19,-1
 52 156 l 1,20,-1
 54 467 l 1,21,-1
 54 668 l 1,22,-1
 53 671 l 1,23,-1
 54 672 l 1,24,-1
 54 725 l 2,25,26
 54 777 54 777 66 810 c 1,27,-1
 350 806 l 1,28,29
 365 804 365 804 367 787 c 1,30,-1
 366 732 l 1,31,-1
 368 690 l 1,0,-1
370 332 m 1,32,33
 486 332 486 332 486 436 c 0,34,35
 486 501 486 501 426 514 c 1,36,37
 405 520 405 520 351 520 c 1,38,-1
 353 451 l 1,39,-1
 354 398 l 1,40,-1
 354 354 l 1,41,-1
 370 332 l 1,32,33
EndSplineSet
EndChar

StartChar: germandbls
Encoding: 223 223 161
Width: 779
GlyphClass: 2
Flags: W
LayerCount: 2
Fore
SplineSet
36 0 m 1,0,-1
 34 356 l 2,1,2
 34 400 34 400 34 444 c 128,-1,3
 34 488 34 488 36 530 c 1,4,5
 36 772 36 772 360 772 c 0,6,7
 594 772 594 772 676 680 c 1,8,9
 712 638 712 638 712 576 c 128,-1,10
 712 514 712 514 657 464 c 1,11,-1
 634 442 l 1,12,13
 607 420 607 420 607 409 c 128,-1,14
 607 398 607 398 616.5 390.5 c 128,-1,15
 626 383 626 383 639 375.5 c 128,-1,16
 652 368 652 368 666 361 c 128,-1,17
 680 354 680 354 697 342 c 0,18,19
 790 280 790 280 790 182 c 0,20,21
 790 -34 790 -34 499 -32 c 0,22,23
 405 -32 405 -32 350 17 c 1,24,-1
 350 16 l 1,25,26
 315 47 315 47 303 106 c 1,27,-1
 304 56 l 1,28,29
 304 -9 304 -9 296 -9 c 2,30,-1
 280 -9 l 1,31,32
 266 -10 266 -10 223 -11 c 1,33,-1
 74 -9 l 1,34,-1
 58 -9 l 2,35,36
 36 -9 36 -9 36 -5 c 2,37,-1
 36 0 l 1,0,-1
394 618 m 0,38,39
 304 618 304 618 304 494 c 1,40,-1
 302 488 l 1,41,42
 302 450 302 450 303 413 c 1,43,-1
 303 184 l 1,44,-1
 312 192 l 1,45,-1
 490 194 l 2,46,47
 508 194 508 194 508 167 c 128,-1,48
 508 140 508 140 520 140 c 1,49,-1
 530 142 l 1,50,-1
 532 142 l 1,51,52
 536 152 536 152 536 161 c 0,53,54
 536 188 536 188 498 213 c 0,55,56
 408 272 408 272 370 305 c 128,-1,57
 332 338 332 338 332 403 c 128,-1,58
 332 468 332 468 391 508.5 c 128,-1,59
 450 549 450 549 450 576 c 0,60,61
 450 618 450 618 394 618 c 0,38,39
523 138 m 1,62,-1
 524 138 l 1,63,-1
 523 138 l 1,62,-1
EndSplineSet
EndChar

StartChar: ae
Encoding: 230 230 168
Width: 1050
GlyphClass: 2
Flags: W
LayerCount: 2
Fore
SplineSet
884 24 m 1,0,-1
 738 22 l 2,1,2
 671 22 671 22 604 22 c 1,3,-1
 556 20 l 1,4,-1
 554 22 l 1,5,-1
 521 22 l 2,6,7
 467 22 467 22 465 36 c 1,8,-1
 446 112 l 2,9,10
 443 124 443 124 439 124 c 2,11,-1
 276 124 l 1,12,13
 270 104 270 104 265 80 c 128,-1,14
 260 56 260 56 254 34 c 1,15,16
 245 20 245 20 219 20 c 2,17,-1
 161 20 l 1,18,19
 146 19 146 19 130 19 c 2,20,-1
 16 19 l 1,21,-1
 -10 18 l 1,22,23
 -12 20 -12 20 -13 22 c 128,-1,24
 -14 24 -14 24 -16 26 c 1,25,-1
 -16 24 l 1,26,27
 -19 27 -19 27 -24 36 c 1,28,-1
 3 117 l 2,29,30
 17 158 17 158 31 202 c 2,31,-1
 190 680 l 1,32,33
 194 688 194 688 200 694 c 1,34,35
 213 694 213 694 227 693 c 1,36,-1
 327 693 l 1,37,38
 330 692 330 692 366 692 c 2,39,-1
 446 692 l 1,40,-1
 556 690 l 2,41,42
 567 690 567 690 589.5 690 c 128,-1,43
 612 690 612 690 658 691 c 1,44,-1
 684 691 l 1,45,-1
 728 692 l 1,46,-1
 791 692 l 1,47,48
 806 690 806 690 808 679 c 1,49,-1
 860 512 l 1,50,-1
 860 506 l 2,51,52
 860 503 860 503 850 495 c 1,53,-1
 824 496 l 1,54,-1
 732 497 l 2,55,56
 690 497 690 497 646 499 c 2,57,-1
 618 500 l 1,58,-1
 624 480 l 1,59,-1
 628 460 l 1,60,-1
 632 445 l 1,61,-1
 642 444 l 1,62,-1
 655 444 l 1,63,-1
 834 448 l 2,64,65
 859 448 859 448 862.5 432 c 128,-1,66
 866 416 866 416 868 410 c 2,67,-1
 874 391 l 2,68,69
 876 387 876 387 877 382.5 c 128,-1,70
 878 378 878 378 880 372 c 2,71,-1
 888 348 l 1,72,73
 892 332 892 332 897 320 c 128,-1,74
 902 308 902 308 906 297 c 2,75,-1
 910 284 l 1,76,77
 910 274 910 274 904 274 c 2,78,-1
 900 274 l 1,79,-1
 898 275 l 1,80,-1
 769 270 l 1,81,-1
 703 270 l 2,82,83
 698 270 698 270 690 271 c 1,84,85
 691 269 691 269 690.5 266.5 c 128,-1,86
 690 264 690 264 692 262 c 1,87,-1
 706 216 l 1,88,-1
 714 215 l 1,89,-1
 858 218 l 1,90,-1
 923 220 l 1,91,92
 956 220 956 220 964 206 c 1,93,-1
 974 171 l 2,94,95
 976 165 976 165 977 160.5 c 128,-1,96
 978 156 978 156 980 152 c 2,97,-1
 1005 72 l 1,98,-1
 1010 58 l 1,99,-1
 1013 46 l 2,100,101
 1016 38 1016 38 1016 29.5 c 128,-1,102
 1016 21 1016 21 1001 21 c 2,103,-1
 994 21 l 1,104,-1
 962 22 l 1,105,-1
 949 22 l 1,106,-1
 926 23 l 1,107,-1
 896 23 l 1,108,-1
 884 24 l 1,0,-1
317 376 m 2,109,110
 305 324 305 324 300 302 c 1,111,-1
 302 291 l 1,112,-1
 324 292 l 1,113,-1
 393 290 l 1,114,-1
 412 290 l 2,115,116
 424 290 424 290 424 299 c 128,-1,117
 424 308 424 308 421 318 c 128,-1,118
 418 328 418 328 416 338 c 1,119,-1
 412 350 l 2,120,121
 410 356 410 356 410 362 c 1,122,-1
 396 422 l 1,123,-1
 392 446 l 1,124,-1
 384 483 l 1,125,126
 382 487 382 487 381 492.5 c 128,-1,127
 380 498 380 498 378 505 c 2,128,-1
 373 529 l 2,129,130
 371 535 371 535 370 538.5 c 128,-1,131
 369 542 369 542 364 544 c 1,132,-1
 364 543 l 1,133,134
 352 540 352 540 340 476 c 1,135,-1
 336 452 l 2,136,137
 335 449 335 449 333.5 446.5 c 128,-1,138
 332 444 332 444 332 442 c 2,139,-1
 317 376 l 2,109,110
EndSplineSet
EndChar

StartChar: eth
Encoding: 240 240 178
Width: 726
GlyphClass: 2
Flags: W
LayerCount: 2
Fore
SplineSet
48 126 m 1,0,-1
 49 309 l 1,1,2
 36 308 36 308 26 308 c 2,3,-1
 4 308 l 1,4,-1
 -6 314 l 1,5,6
 -12 316 -12 316 -16 320 c 1,7,-1
 -15 350 l 2,8,9
 -14 366 -14 366 -14 380 c 1,10,-1
 -16 405 l 1,11,12
 -16 438 -16 438 2 438 c 2,13,-1
 48 438 l 1,14,-1
 48 474 l 1,15,-1
 46 512 l 1,16,-1
 46 552 l 1,17,18
 42 600 42 600 42 650 c 2,19,-1
 42 668 l 1,20,21
 40 670 40 670 40 677.5 c 128,-1,22
 40 685 40 685 54 685 c 1,23,-1
 54 686 l 1,24,-1
 60 685 l 2,25,26
 64 685 64 685 68 686 c 2,27,-1
 191 694 l 1,28,29
 191 694 191 694 306 694 c 0,30,31
 551 694 551 694 627.5 593.5 c 128,-1,32
 704 493 704 493 704 397 c 128,-1,33
 704 301 704 301 690 254 c 0,34,35
 651 121 651 121 534 59 c 0,36,37
 468 24 468 24 392 20 c 1,38,-1
 388 22 l 1,39,-1
 370 21 l 1,40,-1
 348 20 l 1,41,-1
 322 20 l 2,42,43
 310 20 310 20 294 21 c 128,-1,44
 278 22 278 22 230 22 c 128,-1,45
 182 22 182 22 102 20 c 2,46,-1
 58 19 l 1,47,48
 48 40 48 40 48 48 c 2,49,-1
 48 126 l 1,0,-1
302 468 m 1,50,-1
 300 438 l 1,51,52
 325 438 325 438 350 438 c 0,53,54
 366 438 366 438 366 396 c 2,55,-1
 366 340 l 2,56,57
 366 316 366 316 350 315 c 1,58,-1
 326 315 l 1,59,60
 314 314 314 314 302 314 c 1,61,-1
 302 276 l 2,62,63
 302 182 302 182 310 178 c 1,64,-1
 325 178 l 2,65,66
 409 178 409 178 428 262 c 0,67,68
 438 307 438 307 438 362 c 2,69,-1
 438 398 l 1,70,71
 436 408 436 408 436 430.5 c 128,-1,72
 436 453 436 453 424 484 c 1,73,-1
 425 484 l 1,74,75
 395 543 395 543 316 543 c 2,76,-1
 310 543 l 1,77,-1
 307 532 l 1,78,-1
 300 522 l 1,79,-1
 302 496 l 1,80,-1
 302 468 l 1,50,-1
EndSplineSet
EndChar

StartChar: divide
Encoding: 247 247 185
Width: 641
GlyphClass: 2
Flags: W
LayerCount: 2
Fore
SplineSet
59 176 m 1,0,1
 46 191 46 191 46 264.5 c 128,-1,2
 46 338 46 338 72 344 c 1,3,4
 72 344 72 344 166 344 c 1,5,-1
 435 339 l 1,6,7
 435 339 435 339 484 339 c 256,8,9
 533 339 533 339 582 340 c 0,10,11
 591 340 591 340 591 322 c 2,12,-1
 588 232 l 1,13,-1
 588 202 l 1,14,15
 578 188 578 188 571.5 188 c 128,-1,16
 565 188 565 188 561 192 c 1,17,-1
 560 192 l 1,18,-1
 484 190 l 2,19,20
 446 188 446 188 410 188 c 2,21,-1
 398 188 l 1,22,-1
 59 176 l 1,0,1
313 149 m 128,-1,24
 337 149 337 149 351.5 143.5 c 128,-1,25
 366 138 366 138 378 128 c 128,-1,26
 390 118 390 118 397 103 c 128,-1,27
 404 88 404 88 404 70 c 128,-1,28
 404 52 404 52 389.5 19 c 128,-1,29
 375 -14 375 -14 345.5 -14 c 128,-1,30
 316 -14 316 -14 296 -7 c 0,31,32
 242 12 242 12 242 57 c 128,-1,33
 242 102 242 102 265.5 125.5 c 128,-1,23
 289 149 289 149 313 149 c 128,-1,24
268 517.5 m 128,-1,35
 292 540 292 540 316 540 c 0,36,37
 356 540 356 540 381 519 c 128,-1,38
 406 498 406 498 406 473 c 0,39,40
 406 440 406 440 385.5 411 c 128,-1,41
 365 382 365 382 336 382 c 128,-1,42
 307 382 307 382 292.5 387.5 c 128,-1,43
 278 393 278 393 268 404 c 1,44,45
 244 427 244 427 244 461 c 128,-1,34
 244 495 244 495 268 517.5 c 128,-1,35
EndSplineSet
EndChar

StartChar: oslash
Encoding: 248 248 186
Width: 727
GlyphClass: 2
Flags: W
LayerCount: 2
Fore
SplineSet
152 -77 m 1,0,-1
 138 -74 l 1,1,-1
 134 -74 l 2,2,3
 130 -74 130 -74 128 -72 c 1,4,-1
 105 -64 l 1,5,6
 112 -22 112 -22 129 7 c 1,7,-1
 154 57 l 1,8,-1
 104 97 l 1,9,10
 23 174 23 174 10 332 c 1,11,-1
 9 362 l 1,12,-1
 10 373 l 1,13,14
 27 539 27 539 97 612 c 1,15,-1
 109 624 l 1,16,17
 131 649 131 649 182 672 c 1,18,-1
 201 680 l 2,19,20
 269 708 269 708 309 708 c 128,-1,21
 349 708 349 708 370.5 708.5 c 128,-1,22
 392 709 392 709 413 709 c 128,-1,23
 434 709 434 709 494 690 c 1,24,-1
 558 807 l 2,25,26
 560 810 560 810 565.5 810 c 128,-1,27
 571 810 571 810 577 808 c 2,28,-1
 588 804 l 1,29,-1
 601 797 l 2,30,31
 605 795 605 795 610.5 793.5 c 128,-1,32
 616 792 616 792 616 781 c 128,-1,33
 616 770 616 770 594 729 c 2,34,-1
 574 693 l 2,35,36
 564 675 564 675 558 662 c 1,37,38
 596 641 596 641 619 610 c 2,39,-1
 629 596 l 1,40,41
 701 506 701 506 701 375 c 128,-1,42
 701 244 701 244 676.5 199 c 128,-1,43
 652 154 652 154 635 132 c 2,44,-1
 615 107 l 2,45,46
 535 7 535 7 341 7 c 0,47,48
 291 7 291 7 224 26 c 1,49,-1
 206 -10 l 2,50,51
 172 -77 172 -77 152 -77 c 1,0,-1
356 528 m 0,52,53
 263 528 263 528 263 382 c 2,54,-1
 263 358 l 2,55,56
 263 316 263 316 269 272 c 1,57,-1
 400 514 l 1,58,59
 384 528 384 528 356 528 c 0,52,53
348 182 m 0,60,61
 448 182 448 182 448 358 c 2,62,-1
 448 376 l 2,63,64
 448 416 448 416 442 442 c 1,65,-1
 312 191 l 1,66,67
 328 182 328 182 348 182 c 0,60,61
EndSplineSet
EndChar

StartChar: thorn
Encoding: 254 254 192
Width: 683
GlyphClass: 2
Flags: W
LayerCount: 2
Fore
SplineSet
48 798 m 1,0,-1
 46 848 l 1,1,2
 50 866 50 866 85 866 c 2,3,-1
 315 866 l 1,4,5
 320 856 320 856 320 834 c 2,6,-1
 320 693 l 1,7,-1
 432 688 l 1,8,9
 432 688 432 688 466 688 c 0,10,11
 624 688 624 688 670 520 c 1,12,13
 676 494 676 494 676 450 c 0,14,15
 676 358 676 358 576 277 c 1,16,17
 514 244 514 244 428 240 c 1,18,-1
 412 238 l 2,19,20
 400 236 400 236 380 236 c 2,21,-1
 332 236 l 2,22,23
 330 236 330 236 327 235 c 1,24,25
 327 104 327 104 331 37 c 1,26,27
 328 20 328 20 292 20 c 2,28,-1
 56 20 l 1,29,30
 53 28 53 28 51 36 c 2,31,-1
 46 51 l 1,32,-1
 46 206 l 2,33,34
 46 218 46 218 48 228 c 1,35,-1
 48 353 l 1,36,-1
 49 670 l 1,37,-1
 49 676 l 1,38,-1
 48 798 l 1,0,-1
426 468 m 0,39,40
 426 538 426 538 317 538 c 2,41,-1
 313 538 l 1,42,-1
 308 530 l 1,43,-1
 308 495 l 1,44,-1
 306 478 l 2,45,46
 303 449 303 449 303 437 c 2,47,-1
 303 421 l 1,48,-1
 315 385 l 2,49,50
 314 385 314 385 314 387 c 1,51,52
 316 386 316 386 320 386 c 0,53,54
 426 386 426 386 426 468 c 0,39,40
EndSplineSet
EndChar

StartChar: dotlessi
Encoding: 305 305 194
Width: 334
GlyphClass: 2
Flags: W
LayerCount: 2
Fore
SplineSet
24 -2 m 1,0,-1
 23 42 l 1,1,2
 23 122 23 122 25 198 c 1,3,-1
 26 302 l 1,4,5
 26 302 26 302 30 499 c 1,6,-1
 30 512 l 2,7,8
 30 524 30 524 40 523 c 1,9,-1
 78 524 l 1,10,-1
 103 523 l 1,11,-1
 166 524 l 1,12,-1
 278 522 l 1,13,14
 278 522 278 522 290 522 c 0,15,16
 298 522 298 522 298 510 c 2,17,-1
 298 479 l 1,18,-1
 299 410 l 2,19,20
 300 376 300 376 300 340 c 1,21,-1
 308 190 l 1,22,-1
 308 177 l 1,23,-1
 307 169 l 1,24,-1
 308 152 l 1,25,-1
 308 84 l 2,26,27
 308 -12 308 -12 286 -12 c 2,28,-1
 146 -12 l 1,29,-1
 126 -14 l 1,30,31
 83 -14 83 -14 40 -14 c 1,32,-1
 24 -2 l 1,0,-1
EndSplineSet
EndChar

StartChar: Lslash
Encoding: 321 321 195
Width: 632
GlyphClass: 2
Flags: W
LayerCount: 2
Fore
SplineSet
146 -17 m 1,0,-1
 64 -16 l 1,1,2
 51 4 51 4 51 42 c 2,3,-1
 52 84 l 1,4,-1
 52 286 l 1,5,-1
 36 280 l 1,6,7
 18 271 18 271 -3 281 c 1,8,-1
 -11 302 l 1,9,-1
 -18 324 l 2,10,11
 -20 332 -20 332 -24 342 c 0,12,13
 -39 380 -39 380 -39 396.5 c 128,-1,14
 -39 413 -39 413 52 442 c 1,15,-1
 52 464 l 1,16,-1
 53 554 l 1,17,-1
 50 668 l 1,18,19
 50 750 50 750 62.5 754 c 128,-1,20
 75 758 75 758 82 758 c 2,21,-1
 98 758 l 1,22,-1
 202 760 l 1,23,24
 360 760 360 760 366 733 c 1,25,-1
 362 562 l 1,26,-1
 362 552 l 1,27,-1
 434 579 l 2,28,29
 448 584 448 584 459 584 c 128,-1,30
 470 584 470 584 489 526 c 1,31,-1
 510 472 l 1,32,33
 518 456 518 456 499 450 c 2,34,-1
 360 400 l 1,35,-1
 358 396 l 1,36,-1
 358 217 l 1,37,-1
 371 210 l 1,38,39
 420 214 420 214 456 214 c 2,40,-1
 568 215 l 2,41,42
 632 215 632 215 632 196 c 1,43,-1
 629 176 l 1,44,-1
 629 160 l 2,45,46
 629 137 629 137 632 122 c 1,47,-1
 632 4 l 1,48,49
 626 -14 626 -14 410 -14 c 1,50,-1
 146 -17 l 1,0,-1
EndSplineSet
EndChar

StartChar: lslash
Encoding: 322 322 196
Width: 564
GlyphClass: 2
Flags: W
LayerCount: 2
Fore
SplineSet
-6 256 m 1,0,1
 -18 258 -18 258 -28 258 c 1,2,3
 -32 266 -32 266 -35 275 c 2,4,-1
 -54 321 l 1,5,6
 -62 337 -62 337 -62 348.5 c 128,-1,7
 -62 360 -62 360 -55 364 c 2,8,-1
 48 408 l 1,9,-1
 48 514 l 1,10,-1
 44 608 l 1,11,12
 44 680 44 680 62 694 c 1,13,14
 140 692 140 692 216 692 c 0,15,16
 260 692 260 692 303 692 c 1,17,-1
 316 690 l 1,18,-1
 320 690 l 1,19,20
 328 689 328 689 338 669 c 1,21,-1
 338 662 l 2,22,23
 338 646 338 646 336 630 c 1,24,-1
 336 608 l 1,25,26
 335 599 335 599 335 588.5 c 128,-1,27
 335 578 335 578 334 568 c 2,28,-1
 333 534 l 1,29,-1
 372 552 l 2,30,31
 378 554 378 554 393.5 563 c 128,-1,32
 409 572 409 572 418 572 c 0,33,34
 432 572 432 572 453 526 c 1,35,-1
 462 503 l 2,36,37
 474 473 474 473 460 466 c 2,38,-1
 326 406 l 1,39,-1
 326 381 l 1,40,41
 325 365 325 365 325 349 c 2,42,-1
 325 288 l 2,43,44
 325 252 325 252 323 224 c 1,45,46
 434 224 434 224 545 224 c 0,47,48
 561 224 561 224 561 207 c 2,49,-1
 561 91 l 1,50,51
 562 65 562 65 562 40 c 1,52,53
 559 22 559 22 513 22 c 2,54,-1
 478 22 l 1,55,-1
 348 20 l 1,56,-1
 207 20 l 1,57,-1
 174 19 l 1,58,-1
 172 19 l 1,59,-1
 152 18 l 1,60,61
 103 18 103 18 54 18 c 1,62,-1
 42 34 l 1,63,-1
 42 194 l 1,64,-1
 44 226 l 1,65,-1
 44 264 l 2,66,67
 44 272 44 272 46 279 c 1,68,-1
 -6 256 l 1,0,1
EndSplineSet
EndChar

StartChar: OE
Encoding: 338 338 197
Width: 996
GlyphClass: 2
Flags: W
LayerCount: 2
Fore
SplineSet
774 204 m 2,0,-1
 924 203 l 2,1,2
 945 203 945 203 960.5 203 c 128,-1,3
 976 203 976 203 979 192 c 1,4,-1
 978 0 l 2,5,6
 978 -8 978 -8 973 -8 c 128,-1,7
 968 -8 968 -8 963 -4 c 1,8,-1
 514 -10 l 1,9,-1
 412 -12 l 1,10,11
 286 -12 286 -12 210 29 c 1,12,13
 69 82 69 82 28 255 c 0,14,15
 16 306 16 306 16 340 c 0,16,17
 16 558 16 558 120 662 c 0,18,19
 140 682 140 682 166 694 c 1,20,-1
 214 722 l 1,21,22
 312 756 312 756 388 756 c 128,-1,23
 464 756 464 756 496 753 c 128,-1,24
 528 750 528 750 560 747 c 1,25,-1
 964 756 l 1,26,27
 980 754 980 754 980 740 c 2,28,-1
 982 547 l 1,29,-1
 964 528 l 1,30,31
 912 530 912 530 859 530 c 128,-1,32
 806 530 806 530 754 531 c 1,33,-1
 752 480 l 1,34,-1
 799 482 l 1,35,-1
 846 482 l 1,36,-1
 921 483 l 2,37,38
 952 483 952 483 953.5 470.5 c 128,-1,39
 955 458 955 458 955 446 c 2,40,-1
 954 276 l 1,41,42
 952 264 952 264 940 261 c 1,43,44
 846 261 846 261 750 263 c 1,45,-1
 750 203 l 1,46,47
 762 204 762 204 774 204 c 2,0,-1
304 324 m 1,48,49
 304 155 304 155 387 155 c 0,50,51
 438 155 438 155 466 169 c 1,52,-1
 474 184 l 1,53,54
 471 248 471 248 465 562 c 1,55,-1
 418 578 l 1,56,-1
 396 578 l 2,57,58
 328 578 328 578 308 456 c 0,59,60
 304 431 304 431 304 414 c 2,61,-1
 304 392 l 1,62,63
 305 370 305 370 305 353 c 2,64,-1
 304 324 l 1,48,49
431 192 m 2,65,-1
 430 191 l 2,66,67
 430 192 430 192 431 192 c 2,65,-1
EndSplineSet
EndChar

StartChar: oe
Encoding: 339 339 198
Width: 971
GlyphClass: 2
Flags: W
LayerCount: 2
Fore
SplineSet
488 32 m 1,0,1
 428 -21 428 -21 332.5 -21 c 128,-1,2
 237 -21 237 -21 192 -6 c 1,3,4
 108 20 108 20 62 88 c 128,-1,5
 16 156 16 156 16 207 c 0,6,7
 16 364 16 364 55 411 c 0,8,9
 166 544 166 544 267 544 c 2,10,-1
 316 544 l 1,11,12
 326 546 326 546 345 546 c 2,13,-1
 372 546 l 2,14,15
 416 546 416 546 497 497 c 1,16,17
 570 551 570 551 684 551 c 0,18,19
 961 551 961 551 961 254 c 1,20,-1
 960 214 l 1,21,-1
 945 196 l 1,22,-1
 810 197 l 1,23,-1
 664 197 l 1,24,25
 636 198 636 198 608 198 c 1,26,-1
 608 190 l 2,27,28
 608 128 608 128 661 128 c 0,29,30
 680 128 680 128 694 142 c 2,31,-1
 704 153 l 2,32,33
 708 158 708 158 716 159 c 1,34,-1
 752 158 l 1,35,-1
 914 161 l 2,36,37
 942 161 942 161 942 146.5 c 128,-1,38
 942 132 942 132 936 116 c 1,39,-1
 925 92 l 1,40,41
 861 -26 861 -26 703.5 -26 c 128,-1,42
 546 -26 546 -26 488 32 c 1,0,1
400 284 m 2,43,44
 400 406 400 406 326 406 c 128,-1,45
 252 406 252 406 252 260.5 c 128,-1,46
 252 115 252 115 321 115 c 0,47,48
 400 115 400 115 400 254 c 2,49,-1
 400 284 l 2,43,44
704 314 m 1,50,51
 748 314 748 314 748 332 c 2,52,-1
 748 348 l 2,53,54
 748 389 748 389 719 403.5 c 128,-1,55
 690 418 690 418 673 418 c 0,56,57
 642 418 642 418 622.5 391 c 128,-1,58
 603 364 603 364 603 340 c 128,-1,59
 603 316 603 316 612 316 c 2,60,-1
 628 316 l 1,61,-1
 704 314 l 1,50,51
EndSplineSet
EndChar

StartChar: Scaron
Encoding: 352 352 199
Width: 743
GlyphClass: 2
Flags: W
LayerCount: 2
Fore
SplineSet
732 243 m 0,0,1
 732 -28 732 -28 352 -28 c 0,2,3
 118 -28 118 -28 61 86 c 1,4,5
 23 139 23 139 23 180.5 c 128,-1,6
 23 222 23 222 27 222 c 2,7,-1
 40 221 l 1,8,-1
 50 221 l 1,9,-1
 292 225 l 2,10,11
 311 225 311 225 318.5 204.5 c 128,-1,12
 326 184 326 184 336 171 c 0,13,14
 353 149 353 149 382.5 157.5 c 128,-1,15
 412 166 412 166 426 177 c 128,-1,16
 440 188 440 188 440 206.5 c 128,-1,17
 440 225 440 225 424 239 c 128,-1,18
 408 253 408 253 376 260.5 c 128,-1,19
 344 268 344 268 326.5 272 c 128,-1,20
 309 276 309 276 290 280 c 0,21,22
 29 337 29 337 28 490 c 0,23,24
 26 654 26 654 137.5 716 c 128,-1,25
 249 778 249 778 390.5 778 c 128,-1,26
 532 778 532 778 614 726 c 1,27,-1
 615 726 l 1,28,-1
 665 682 l 1,29,30
 705 637 705 637 712 552 c 1,31,-1
 694 534 l 1,32,33
 568 528 568 528 535 528 c 128,-1,34
 502 528 502 528 468.5 529.5 c 128,-1,35
 435 531 435 531 430.5 535 c 128,-1,36
 426 539 426 539 423.5 544.5 c 128,-1,37
 421 550 421 550 419.5 556 c 128,-1,38
 418 562 418 562 411.5 570 c 128,-1,39
 405 578 405 578 390 578 c 0,40,41
 315 578 315 578 315 548 c 0,42,43
 315 514 315 514 418 496 c 1,44,-1
 436 494 l 1,45,46
 670 440 670 440 718 322 c 0,47,48
 732 288 732 288 732 243 c 0,0,1
372 1036 m 1,49,-1
 416 1106 l 1,50,-1
 601 1106 l 1,51,52
 608 1104 608 1104 608 1095 c 128,-1,53
 608 1086 608 1086 597 1065 c 1,54,-1
 585 1048 l 1,55,-1
 574 1034 l 1,56,57
 562 1016 562 1016 552 996 c 0,58,59
 512 917 512 917 480 912 c 128,-1,60
 448 907 448 907 382.5 907 c 128,-1,61
 317 907 317 907 260 904 c 1,62,63
 233 925 233 925 211 962.5 c 128,-1,64
 189 1000 189 1000 182.5 1009.5 c 128,-1,65
 176 1019 176 1019 173 1024.5 c 128,-1,66
 170 1030 170 1030 166 1036 c 128,-1,67
 162 1042 162 1042 156 1050 c 128,-1,68
 150 1058 150 1058 141 1072.5 c 128,-1,69
 132 1087 132 1087 132 1098.5 c 128,-1,70
 132 1110 132 1110 170 1110 c 2,71,-1
 243 1110 l 2,72,73
 335 1110 335 1110 345.5 1086 c 128,-1,74
 356 1062 356 1062 362 1053 c 2,75,-1
 372 1036 l 1,49,-1
EndSplineSet
EndChar

StartChar: florin
Encoding: 402 402 204
Width: 748
GlyphClass: 2
Flags: W
LayerCount: 2
Fore
SplineSet
507 458 m 1,0,1
 560 448 560 448 585.5 448 c 128,-1,2
 611 448 611 448 614 440 c 1,3,-1
 614 396 l 1,4,-1
 616 345 l 1,5,6
 618 320 618 320 618 293.5 c 128,-1,7
 618 267 618 267 608 265 c 1,8,9
 575 262 575 262 542.5 262 c 128,-1,10
 510 262 510 262 477 258 c 1,11,-1
 464 183 l 1,12,-1
 455 138 l 1,13,14
 451 111 451 111 446.5 77.5 c 128,-1,15
 442 44 442 44 436 8 c 0,16,17
 398 -216 398 -216 205 -216 c 0,18,19
 102 -216 102 -216 73 -201 c 128,-1,20
 44 -186 44 -186 44 -177.5 c 128,-1,21
 44 -169 44 -169 48 -163 c 1,22,23
 49 -157 49 -157 50 -143 c 2,24,-1
 54 -113 l 1,25,26
 66 -14 66 -14 78 -14 c 2,27,-1
 92 -14 l 2,28,29
 95 -14 95 -14 96.5 -11 c 128,-1,30
 98 -8 98 -8 101 -5 c 1,31,-1
 98 -19 l 1,32,33
 114 -26 114 -26 129 -26 c 128,-1,34
 144 -26 144 -26 154 -11 c 128,-1,35
 164 4 164 4 172 43 c 128,-1,36
 180 82 180 82 188 138 c 128,-1,37
 196 194 196 194 206 252 c 1,38,-1
 194 252 l 2,39,40
 186 252 186 252 173 253 c 128,-1,41
 160 254 160 254 146 254.5 c 128,-1,42
 132 255 132 255 116 256 c 1,43,-1
 108 267 l 2,44,45
 104 273 104 273 101 278 c 1,46,-1
 100 357 l 1,47,48
 100 448 100 448 121 454 c 1,49,50
 184 460 184 460 238 468 c 1,51,-1
 241 490 l 2,52,53
 275 745 275 745 424 766 c 0,54,55
 453 770 453 770 472 770 c 2,56,-1
 504 770 l 2,57,58
 640 770 640 770 651 740 c 1,59,-1
 626 578 l 2,60,61
 624 568 624 568 619 568 c 2,62,-1
 611 568 l 2,63,64
 606 568 606 568 600 569 c 2,65,-1
 588 572 l 1,66,-1
 574 574 l 1,67,68
 568 576 568 576 563 576 c 1,69,-1
 563 577 l 1,70,-1
 564 580 l 1,71,-1
 557 580 l 2,72,73
 533 580 533 580 526 550 c 1,74,-1
 525 550 l 2,75,76
 521 550 521 550 516 511 c 1,77,-1
 510 481 l 2,78,79
 508 466 508 466 507 458 c 1,0,1
EndSplineSet
EndChar

StartChar: circumflex
Encoding: 710 710 233
Width: 355
GlyphClass: 2
Flags: W
LayerCount: 2
Fore
SplineSet
-29 676 m 1,0,1
 -66 676 -66 676 -66 685 c 2,2,-1
 -66 699 l 1,3,-1
 22 822 l 1,4,5
 32 834 32 834 36 843 c 1,6,7
 53 869 53 869 120 872 c 1,8,-1
 290 874 l 1,9,10
 304 872 304 872 322 844.5 c 128,-1,11
 340 817 340 817 346 809 c 2,12,-1
 390 746 l 1,13,-1
 401 732 l 2,14,15
 426 699 426 699 426 687.5 c 128,-1,16
 426 676 426 676 408 676 c 2,17,-1
 343 676 l 2,18,19
 296 676 296 676 224 672 c 1,20,21
 202 683 202 683 192 705.5 c 128,-1,22
 182 728 182 728 177 736 c 1,23,24
 175 734 175 734 170 724 c 0,25,26
 143 676 143 676 128 676 c 2,27,-1
 0 678 l 1,28,-1
 -29 676 l 1,0,1
EndSplineSet
EndChar

StartChar: caron
Encoding: 711 711 234
Width: 355
GlyphClass: 2
Flags: W
LayerCount: 2
Fore
SplineSet
166 672 m 1,0,-1
 124 670 l 1,1,-1
 64 670 l 1,2,-1
 50 682 l 1,3,-1
 -42 816 l 1,4,5
 -68 851 -68 851 -68 860.5 c 128,-1,6
 -68 870 -68 870 -54 876 c 1,7,-1
 92 872 l 1,8,-1
 116 872 l 2,9,10
 139 872 139 872 161 835 c 2,11,-1
 180 802 l 1,12,-1
 226 872 l 1,13,-1
 349 871 l 1,14,-1
 411 871 l 1,15,16
 422 872 422 872 422 863 c 0,17,18
 422 849 422 849 396 813 c 1,19,-1
 340 730 l 2,20,21
 332 718 332 718 326 707 c 0,22,23
 307 672 307 672 250 672 c 2,24,-1
 166 672 l 1,0,-1
EndSplineSet
EndChar

StartChar: breve
Encoding: 728 728 235
Width: 341
GlyphClass: 2
Flags: W
LayerCount: 2
Fore
SplineSet
-42 865 m 2,0,1
 -38 870 -38 870 -36 873 c 128,-1,2
 -34 876 -34 876 -12 876 c 2,3,-1
 32 874 l 1,4,-1
 97 872 l 2,5,6
 127 872 127 872 131.5 861 c 128,-1,7
 136 850 136 850 141.5 830 c 128,-1,8
 147 810 147 810 168.5 810 c 128,-1,9
 190 810 190 810 197 818 c 128,-1,10
 204 826 204 826 208 836 c 128,-1,11
 212 846 212 846 215 856 c 128,-1,12
 218 866 218 866 226 870 c 1,13,14
 270 868 270 868 312 868 c 2,15,-1
 356 867 l 1,16,-1
 369 868 l 1,17,18
 389 868 389 868 389 852 c 1,19,20
 355 667 355 667 181.5 667 c 128,-1,21
 8 667 8 667 -36 802 c 0,22,23
 -44 828 -44 828 -50 854 c 1,24,-1
 -42 865 l 2,0,1
EndSplineSet
EndChar

StartChar: dotaccent
Encoding: 729 729 236
Width: 327
GlyphClass: 2
Flags: W
LayerCount: 2
Fore
SplineSet
263 580 m 1,0,1
 262 572 262 572 261 560 c 128,-1,2
 260 548 260 548 232 548 c 2,3,-1
 174 548 l 1,4,-1
 80 546 l 1,5,6
 74 552 74 552 71 558 c 2,7,-1
 63 570 l 1,8,-1
 69 720 l 1,9,10
 69 746 69 746 83 746 c 2,11,12
 83 746 83 746 186 746 c 1,13,-1
 250 744 l 1,14,15
 261 741 261 741 261 721 c 1,16,-1
 260 702 l 1,17,-1
 260 698 l 1,18,-1
 262 659 l 1,19,-1
 263 596 l 1,20,-1
 263 580 l 1,0,1
EndSplineSet
EndChar

StartChar: ring
Encoding: 730 730 237
Width: 299
GlyphClass: 2
Flags: W
LayerCount: 2
Fore
SplineSet
-1 822 m 1,0,-1
 0 824 l 1,1,2
 11 920 11 920 85 957 c 0,3,4
 111 970 111 970 143 970 c 128,-1,5
 175 970 175 970 202.5 959 c 128,-1,6
 230 948 230 948 251 929 c 128,-1,7
 272 910 272 910 284 883 c 128,-1,8
 296 856 296 856 296 824 c 0,9,10
 296 764 296 764 252.5 721 c 128,-1,11
 209 678 209 678 163 678 c 0,12,13
 87 678 87 678 46.5 721 c 128,-1,14
 6 764 6 764 -1 822 c 1,0,-1
148 880 m 0,15,16
 98 880 98 880 90 829 c 1,17,18
 90 789 90 789 130 774 c 0,19,20
 140 770 140 770 150 770 c 0,21,22
 202 770 202 770 202 824 c 0,23,24
 202 862 202 862 180 871 c 128,-1,25
 158 880 158 880 148 880 c 0,15,16
EndSplineSet
EndChar

StartChar: ogonek
Encoding: 731 731 238
Width: 316
GlyphClass: 2
Flags: W
LayerCount: 2
Fore
SplineSet
56 -144 m 0,0,1
 56 -59 56 -59 152 0 c 0,2,3
 184 20 184 20 224 20 c 2,4,-1
 305 20 l 1,5,-1
 323 4 l 1,6,7
 324 0 324 0 320 -4 c 1,8,-1
 324 -11 l 1,9,-1
 312 -10 l 1,10,-1
 278 -31 l 1,11,12
 209 -76 209 -76 209 -111 c 128,-1,13
 209 -146 209 -146 245.5 -146 c 128,-1,14
 282 -146 282 -146 300 -138 c 1,15,16
 299 -138 299 -138 299 -136 c 1,17,-1
 302 -138 l 1,18,19
 308 -136 308 -136 312 -136 c 0,20,21
 323 -136 323 -136 332 -190 c 2,22,-1
 336 -212 l 1,23,24
 336 -244 336 -244 196 -244 c 128,-1,25
 56 -244 56 -244 56 -144 c 0,0,1
EndSplineSet
EndChar

StartChar: tilde
Encoding: 732 732 239
Width: 349
GlyphClass: 2
Flags: W
LayerCount: 2
Fore
SplineSet
180 685.5 m 128,-1,1
 152 696 152 696 129 703 c 128,-1,2
 106 710 106 710 93 710 c 128,-1,3
 80 710 80 710 79.5 697 c 128,-1,4
 79 684 79 684 74 684 c 2,5,-1
 72 684 l 1,6,7
 39 682 39 682 7 682 c 2,8,-1
 -57 680 l 1,9,10
 -67 683 -67 683 -67 699 c 0,11,12
 -67 873 -67 873 85 873 c 0,13,14
 116 873 116 873 154 861 c 1,15,-1
 188 852 l 2,16,17
 204 848 204 848 218 844 c 2,18,-1
 232 840 l 1,19,-1
 237 840 l 1,20,21
 242 847 242 847 242 856 c 1,22,-1
 259 870 l 1,23,-1
 385 868 l 2,24,25
 397 868 397 868 402 852 c 1,26,27
 395 675 395 675 254 675 c 0,28,0
 208 675 208 675 180 685.5 c 128,-1,1
242 845 m 1,29,-1
 242 846 l 1,30,-1
 242 845 l 1,29,-1
EndSplineSet
EndChar

StartChar: hungarumlaut
Encoding: 733 733 240
Width: 387
GlyphClass: 2
Flags: W
LayerCount: 2
Fore
SplineSet
95 880 m 1,0,-1
 223 876 l 1,1,2
 232 874 232 874 232 867.5 c 128,-1,3
 232 861 232 861 230 858 c 2,4,-1
 106 717 l 2,5,6
 74 680 74 680 48 680 c 128,-1,7
 22 680 22 680 0 679 c 2,8,-1
 -109 676 l 1,9,-1
 -116 688 l 2,10,11
 -118 691 -118 691 -119.5 694 c 128,-1,12
 -121 697 -121 697 -123 700 c 1,13,-1
 -28 861 l 2,14,15
 -22 872 -22 872 -12 882 c 1,16,-1
 31 881 l 1,17,-1
 95 880 l 1,0,-1
186 678 m 1,18,-1
 170 676 l 1,19,-1
 162 688 l 1,20,-1
 156 701 l 1,21,-1
 234 830 l 1,22,-1
 241 844 l 2,23,24
 256 874 256 874 268 881 c 1,25,-1
 300 880 l 1,26,-1
 424 878 l 1,27,-1
 503 876 l 1,28,29
 513 874 513 874 513 870 c 2,30,-1
 512 864 l 1,31,-1
 370 698 l 1,32,-1
 360 688 l 2,33,34
 350 678 350 678 346 700 c 1,35,36
 330 698 330 698 314 695 c 2,37,-1
 186 678 l 1,18,-1
EndSplineSet
EndChar

StartChar: uni030F
Encoding: 783 783 241
Width: 391
GlyphClass: 2
Flags: W
LayerCount: 2
Fore
SplineSet
76 679 m 1,0,-1
 65 678 l 1,1,2
 34 678 34 678 22 694 c 128,-1,3
 10 710 10 710 0 721 c 2,4,-1
 -122 864 l 2,5,6
 -122 865 -122 865 -123 867 c 1,7,8
 -123 873 -123 873 -113 876 c 1,9,-1
 28 879 l 1,10,-1
 90 880 l 1,11,-1
 122 881 l 1,12,13
 139 867 139 867 145.5 851.5 c 128,-1,14
 152 836 152 836 156 830 c 2,15,-1
 234 701 l 1,16,-1
 228 688 l 1,17,-1
 220 676 l 1,18,-1
 204 678 l 1,19,-1
 122 676 l 1,20,21
 106 678 106 678 100 678 c 2,22,-1
 89 678 l 2,23,24
 84 678 84 678 76 679 c 1,0,-1
207 876 m 1,25,-1
 335 880 l 1,26,-1
 399 881 l 1,27,-1
 442 882 l 1,28,29
 450 872 450 872 457 861 c 2,30,-1
 553 700 l 1,31,32
 551 697 551 697 549.5 694 c 128,-1,33
 548 691 548 691 546 688 c 2,34,-1
 539 676 l 1,35,-1
 430 679 l 1,36,37
 367 679 367 679 352.5 690 c 128,-1,38
 338 701 338 701 324 717 c 2,39,-1
 200 858 l 2,40,41
 198 861 198 861 198 867.5 c 128,-1,42
 198 874 198 874 207 876 c 1,25,-1
EndSplineSet
EndChar

StartChar: uni0311
Encoding: 785 785 242
Width: 341
GlyphClass: 2
Flags: W
LayerCount: 2
Fore
SplineSet
97 672 m 1,0,-1
 32 669 l 1,1,-1
 -12 668 l 2,2,3
 -18 668 -18 668 -21 667.5 c 128,-1,4
 -24 667 -24 667 -25 667 c 0,5,6
 -35 671 -35 671 -42 678 c 1,7,-1
 -50 690 l 1,8,9
 -27 791 -27 791 7.5 818.5 c 128,-1,10
 42 846 42 846 78 861 c 128,-1,11
 114 876 114 876 156 876 c 0,12,13
 228 876 228 876 293.5 845.5 c 128,-1,14
 359 815 359 815 389 691 c 1,15,16
 389 676 389 676 369 676 c 2,17,-1
 356 676 l 1,18,-1
 226 674 l 1,19,20
 217 678 217 678 214 688 c 0,21,22
 203 733 203 733 176 733 c 128,-1,23
 149 733 149 733 142 713 c 128,-1,24
 135 693 135 693 134 688 c 0,25,26
 129 672 129 672 97 672 c 1,0,-1
EndSplineSet
EndChar

StartChar: uni0326
Encoding: 806 806 243
Width: 367
GlyphClass: 2
Flags: W
LayerCount: 2
Fore
SplineSet
336 -111 m 1,0,-1
 266 -335 l 2,1,2
 258 -358 258 -358 250 -380 c 2,3,-1
 234 -426 l 1,4,5
 228 -438 228 -438 166 -438 c 2,6,7
 166 -438 166 -438 61 -438 c 0,8,9
 17 -438 17 -438 12 -437 c 1,10,-1
 -4 -422 l 1,11,12
 -1 -410 -1 -410 3 -389 c 2,13,-1
 36 -237 l 2,14,15
 66 -98 66 -98 82 -97.5 c 128,-1,16
 98 -97 98 -97 113 -97 c 2,17,-1
 188 -97 l 1,18,-1
 260 -96 l 1,19,20
 336 -96 336 -96 336 -111 c 1,0,-1
EndSplineSet
EndChar

StartChar: Omega
Encoding: 937 937 244
Width: 925
GlyphClass: 2
Flags: W
LayerCount: 2
Fore
SplineSet
884 -6 m 2,0,-1
 677 -15 l 1,1,2
 590 -15 590 -15 492 -9 c 0,3,4
 484 -8 484 -8 484 11 c 2,5,-1
 484 118 l 2,6,7
 484 132 484 132 489 132 c 1,8,9
 624 227 624 227 624 368.5 c 128,-1,10
 624 510 624 510 540 562 c 1,11,12
 475 601 475 601 421.5 577.5 c 128,-1,13
 368 554 368 554 334 514.5 c 128,-1,14
 300 475 300 475 300 416 c 0,15,16
 300 238 300 238 405 160 c 1,17,-1
 422 150 l 1,18,19
 430 144 430 144 437 139 c 128,-1,20
 444 134 444 134 444 129 c 2,21,-1
 446 0 l 1,22,23
 444 -10 444 -10 440 -10 c 128,-1,24
 436 -10 436 -10 430 -8 c 1,25,-1
 42 -16 l 1,26,27
 26 -13 26 -13 26 24 c 2,28,-1
 28 164 l 2,29,30
 28 180 28 180 42 184 c 1,31,-1
 160 184 l 1,32,33
 42 290 42 290 42 436.5 c 128,-1,34
 42 583 42 583 159 674 c 1,35,36
 263 774 263 774 473.5 774 c 128,-1,37
 684 774 684 774 807 630 c 1,38,39
 878 542 878 542 878 414 c 128,-1,40
 878 286 878 286 740 176 c 1,41,-1
 872 177 l 2,42,43
 890 177 890 177 890 153 c 1,44,-1
 888 132 l 1,45,-1
 889 73 l 1,46,47
 889 -6 889 -6 884 -6 c 2,0,-1
EndSplineSet
EndChar

StartChar: pi
Encoding: 960 960 245
Width: 793
GlyphClass: 2
Flags: W
LayerCount: 2
Fore
SplineSet
288 -10 m 1,0,1
 60 -10 60 -10 60 0.5 c 128,-1,2
 60 11 60 11 61 13 c 1,3,-1
 62 12 l 1,4,5
 117 222 117 222 119 384 c 1,6,7
 118 394 118 394 106.5 394 c 128,-1,8
 95 394 95 394 92 395 c 1,9,-1
 31 389 l 2,10,11
 18 388 18 388 15 395 c 128,-1,12
 12 402 12 402 8.5 415.5 c 128,-1,13
 5 429 5 429 2.5 445 c 128,-1,14
 0 461 0 461 -2.5 477 c 128,-1,15
 -5 493 -5 493 -6.5 507.5 c 128,-1,16
 -8 522 -8 522 -9 530 c 1,17,18
 -9 588 -9 588 230 588 c 1,19,20
 296 592 296 592 362 592 c 2,21,-1
 602 590 l 2,22,23
 705 590 705 590 778 595 c 1,24,25
 794 592 794 592 797 578 c 1,26,-1
 791 506 l 1,27,-1
 784 434 l 2,28,29
 782 420 782 420 780 407 c 1,30,-1
 761 390 l 1,31,-1
 734 390 l 2,32,33
 720 390 720 390 705 388 c 1,34,35
 704 334 704 334 703 280 c 128,-1,36
 702 226 702 226 702 147.5 c 128,-1,37
 702 69 702 69 715 7 c 1,38,39
 715 -9 715 -9 698 -16 c 1,40,-1
 482 -12 l 1,41,42
 448 -4 448 -4 448 113 c 2,43,-1
 448 140 l 2,44,45
 448 204 448 204 449 267 c 2,46,-1
 451 395 l 1,47,-1
 363 399 l 1,48,49
 354 196 354 196 333 117 c 128,-1,50
 312 38 312 38 310 28 c 0,51,52
 302 -11 302 -11 288 -10 c 1,0,1
EndSplineSet
EndChar

StartChar: uni2010
Encoding: 8208 8208 257
Width: 429
GlyphClass: 2
Flags: W
LayerCount: 2
Fore
SplineSet
390 180 m 2,0,-1
 36 170 l 1,1,-1
 26 180 l 2,2,3
 22 184 22 184 18 190 c 1,4,-1
 19 236 l 2,5,6
 20 260 20 260 20 282 c 1,7,-1
 18 321 l 1,8,9
 18 372 18 372 34 372 c 0,10,11
 163 372 163 372 239 372 c 0,12,13
 314 372 314 372 390 372 c 1,14,15
 404 370 404 370 404 305 c 2,16,-1
 404 198 l 1,17,18
 401 180 401 180 390 180 c 2,0,-1
EndSplineSet
EndChar

StartChar: uni2011
Encoding: 8209 8209 258
Width: 429
GlyphClass: 2
Flags: W
LayerCount: 2
Fore
SplineSet
390 180 m 2,0,-1
 36 170 l 1,1,-1
 26 180 l 2,2,3
 22 184 22 184 18 190 c 1,4,-1
 19 236 l 2,5,6
 20 260 20 260 20 282 c 1,7,-1
 18 321 l 1,8,9
 18 372 18 372 34 372 c 0,10,11
 163 372 163 372 239 372 c 0,12,13
 314 372 314 372 390 372 c 1,14,15
 404 370 404 370 404 305 c 2,16,-1
 404 198 l 1,17,18
 401 180 401 180 390 180 c 2,0,-1
EndSplineSet
EndChar

StartChar: figuredash
Encoding: 8210 8210 259
Width: 429
GlyphClass: 2
Flags: W
LayerCount: 2
Fore
SplineSet
390 180 m 2,0,-1
 36 170 l 1,1,-1
 26 180 l 2,2,3
 22 184 22 184 18 190 c 1,4,-1
 19 236 l 2,5,6
 20 260 20 260 20 282 c 1,7,-1
 18 321 l 1,8,9
 18 372 18 372 34 372 c 0,10,11
 163 372 163 372 239 372 c 0,12,13
 314 372 314 372 390 372 c 1,14,15
 404 370 404 370 404 305 c 2,16,-1
 404 198 l 1,17,18
 401 180 401 180 390 180 c 2,0,-1
EndSplineSet
EndChar

StartChar: endash
Encoding: 8211 8211 260
Width: 527
GlyphClass: 2
Flags: W
LayerCount: 2
Fore
SplineSet
6 172 m 1,0,1
 -12 190 -12 190 -12 206 c 2,2,-1
 -12 290 l 2,3,4
 -12 374 -12 374 5 374 c 2,5,-1
 214 372 l 1,6,7
 214 372 214 372 332 372 c 0,8,9
 390 372 390 372 450 374 c 2,10,-1
 472 375 l 1,11,-1
 500 376 l 1,12,13
 529 376 529 376 531 362 c 1,14,15
 534 304 534 304 534 243 c 128,-1,16
 534 182 534 182 518 182 c 2,17,-1
 516 182 l 1,18,-1
 6 172 l 1,0,1
EndSplineSet
EndChar

StartChar: emdash
Encoding: 8212 8212 261
Width: 1023
GlyphClass: 2
Flags: W
LayerCount: 2
Fore
SplineSet
-9 196 m 1,0,-1
 -10 320 l 1,1,-1
 -10 337 l 2,2,3
 -10 373 -10 373 -2 373 c 0,4,5
 0 373 0 373 8 370 c 1,6,-1
 197 370 l 1,7,-1
 769 374 l 1,8,-1
 1018 375 l 1,9,10
 1030 373 1030 373 1030 352 c 2,11,-1
 1028 263 l 1,12,-1
 1026 193 l 1,13,14
 1024 186 1024 186 1012 184 c 1,15,16
 901 188 901 188 810 188 c 2,17,18
 810 188 810 188 707 188 c 0,19,20
 481 188 481 188 80 175 c 1,21,-1
 6 172 l 1,22,-1
 -9 196 l 1,0,-1
EndSplineSet
EndChar

StartChar: quoteleft
Encoding: 8216 8216 262
Width: 363
GlyphClass: 2
Flags: W
LayerCount: 2
Fore
SplineSet
26 420 m 1,0,1
 18 435 18 435 11 450 c 1,2,-1
 81 638 l 1,3,-1
 126 749 l 1,4,5
 134 757 134 757 237 756.5 c 128,-1,6
 340 756 340 756 340 740 c 0,7,8
 340 709 340 709 329 670 c 1,9,-1
 320 632 l 2,10,11
 315 613 315 613 311 596 c 2,12,-1
 298 529 l 2,13,14
 284 457 284 457 272 438.5 c 128,-1,15
 260 420 260 420 182 420 c 2,16,-1
 26 420 l 1,0,1
EndSplineSet
EndChar

StartChar: quoteright
Encoding: 8217 8217 263
Width: 362
GlyphClass: 2
Flags: W
LayerCount: 2
Fore
SplineSet
65 419 m 1,0,-1
 26 420 l 1,1,-1
 17 428 l 1,2,-1
 10 438 l 1,3,4
 22 486 22 486 34 532 c 1,5,-1
 37 547 l 2,6,7
 40 563 40 563 46 587 c 2,8,-1
 59 640 l 2,9,10
 85 749 85 749 96.5 751.5 c 128,-1,11
 108 754 108 754 117 754 c 2,12,-1
 190 754 l 1,13,-1
 260 755 l 1,14,15
 344 754 344 754 344 746 c 2,16,-1
 344 736 l 1,17,18
 343 736 343 736 343 734 c 2,19,-1
 264 507 l 1,20,-1
 236 433 l 1,21,22
 230 420 230 420 190 420 c 2,23,-1
 90 420 l 1,24,-1
 65 419 l 1,0,-1
EndSplineSet
EndChar

StartChar: quotesinglbase
Encoding: 8218 8218 264
Width: 364
GlyphClass: 2
Flags: W
LayerCount: 2
Fore
SplineSet
19 -102 m 1,0,1
 15 -98 15 -98 9 -94 c 1,2,-1
 48 66 l 1,3,4
 68 142 68 142 88 216 c 1,5,6
 92 224 92 224 100 224 c 2,7,8
 100 224 100 224 108 224 c 0,9,10
 156 222 156 222 200 222 c 2,11,-1
 260 223 l 1,12,13
 344 223 344 223 344 208 c 2,14,-1
 344 202 l 1,15,-1
 264 -26 l 1,16,-1
 235 -99 l 1,17,18
 225 -112 225 -112 185 -112 c 2,19,-1
 72 -112 l 1,20,-1
 36 -113 l 2,21,22
 24 -113 24 -113 18 -104 c 1,23,-1
 19 -102 l 1,0,1
EndSplineSet
EndChar

StartChar: quotedblleft
Encoding: 8220 8220 265
Width: 606
GlyphClass: 2
Flags: W
LayerCount: 2
Fore
SplineSet
117 754 m 1,0,1
 117 754 117 754 256 754 c 0,2,3
 320 754 320 754 320 742 c 0,4,5
 320 722 320 722 310 682 c 2,6,-1
 302 650 l 2,7,8
 298 634 298 634 295 620 c 2,9,-1
 290 588 l 1,10,-1
 273 504 l 1,11,12
 255 424 255 424 244 424 c 1,13,-1
 238 425 l 1,14,-1
 192 424 l 2,15,16
 98 422 98 422 6 418 c 1,17,-1
 -6 445 l 1,18,-1
 66 642 l 1,19,-1
 66 643 l 1,20,-1
 76 672 l 1,21,22
 102 751 102 751 117 754 c 1,0,1
444 758 m 1,23,24
 552 752 552 752 600 752 c 128,-1,25
 648 752 648 752 648 745 c 128,-1,26
 648 738 648 738 649 732 c 1,27,-1
 622 618 l 1,28,-1
 616 586 l 2,29,30
 612 566 612 566 608 544 c 0,31,32
 586 424 586 424 564 424 c 1,33,34
 488 420 488 420 414 420 c 2,35,-1
 334 421 l 1,36,-1
 319 441 l 1,37,-1
 392 642 l 1,38,-1
 392 643 l 1,39,40
 397 655 397 655 402 672 c 0,41,42
 426 741 426 741 444 758 c 1,23,24
EndSplineSet
EndChar

StartChar: quotedblright
Encoding: 8221 8221 266
Width: 608
GlyphClass: 2
Flags: W
LayerCount: 2
Fore
SplineSet
234 474 m 1,0,1
 219 425 219 425 212 424 c 0,2,3
 154 420 154 420 8 420 c 1,4,-1
 0 430 l 2,5,6
 -2 434 -2 434 -4 436 c 0,7,8
 -5 438 -5 438 -5 441 c 2,9,10
 -5 441 -5 441 -5 448 c 0,11,12
 -4 458 -4 458 4 488 c 2,13,-1
 36 622 l 1,14,15
 69 754 69 754 84 754 c 2,16,-1
 136 756 l 1,17,-1
 173 755 l 1,18,-1
 230 755 l 2,19,20
 326 755 326 755 326 749.5 c 128,-1,21
 326 744 326 744 315 715 c 128,-1,22
 304 686 304 686 285 629 c 2,23,-1
 234 474 l 1,0,1
338 417 m 1,24,25
 328 423 328 423 320 436 c 1,26,-1
 344 528 l 2,27,28
 351 553 351 553 368.5 637.5 c 128,-1,29
 386 722 386 722 410 757 c 1,30,31
 454 756 454 756 499 756 c 2,32,-1
 530 756 l 2,33,34
 654 756 654 756 654 738 c 2,35,-1
 654 734 l 1,36,-1
 546 430 l 1,37,38
 539 416 539 416 424 416 c 1,39,-1
 352 417 l 1,40,-1
 338 417 l 1,24,25
EndSplineSet
EndChar

StartChar: quotedblbase
Encoding: 8222 8222 267
Width: 608
GlyphClass: 2
Flags: W
LayerCount: 2
Fore
SplineSet
74 216 m 0,0,1
 78 224 78 224 118 224 c 2,2,-1
 236 224 l 2,3,4
 326 224 326 224 326 212 c 2,5,-1
 326 207 l 1,6,-1
 252 -8 l 1,7,8
 219 -108 219 -108 211 -108 c 128,-1,9
 203 -108 203 -108 202 -107 c 1,10,-1
 41 -114 l 1,11,12
 7 -114 7 -114 0 -105 c 2,13,-1
 -8 -95 l 1,14,-1
 25 27 l 1,15,-1
 24 28 l 1,16,-1
 30 60 l 1,17,18
 38 92 38 92 46 124 c 0,19,20
 63 192 63 192 74 216 c 0,0,1
420 225 m 2,21,-1
 442 226 l 2,22,23
 454 226 454 226 466 225 c 2,24,-1
 522 224 l 1,25,26
 610 224 610 224 610 206 c 2,27,-1
 610 201 l 1,28,-1
 501 -100 l 1,29,30
 494 -114 494 -114 415 -114 c 1,31,-1
 367 -113 l 1,32,-1
 291 -114 l 1,33,34
 288 -110 288 -110 284 -105 c 2,35,-1
 276 -95 l 1,36,-1
 297 -19 l 2,37,38
 308 21 308 21 311.5 41.5 c 128,-1,39
 315 62 315 62 318 74 c 2,40,-1
 323 104 l 1,41,42
 341 200 341 200 362 228 c 1,43,-1
 398 226 l 2,44,45
 409 225 409 225 420 225 c 2,21,-1
EndSplineSet
EndChar

StartChar: dagger
Encoding: 8224 8224 268
Width: 758
GlyphClass: 2
Flags: W
LayerCount: 2
Fore
SplineSet
96 471 m 1,0,-1
 94 524 l 1,1,2
 94 602 94 602 114 602 c 2,3,-1
 122 602 l 1,4,-1
 243 599 l 1,5,-1
 253 599 l 2,6,7
 257 599 257 599 263 600 c 1,8,-1
 265 712 l 1,9,-1
 264 730 l 1,10,11
 264 749 264 749 274 752 c 1,12,-1
 434 751 l 1,13,-1
 463 752 l 1,14,15
 493 752 493 752 493 708 c 2,16,-1
 493 676 l 1,17,-1
 492 614 l 1,18,-1
 492 599 l 1,19,-1
 632 602 l 2,20,21
 656 602 656 602 656 594 c 2,22,-1
 656 582 l 1,23,-1
 658 426 l 1,24,25
 654 412 654 412 623 412 c 2,26,27
 623 412 623 412 560 412 c 1,28,-1
 521 414 l 1,29,-1
 499 415 l 1,30,31
 497 409 497 409 495 403 c 1,32,-1
 497 2 l 1,33,34
 495 -14 495 -14 475 -14 c 0,35,36
 408 -14 408 -14 355 -14 c 128,-1,37
 302 -14 302 -14 274 -16 c 1,38,39
 258 0 258 0 258 28 c 2,40,-1
 261 396 l 1,41,-1
 261 410 l 1,42,-1
 146 410 l 2,43,44
 98 410 98 410 97 428 c 2,45,-1
 96 471 l 1,0,-1
EndSplineSet
EndChar

StartChar: daggerdbl
Encoding: 8225 8225 269
Width: 758
GlyphClass: 2
Flags: W
LayerCount: 2
Fore
SplineSet
661 174 m 1,0,-1
 662 134 l 2,1,2
 662 115 662 115 646 112 c 1,3,-1
 554 112 l 2,4,5
 516 112 516 112 492 110 c 1,6,-1
 492 68 l 1,7,8
 493 48 493 48 493 22 c 128,-1,9
 493 -4 493 -4 484 -8 c 0,10,11
 466 -16 466 -16 414 -16 c 2,12,-1
 282 -16 l 1,13,14
 264 10 264 10 264 33 c 2,15,-1
 264 108 l 1,16,-1
 111 110 l 1,17,18
 95 113 95 113 95 169 c 2,19,-1
 96 278 l 2,20,21
 96 292 96 292 110 296 c 1,22,-1
 268 294 l 1,23,-1
 268 403 l 2,24,25
 268 428 268 428 270 453 c 1,26,-1
 199 452 l 1,27,28
 102 452 102 452 102 470 c 2,29,-1
 102 618 l 2,30,31
 102 628 102 628 112 632 c 1,32,33
 272 628 272 628 272 628 c 1,34,-1
 272 728 l 2,35,36
 272 750 272 750 301.5 752 c 128,-1,37
 331 754 331 754 360 754 c 2,38,-1
 464 751 l 2,39,40
 488 751 488 751 488 720 c 2,41,-1
 488 703 l 1,42,-1
 487 686 l 1,43,-1
 486 658 l 1,44,-1
 486 631 l 1,45,46
 524 632 524 632 561 632 c 2,47,-1
 636 632 l 2,48,49
 656 632 656 632 656 622 c 0,50,51
 658 546 658 546 658 466 c 1,52,53
 657 454 657 454 628 454 c 2,54,-1
 500 454 l 1,55,-1
 487 452 l 1,56,57
 491 372 491 372 491 297 c 1,58,59
 523 295 523 295 556 295 c 2,60,-1
 638 296 l 2,61,62
 660 296 660 296 660 272 c 2,63,-1
 660 224 l 1,64,-1
 661 181 l 1,65,-1
 661 174 l 1,0,-1
EndSplineSet
EndChar

StartChar: bullet
Encoding: 8226 8226 270
Width: 571
GlyphClass: 2
Flags: W
LayerCount: 2
Fore
SplineSet
78 365 m 1,0,-1
 80 367 l 1,1,2
 96 500 96 500 198 550 c 0,3,4
 234 568 234 568 278 568 c 0,5,6
 367 568 367 568 428 509 c 128,-1,7
 489 450 489 450 489 386 c 0,8,9
 489 282 489 282 429 224 c 128,-1,10
 369 166 369 166 304 166 c 0,11,12
 197 166 197 166 142 225.5 c 128,-1,13
 87 285 87 285 78 365 c 1,0,-1
EndSplineSet
EndChar

StartChar: ellipsis
Encoding: 8230 8230 271
Width: 1037
GlyphClass: 2
Flags: W
LayerCount: 2
Fore
SplineSet
300 -8 m 1,0,1
 294 -8 294 -8 111 -16 c 1,2,-1
 57 -16 l 1,3,-1
 41 7 l 2,4,5
 40 10 40 10 40 14 c 2,6,-1
 40 22 l 1,7,-1
 42 72 l 1,8,-1
 42 98 l 2,9,10
 42 220 42 220 58 220 c 2,11,12
 58 220 58 220 236 220 c 0,13,14
 311 220 311 220 311 206 c 2,15,-1
 314 59 l 1,16,-1
 314 20 l 2,17,18
 314 -9 314 -9 303 -9 c 1,19,-1
 300 -8 l 1,0,1
652 3 m 1,20,21
 646 -16 646 -16 557 -16 c 0,22,23
 476 -16 476 -16 395 -16 c 1,24,-1
 380 6 l 1,25,26
 380 12 380 12 379 20 c 1,27,-1
 379 36 l 2,28,29
 379 100 379 100 384 207 c 0,30,31
 384 222 384 222 454 222 c 2,32,33
 454 222 454 222 586 222 c 0,34,35
 646 222 646 222 650 208 c 1,36,-1
 650 86 l 2,37,38
 650 41 650 41 652 3 c 1,20,21
988 74 m 1,39,-1
 990 2 l 1,40,41
 984 -16 984 -16 850 -16 c 1,42,-1
 782 -15 l 1,43,-1
 734 -16 l 1,44,45
 730 -10 730 -10 726 -5 c 128,-1,46
 722 0 722 0 718 6 c 1,47,-1
 717 44 l 1,48,49
 717 103 717 103 722 208 c 0,50,51
 722 223 722 223 804 223 c 2,52,-1
 902 222 l 1,53,54
 911 220 911 220 947.5 219 c 128,-1,55
 984 218 984 218 988 209 c 1,56,-1
 989 105 l 1,57,-1
 988 74 l 1,39,-1
EndSplineSet
EndChar

StartChar: perthousand
Encoding: 8240 8240 273
Width: 1328
GlyphClass: 2
Flags: W
LayerCount: 2
Fore
SplineSet
17 482 m 1,0,1
 18 488 18 488 19 513 c 0,2,3
 27 720 27 720 199.5 720 c 128,-1,4
 372 720 372 720 372 493.5 c 128,-1,5
 372 267 372 267 193 267 c 0,6,7
 35 267 35 267 18 465 c 1,8,-1
 17 482 l 1,0,1
240 542 m 1,9,10
 240 618 240 618 199 618 c 0,11,12
 149 618 149 618 149 494 c 1,13,-1
 150 490 l 1,14,-1
 150 460 l 2,15,16
 150 366 150 366 197 366 c 2,17,-1
 198 366 l 2,18,19
 239 366 239 366 239 448 c 1,20,-1
 238 490 l 1,21,-1
 240 542 l 1,9,10
667 722 m 1,22,-1
 694 724 l 1,23,24
 716 724 716 724 722 696 c 1,25,-1
 330 -30 l 2,26,27
 322 -44 322 -44 287 -44 c 128,-1,28
 252 -44 252 -44 212 -42 c 1,29,30
 206 -30 206 -30 204.5 -14.5 c 128,-1,31
 203 1 203 1 210 12 c 2,32,-1
 598 716 l 2,33,34
 602 722 602 722 623 722 c 2,35,-1
 667 722 l 1,22,-1
724 420 m 0,36,37
 900 420 900 420 900 194 c 0,38,39
 900 -28 900 -28 720 -30 c 1,40,41
 631 -32 631 -32 588 29 c 128,-1,42
 545 90 545 90 545 182 c 2,43,-1
 545 188 l 1,44,45
 546 192 546 192 546 194 c 0,46,47
 561 420 561 420 724 420 c 0,36,37
726 320 m 0,48,49
 676 320 676 320 676 215 c 2,50,-1
 676 176 l 2,51,52
 676 68 676 68 726 68 c 0,53,54
 768 68 768 68 768 150 c 2,55,-1
 768 236 l 2,56,57
 768 320 768 320 726 320 c 0,48,49
1124 -30 m 0,58,59
 1009 -30 1009 -30 970 86 c 0,60,61
 954 136 954 136 954 177 c 2,62,-1
 954 193 l 1,63,-1
 956 194 l 1,64,65
 965 420 965 420 1134 420 c 2,66,-1
 1151 420 l 2,67,68
 1307 420 1307 420 1306.5 195 c 128,-1,69
 1306 -30 1306 -30 1124 -30 c 0,58,59
1088 233 m 1,70,-1
 1086 194 l 1,71,-1
 1086 162 l 2,72,73
 1086 67 1086 67 1134 67 c 1,74,-1
 1135 68 l 1,75,76
 1176 68 1176 68 1176 156 c 1,77,-1
 1175 194 l 1,78,-1
 1176 242 l 1,79,80
 1176 320 1176 320 1134 320 c 1,81,-1
 1132 319 l 1,82,83
 1090 319 1090 319 1088 233 c 1,70,-1
EndSplineSet
EndChar

StartChar: guilsinglleft
Encoding: 8249 8249 274
Width: 367
GlyphClass: 2
Flags: W
LayerCount: 2
Fore
SplineSet
330 -11 m 1,0,-1
 162 -16 l 1,1,2
 147 -9 147 -9 126 28 c 2,3,-1
 91 92 l 1,4,-1
 61 140 l 1,5,-1
 54 149 l 2,6,7
 48 157 48 157 40 167 c 1,8,-1
 25 190 l 2,9,10
 -6 237 -6 237 -6 253 c 128,-1,11
 -6 269 -6 269 13 298 c 1,12,-1
 30 321 l 1,13,14
 40 332 40 332 46 342 c 2,15,-1
 55 358 l 2,16,17
 60 366 60 366 66 374.5 c 128,-1,18
 72 383 72 383 78 397 c 1,19,-1
 113 458 l 1,20,21
 149 515 149 515 164 520 c 1,22,23
 187 521 187 521 205 521 c 2,24,-1
 306 521 l 1,25,26
 314 522 314 522 321 522 c 2,27,-1
 330 522 l 1,28,-1
 344 521 l 2,29,30
 369 519 369 519 371 508 c 1,31,-1
 264 261 l 1,32,-1
 272 244 l 1,33,-1
 270 242 l 1,34,-1
 330 107 l 2,35,36
 334 97 334 97 342 83.5 c 128,-1,37
 350 70 350 70 362 44.5 c 128,-1,38
 374 19 374 19 374 3.5 c 128,-1,39
 374 -12 374 -12 358 -12 c 2,40,-1
 330 -11 l 1,0,-1
EndSplineSet
EndChar

StartChar: guilsinglright
Encoding: 8250 8250 275
Width: 365
GlyphClass: 2
Flags: W
LayerCount: 2
Fore
SplineSet
30 522 m 2,0,-1
 168 523 l 1,1,-1
 185 523 l 1,2,3
 194 522 194 522 203.5 521 c 128,-1,4
 213 520 213 520 219 509 c 2,5,-1
 319 344 l 2,6,7
 324 336 324 336 332 324 c 2,8,-1
 349 299 l 1,9,10
 370 265 370 265 370 257.5 c 128,-1,11
 370 250 370 250 365 241 c 128,-1,12
 360 232 360 232 353.5 222 c 128,-1,13
 347 212 347 212 340 202 c 128,-1,14
 333 192 333 192 328 184 c 2,15,-1
 212 -3 l 1,16,17
 207 -7 207 -7 201 -8 c 2,18,-1
 130 -9 l 1,19,20
 102 -11 102 -11 48 -11 c 128,-1,21
 -6 -11 -6 -11 -6 -3.5 c 128,-1,22
 -6 4 -6 4 -4 8 c 2,23,-1
 97 258 l 1,24,-1
 90 275 l 1,25,-1
 90 276 l 2,26,27
 90 277 90 277 91 276.5 c 128,-1,28
 92 276 92 276 92 278 c 2,29,-1
 39 400 l 2,30,31
 35 410 35 410 28 425 c 2,32,-1
 12 456 l 2,33,34
 -6 492 -6 492 -6 507 c 128,-1,35
 -6 522 -6 522 30 522 c 2,0,-1
EndSplineSet
EndChar

StartChar: fraction
Encoding: 8260 8260 276
Width: 275
GlyphClass: 2
Flags: W
LayerCount: 2
Fore
SplineSet
-35 -40 m 1,0,-1
 -112 -41 l 1,1,-1
 -120 -20 l 2,2,3
 -123 -10 -123 -10 -126 1 c 1,4,-1
 234 682 l 1,5,-1
 250 710 l 1,6,7
 250 710 250 710 259 728 c 0,8,9
 280 772 280 772 291 772 c 2,10,-1
 396 771 l 1,11,-1
 397 772 l 1,12,13
 403 772 403 772 405.5 769.5 c 128,-1,14
 408 767 408 767 410 766 c 1,15,-1
 0 -30 l 2,16,17
 -4 -39 -4 -39 -18 -41 c 1,18,-1
 -35 -40 l 1,0,-1
EndSplineSet
EndChar

StartChar: uni2074
Encoding: 8308 8308 278
Width: 653
GlyphClass: 2
Flags: W
LayerCount: 2
Fore
SplineSet
514 74 m 1,0,-1
 515 9 l 2,1,2
 515 -10 515 -10 500 -10 c 2,3,-1
 394 -10 l 2,4,5
 349 -10 349 -10 320 -12 c 1,6,-1
 308 3 l 1,7,-1
 308 78 l 2,8,9
 308 86 308 86 294 86 c 0,10,11
 265 86 265 86 240 76 c 1,12,-1
 152 74 l 1,13,-1
 101 74 l 2,14,15
 78 74 78 74 70 87 c 1,16,-1
 70 184 l 1,17,18
 74 241 74 241 144 349 c 1,19,-1
 250 516 l 1,20,-1
 254 520 l 1,21,22
 265 521 265 521 275.5 521.5 c 128,-1,23
 286 522 286 522 296 523 c 2,24,-1
 328 524 l 2,25,26
 382 526 382 526 433 526 c 2,27,-1
 502 526 l 2,28,29
 508 526 508 526 514 522 c 1,30,-1
 514 502 l 1,31,-1
 512 314 l 1,32,-1
 512 272 l 1,33,-1
 511 248 l 2,34,35
 510 222 510 222 524 222 c 2,36,-1
 556 222 l 2,37,38
 574 222 574 222 574 202 c 0,39,40
 574 200 574 200 572 200 c 1,41,-1
 574 170 l 1,42,-1
 575 117 l 2,43,44
 575 74 575 74 563 74 c 2,45,-1
 514 74 l 1,0,-1
333 260 m 2,46,-1
 334 298 l 1,47,48
 334 396 334 396 328 396 c 2,49,-1
 321 396 l 2,50,51
 314 396 314 396 312 393 c 2,52,-1
 215 220 l 1,53,54
 219 211 219 211 224 202 c 1,55,-1
 230 202 l 1,56,-1
 323 204 l 1,57,58
 331 208 331 208 333 216 c 1,59,-1
 332 242 l 1,60,-1
 332 247 l 1,61,62
 333 252 333 252 333 260 c 2,46,-1
EndSplineSet
EndChar

StartChar: Euro
Encoding: 8364 8364 279
Width: 722
GlyphClass: 2
Flags: W
LayerCount: 2
Fore
SplineSet
9 228 m 1,0,1
 -2 232 -2 232 -2 243 c 1,2,3
 28 343 28 343 36 346 c 1,4,-1
 60 346 l 1,5,-1
 61 378 l 1,6,-1
 34 378 l 2,7,8
 20 378 20 378 10 380 c 1,9,10
 0 384 0 384 0 392 c 1,11,-1
 27 487 l 2,12,13
 29 494 29 494 36 496 c 1,14,-1
 78 496 l 1,15,16
 115 643 115 643 223 706 c 1,17,-1
 254 722 l 1,18,19
 254 722 254 722 305 740 c 1,20,21
 318 743 318 743 334 744.5 c 128,-1,22
 350 746 350 746 366 748 c 128,-1,23
 382 750 382 750 397 750 c 2,24,-1
 422 750 l 2,25,26
 543 750 543 750 594 717 c 0,27,28
 674 666 674 666 692.5 637.5 c 128,-1,29
 711 609 711 609 719 572 c 1,30,-1
 724 542 l 1,31,32
 722 532 722 532 714 531 c 2,33,-1
 484 530 l 1,34,35
 478 534 478 534 473 541 c 0,36,37
 451 572 451 572 421 572 c 0,38,39
 364 572 364 572 351 521 c 2,40,-1
 345 498 l 1,41,-1
 520 498 l 1,42,43
 538 495 538 495 520 434 c 1,44,-1
 508 386 l 1,45,46
 504 378 504 378 499 378 c 2,47,-1
 492 378 l 1,48,-1
 448 376 l 2,49,50
 426 375 426 375 402 375 c 2,51,-1
 344 376 l 1,52,-1
 344 348 l 1,53,54
 372 350 372 350 402 350 c 2,55,-1
 435 349 l 1,56,-1
 476 350 l 1,57,58
 492 348 492 348 492 340 c 2,59,-1
 492 330 l 1,60,-1
 466 234 l 1,61,-1
 712 230 l 1,62,63
 727 228 727 228 727 218 c 2,64,-1
 727 202 l 2,65,66
 727 52 727 52 564 -8 c 0,67,68
 481 -38 481 -38 446 -38 c 0,69,70
 350 -38 350 -38 280 -13 c 1,71,-1
 266 -9 l 1,72,73
 256 -5 256 -5 250 -2 c 2,74,-1
 238 4 l 1,75,-1
 220 16 l 1,76,77
 124 64 124 64 75 228 c 1,78,-1
 9 228 l 1,0,1
410 136 m 0,79,80
 442 136 442 136 442 217 c 1,81,-1
 450 224 l 1,82,83
 426 224 426 224 401 223.5 c 128,-1,84
 376 223 376 223 352 223 c 1,85,86
 366 136 366 136 410 136 c 0,79,80
EndSplineSet
EndChar

StartChar: trademark
Encoding: 8482 8482 280
Width: 1036
GlyphClass: 2
Flags: W
LayerCount: 2
Fore
SplineSet
136 634 m 1,0,-1
 86 632 l 1,1,2
 37 632 37 632 34.5 645 c 128,-1,3
 32 658 32 658 32 679 c 2,4,-1
 31 721 l 2,5,6
 31 736 31 736 37 746 c 128,-1,7
 43 756 43 756 90 756 c 1,8,-1
 169 754 l 1,9,-1
 310 757 l 1,10,11
 388 757 388 757 393 746.5 c 128,-1,12
 398 736 398 736 400 720 c 128,-1,13
 402 704 402 704 402 673.5 c 128,-1,14
 402 643 402 643 388 636 c 1,15,-1
 296 638 l 1,16,-1
 295 590 l 1,17,-1
 300 320 l 1,18,19
 297 302 297 302 242 302 c 2,20,-1
 170 302 l 2,21,22
 152 302 152 302 146 303 c 1,23,-1
 139 315 l 1,24,-1
 131 326 l 1,25,-1
 131 347 l 1,26,-1
 136 634 l 1,0,-1
592 319 m 1,27,28
 590 304 590 304 550 304 c 2,29,-1
 464 304 l 2,30,31
 440 304 440 304 441 323 c 1,32,-1
 441 367 l 1,33,34
 444 554 444 554 446 742 c 0,35,36
 446 754 446 754 456 754 c 0,37,38
 542 754 542 754 627 753 c 1,39,40
 640 751 640 751 662 675 c 128,-1,41
 684 599 684 599 694 575.5 c 128,-1,42
 704 552 704 552 710 526 c 1,43,-1
 782 745 l 2,44,45
 784 752 784 752 793 756 c 1,46,-1
 888 755 l 1,47,-1
 917 755 l 2,48,49
 972 755 972 755 972 748 c 2,50,-1
 978 320 l 1,51,52
 975 306 975 306 957 306 c 0,53,54
 907 306 907 306 858 306 c 0,55,56
 824 306 824 306 824 394 c 2,57,-1
 824 466 l 1,58,-1
 814 431 l 1,59,-1
 804 392 l 1,60,61
 780 312 780 312 759 306 c 128,-1,62
 738 300 738 300 716 300 c 2,63,-1
 657 302 l 1,64,65
 631 324 631 324 621.5 366 c 128,-1,66
 612 408 612 408 606 424 c 1,67,-1
 595 462 l 1,68,69
 592 354 592 354 592 319 c 1,27,28
EndSplineSet
EndChar

StartChar: partialdiff
Encoding: 8706 8706 281
Width: 728
GlyphClass: 2
Flags: W
LayerCount: 2
Fore
SplineSet
36 154 m 1,0,1
 -3 261 -3 261 33.5 326.5 c 128,-1,2
 70 392 70 392 127.5 433 c 128,-1,3
 185 474 185 474 281 471.5 c 128,-1,4
 377 469 377 469 421 442 c 1,5,6
 412 569 412 569 300 602 c 0,7,8
 274 609 274 609 269 611.5 c 128,-1,9
 264 614 264 614 258 616 c 128,-1,10
 252 618 252 618 243 619 c 128,-1,11
 234 620 234 620 219 622 c 1,12,-1
 259 766 l 1,13,14
 277 769 277 769 304.5 769 c 128,-1,15
 332 769 332 769 360 767 c 0,16,17
 460 760 460 760 533 722 c 1,18,19
 704 630 704 630 704 345 c 0,20,21
 704 177 704 177 617 66 c 1,22,23
 530 -34 530 -34 356 -34 c 0,24,25
 102 -34 102 -34 36 154 c 1,0,1
260 242 m 1,26,27
 260 130 260 130 343 130 c 128,-1,28
 426 130 426 130 426 234 c 128,-1,29
 426 338 426 338 347.5 338 c 128,-1,30
 269 338 269 338 260 242 c 1,26,27
EndSplineSet
EndChar

StartChar: uni2206
Encoding: 8710 8710 282
Width: 850
GlyphClass: 2
Flags: W
LayerCount: 2
Fore
SplineSet
39 8 m 1,0,-1
 39 103 l 1,1,-1
 290 746 l 1,2,-1
 560 754 l 1,3,4
 588 670 588 670 620 592 c 2,5,-1
 746 275 l 2,6,7
 777 196 777 196 805 112 c 1,8,9
 807 85 807 85 807 61 c 2,10,-1
 807 12 l 1,11,-1
 39 8 l 1,0,-1
271 152 m 1,12,13
 312 150 312 150 440.5 150 c 128,-1,14
 569 150 569 150 570 161 c 1,15,16
 570 178 570 178 532 270 c 1,17,-1
 492 370 l 1,18,19
 448 483 448 483 436 535 c 128,-1,20
 424 587 424 587 415 589 c 1,21,-1
 411 589 l 1,22,23
 398 582 398 582 388 544 c 128,-1,24
 378 506 378 506 373.5 494 c 128,-1,25
 369 482 369 482 365.5 466 c 128,-1,26
 362 450 362 450 356 436 c 2,27,-1
 257 174 l 1,28,-1
 271 152 l 1,12,13
EndSplineSet
EndChar

StartChar: product
Encoding: 8719 8719 283
Width: 909
GlyphClass: 2
Flags: W
LayerCount: 2
Fore
SplineSet
10 564 m 2,0,-1
 9 746 l 2,1,2
 9 758 9 758 23 762 c 1,3,-1
 886 765 l 2,4,5
 904 765 904 765 904 749 c 2,6,-1
 906 564 l 1,7,-1
 887 545 l 1,8,9
 887 545 887 545 856 546 c 1,10,11
 815 546 815 546 782 536 c 1,12,-1
 782 -104 l 1,13,14
 780 -116 780 -116 768 -120 c 1,15,-1
 547 -116 l 2,16,17
 543 -115 543 -115 540 -113.5 c 128,-1,18
 537 -112 537 -112 536 -112 c 256,19,20
 535 -112 535 -112 535 -113 c 1,21,22
 538 22 538 22 538 171 c 2,23,-1
 538 397 l 2,24,25
 538 474 538 474 536 553 c 1,26,-1
 364 546 l 1,27,28
 373 362 373 362 373 143 c 2,29,-1
 373 97 l 2,30,31
 373 -110 373 -110 367.5 -110 c 128,-1,32
 362 -110 362 -110 361 -108 c 1,33,-1
 140 -114 l 1,34,35
 130 -109 130 -109 130 -34 c 2,36,-1
 130 89 l 1,37,-1
 131 472 l 1,38,-1
 131 512 l 2,39,40
 131 532 131 532 130 550 c 1,41,-1
 20 552 l 1,42,43
 10 554 10 554 10 564 c 2,0,-1
EndSplineSet
EndChar

StartChar: summation
Encoding: 8721 8721 284
Width: 711
GlyphClass: 2
Flags: W
LayerCount: 2
Fore
SplineSet
24 -118 m 1,0,1
 11 -114 11 -114 11 -100 c 2,2,-1
 12 16 l 2,3,4
 12 22 12 22 15 27 c 1,5,-1
 274 316 l 1,6,-1
 32 600 l 2,7,8
 28 606 28 606 28 635 c 2,9,-1
 28 684 l 2,10,11
 28 755 28 755 30 755 c 128,-1,12
 32 755 32 755 33 754 c 1,13,-1
 668 758 l 1,14,15
 680 756 680 756 680 726 c 2,16,-1
 680 610 l 2,17,18
 680 560 680 560 674.5 560 c 128,-1,19
 669 560 669 560 668 561 c 1,20,-1
 368 554 l 1,21,-1
 551 353 l 1,22,23
 554 348 554 348 554 344 c 2,24,-1
 554 337 l 2,25,26
 554 334 554 334 553 331 c 1,27,-1
 347 96 l 1,28,-1
 694 98 l 1,29,30
 710 96 710 96 712 82 c 1,31,-1
 714 -104 l 1,32,-1
 695 -115 l 1,33,-1
 24 -118 l 1,0,1
EndSplineSet
EndChar

StartChar: minus
Encoding: 8722 8722 285
Width: 636
GlyphClass: 2
Flags: W
LayerCount: 2
Fore
SplineSet
587 196 m 1,0,1
 587 170 587 170 571 170 c 2,2,-1
 434 168 l 2,3,4
 339 166 339 166 246.5 163.5 c 128,-1,5
 154 161 154 161 59 160 c 1,6,-1
 42 178 l 1,7,8
 40 203 40 203 40 216 c 2,9,10
 40 216 40 216 40 236 c 1,11,12
 42 256 42 256 42 263 c 2,13,-1
 42 290 l 2,14,15
 42 321 42 321 53 337 c 1,16,-1
 62 337 l 1,17,18
 118 323 118 323 434 323 c 1,19,-1
 452 324 l 2,20,21
 484 325 484 325 514 325.5 c 128,-1,22
 544 326 544 326 574 328 c 0,23,24
 586 328 586 328 586 278 c 2,25,-1
 586 219 l 1,26,-1
 587 196 l 1,0,1
EndSplineSet
EndChar

StartChar: radical
Encoding: 8730 8730 286
Width: 779
GlyphClass: 2
Flags: W
LayerCount: 2
Fore
SplineSet
445 -160 m 1,0,-1
 330 -158 l 2,1,2
 328 -158 328 -158 326 -157 c 1,3,-1
 150 288 l 1,4,-1
 70 256 l 1,5,6
 60 256 60 256 34 338 c 1,7,-1
 24 368 l 1,8,9
 24 373 24 373 26 375.5 c 128,-1,10
 28 378 28 378 31 382 c 1,11,-1
 275 480 l 1,12,-1
 279 481 l 1,13,14
 286 480 286 480 292 470 c 1,15,-1
 396 186 l 2,16,17
 409 148 409 148 419 112 c 1,18,19
 440 218 440 218 464 315 c 1,20,-1
 569 698 l 1,21,22
 594 794 594 794 607.5 852 c 128,-1,23
 621 910 621 910 634 914 c 1,24,-1
 740 914 l 2,25,26
 794 914 794 914 803 900 c 128,-1,27
 812 886 812 886 822 870 c 1,28,-1
 755 648 l 2,29,30
 745 613 745 613 733 578 c 2,31,-1
 710 510 l 1,32,33
 656 346 656 346 608 181 c 1,34,-1
 514 -150 l 1,35,36
 510 -160 510 -160 482 -160 c 2,37,-1
 445 -160 l 1,0,-1
EndSplineSet
EndChar

